<?xml version="1.0"?>

<!DOCTYPE svg PUBLIC '-//W3C//DTD SVG 1.0//EN' 'http://www.w3.org/TR/2001/REC-SVG-20010904/DTD/svg10.dtd'>
<svg stroke-dasharray="none" shape-rendering="auto" xmlns="http://www.w3.org/2000/svg" font-family="&apos;Dialog&apos;" width="714" text-rendering="auto" fill-opacity="1" contentScriptType="text/ecmascript" color-interpolation="auto" color-rendering="auto" preserveAspectRatio="xMidYMid meet" font-size="12" fill="black" xmlns:xlink="http://www.w3.org/1999/xlink" stroke="black" image-rendering="auto" stroke-miterlimit="10" zoomAndPan="magnify" version="1.0" stroke-linecap="square" stroke-linejoin="miter" contentStyleType="text/css" font-style="normal" height="282" stroke-width="1" stroke-dashoffset="0" font-weight="normal" stroke-opacity="1">
  <!--Generated by the Batik Graphics2D SVG Generator-->
  <defs id="genericDefs" />
  <g>
    <defs id="defs1">
      <clipPath clipPathUnits="userSpaceOnUse" id="clipPath1">
        <path d="M264 4 L460 4 L460 50 L264 50 L264 4 Z" />
      </clipPath>
      <clipPath clipPathUnits="userSpaceOnUse" id="clipPath2">
        <path d="M313 5 L411 5 L411 21 L313 21 L313 5 Z" />
      </clipPath>
      <clipPath clipPathUnits="userSpaceOnUse" id="clipPath3">
        <path d="M329 19 L395 19 L395 36 L329 36 L329 19 Z" />
      </clipPath>
      <clipPath clipPathUnits="userSpaceOnUse" id="clipPath4">
        <path d="M292 34 L432 34 L432 48 L292 48 L292 34 Z" />
      </clipPath>
      <clipPath clipPathUnits="userSpaceOnUse" id="clipPath5">
        <path d="M264 48 L460 48 L460 67 L264 67 L264 48 Z" />
      </clipPath>
      <clipPath clipPathUnits="userSpaceOnUse" id="clipPath6">
        <path d="M266 49 L458 49 L458 65 L266 65 L266 49 Z" />
      </clipPath>
      <clipPath clipPathUnits="userSpaceOnUse" id="clipPath7">
        <path d="M38 174 L220 174 L220 220 L38 220 L38 174 Z" />
      </clipPath>
      <clipPath clipPathUnits="userSpaceOnUse" id="clipPath8">
        <path d="M88 175 L170 175 L170 191 L88 191 L88 175 Z" />
      </clipPath>
      <clipPath clipPathUnits="userSpaceOnUse" id="clipPath9">
        <path d="M106 189 L152 189 L152 206 L106 206 L106 189 Z" />
      </clipPath>
      <clipPath clipPathUnits="userSpaceOnUse" id="clipPath10">
        <path d="M40 204 L218 204 L218 218 L40 218 L40 204 Z" />
      </clipPath>
      <clipPath clipPathUnits="userSpaceOnUse" id="clipPath11">
        <path d="M4 107 L186 107 L186 153 L4 153 L4 107 Z" />
      </clipPath>
      <clipPath clipPathUnits="userSpaceOnUse" id="clipPath12">
        <path d="M54 108 L136 108 L136 124 L54 124 L54 108 Z" />
      </clipPath>
      <clipPath clipPathUnits="userSpaceOnUse" id="clipPath13">
        <path d="M59 122 L130 122 L130 139 L59 139 L59 122 Z" />
      </clipPath>
      <clipPath clipPathUnits="userSpaceOnUse" id="clipPath14">
        <path d="M6 137 L184 137 L184 151 L6 151 L6 137 Z" />
      </clipPath>
      <clipPath clipPathUnits="userSpaceOnUse" id="clipPath15">
        <path d="M575 86 L710 86 L710 132 L575 132 L575 86 Z" />
      </clipPath>
      <clipPath clipPathUnits="userSpaceOnUse" id="clipPath16">
        <path d="M593 87 L691 87 L691 103 L593 103 L593 87 Z" />
      </clipPath>
      <clipPath clipPathUnits="userSpaceOnUse" id="clipPath17">
        <path d="M620 101 L664 101 L664 118 L620 118 L620 101 Z" />
      </clipPath>
      <clipPath clipPathUnits="userSpaceOnUse" id="clipPath18">
        <path d="M577 116 L708 116 L708 130 L577 130 L577 116 Z" />
      </clipPath>
      <clipPath clipPathUnits="userSpaceOnUse" id="clipPath19">
        <path d="M537 232 L710 232 L710 278 L537 278 L537 232 Z" />
      </clipPath>
      <clipPath clipPathUnits="userSpaceOnUse" id="clipPath20">
        <path d="M574 233 L672 233 L672 249 L574 249 L574 233 Z" />
      </clipPath>
      <clipPath clipPathUnits="userSpaceOnUse" id="clipPath21">
        <path d="M575 247 L671 247 L671 264 L575 264 L575 247 Z" />
      </clipPath>
      <clipPath clipPathUnits="userSpaceOnUse" id="clipPath22">
        <path d="M539 262 L708 262 L708 276 L539 276 L539 262 Z" />
      </clipPath>
      <clipPath clipPathUnits="userSpaceOnUse" id="clipPath23">
        <path d="M537 159 L710 159 L710 205 L537 205 L537 159 Z" />
      </clipPath>
      <clipPath clipPathUnits="userSpaceOnUse" id="clipPath24">
        <path d="M574 160 L672 160 L672 176 L574 176 L574 160 Z" />
      </clipPath>
      <clipPath clipPathUnits="userSpaceOnUse" id="clipPath25">
        <path d="M564 174 L682 174 L682 191 L564 191 L564 174 Z" />
      </clipPath>
      <clipPath clipPathUnits="userSpaceOnUse" id="clipPath26">
        <path d="M539 189 L708 189 L708 203 L539 203 L539 189 Z" />
      </clipPath>
      <clipPath clipPathUnits="userSpaceOnUse" id="clipPath27">
        <path d="M149 232 L328 232 L328 278 L149 278 L149 232 Z" />
      </clipPath>
      <clipPath clipPathUnits="userSpaceOnUse" id="clipPath28">
        <path d="M189 233 L287 233 L287 249 L189 249 L189 233 Z" />
      </clipPath>
      <clipPath clipPathUnits="userSpaceOnUse" id="clipPath29">
        <path d="M180 247 L297 247 L297 264 L180 264 L180 247 Z" />
      </clipPath>
      <clipPath clipPathUnits="userSpaceOnUse" id="clipPath30">
        <path d="M151 262 L326 262 L326 276 L151 276 L151 262 Z" />
      </clipPath>
      <clipPath clipPathUnits="userSpaceOnUse" id="clipPath31">
        <path d="M337 232 L516 232 L516 278 L337 278 L337 232 Z" />
      </clipPath>
      <clipPath clipPathUnits="userSpaceOnUse" id="clipPath32">
        <path d="M377 233 L475 233 L475 249 L377 249 L377 233 Z" />
      </clipPath>
      <clipPath clipPathUnits="userSpaceOnUse" id="clipPath33">
        <path d="M349 247 L503 247 L503 264 L349 264 L349 247 Z" />
      </clipPath>
      <clipPath clipPathUnits="userSpaceOnUse" id="clipPath34">
        <path d="M339 262 L514 262 L514 276 L339 276 L339 262 Z" />
      </clipPath>
      <clipPath clipPathUnits="userSpaceOnUse" id="clipPath35">
        <path d="M159 65 L320 65 L320 177 L159 177 L159 65 Z" />
      </clipPath>
      <clipPath clipPathUnits="userSpaceOnUse" id="clipPath36">
        <path d="M303 65 L320 65 L320 80 L303 80 L303 65 Z" />
      </clipPath>
      <clipPath clipPathUnits="userSpaceOnUse" id="clipPath37">
        <path d="M415 65 L586 65 L586 162 L415 162 L415 65 Z" />
      </clipPath>
      <clipPath clipPathUnits="userSpaceOnUse" id="clipPath38">
        <path d="M415 65 L433 65 L433 79 L415 79 L415 65 Z" />
      </clipPath>
      <clipPath clipPathUnits="userSpaceOnUse" id="clipPath39">
        <path d="M458 59 L578 59 L578 94 L458 94 L458 59 Z" />
      </clipPath>
      <clipPath clipPathUnits="userSpaceOnUse" id="clipPath40">
        <path d="M458 59 L476 59 L476 71 L458 71 L458 59 Z" />
      </clipPath>
      <clipPath clipPathUnits="userSpaceOnUse" id="clipPath41">
        <path d="M156 65 L278 65 L278 110 L156 110 L156 65 Z" />
      </clipPath>
      <clipPath clipPathUnits="userSpaceOnUse" id="clipPath42">
        <path d="M260 65 L278 65 L278 77 L260 77 L260 65 Z" />
      </clipPath>
      <clipPath clipPathUnits="userSpaceOnUse" id="clipPath43">
        <path d="M250 65 L347 65 L347 235 L250 235 L250 65 Z" />
      </clipPath>
      <clipPath clipPathUnits="userSpaceOnUse" id="clipPath44">
        <path d="M333 65 L347 65 L347 83 L333 83 L333 65 Z" />
      </clipPath>
      <clipPath clipPathUnits="userSpaceOnUse" id="clipPath45">
        <path d="M369 65 L422 65 L422 235 L369 235 L369 65 Z" />
      </clipPath>
      <clipPath clipPathUnits="userSpaceOnUse" id="clipPath46">
        <path d="M369 65 L382 65 L382 83 L369 83 L369 65 Z" />
      </clipPath>
      <clipPath clipPathUnits="userSpaceOnUse" id="clipPath47">
        <path d="M617 203 L630 203 L630 235 L617 235 L617 203 Z" />
      </clipPath>
      <clipPath clipPathUnits="userSpaceOnUse" id="clipPath48">
        <path d="M617 203 L630 203 L630 220 L617 220 L617 203 Z" />
      </clipPath>
    </defs>
    <g font-size="11" fill="white" font-family="&apos;Tahoma&apos;" stroke-linejoin="round" stroke="white" stroke-miterlimit="0">
      <rect width="977" x="0" height="533" y="0" stroke="none" />
      <rect x="265" y="5" clip-path="url(#clipPath1)" width="194" height="44" stroke="none" />
      <rect x="265" y="5" clip-path="url(#clipPath1)" fill="none" width="194" height="44" stroke="black" />
      <text x="316" y="17" clip-path="url(#clipPath2)" fill="black" font-family="&apos;Arial&apos;" stroke="none" xml:space="preserve">&lt;&lt;Java Interface&gt;&gt;</text>
    </g>
    <g stroke-miterlimit="0" font-weight="bold" font-family="&apos;Arial&apos;" stroke-linejoin="round">
      <text xml:space="preserve" x="332" y="32" clip-path="url(#clipPath3)" stroke="none">ISecurable</text>
      <text font-size="9" x="295" y="44" clip-path="url(#clipPath4)" stroke="none" font-weight="normal" xml:space="preserve">org.jspresso.framework.security</text>
    </g>
    <g font-size="11" fill="white" font-family="&apos;Tahoma&apos;" stroke-linejoin="round" stroke="white" stroke-miterlimit="0">
      <rect x="265" y="49" clip-path="url(#clipPath5)" width="194" height="17" stroke="none" />
      <rect x="265" y="48" clip-path="url(#clipPath5)" fill="none" width="194" height="18" stroke="black" />
      <text x="269" y="61" clip-path="url(#clipPath6)" fill="black" font-family="&apos;Arial&apos;" stroke="none" xml:space="preserve">+getGrantedRoles(): Collection&lt;String&gt;</text>
      <rect x="39" y="175" clip-path="url(#clipPath7)" width="180" height="44" stroke="none" />
      <rect x="39" y="175" clip-path="url(#clipPath7)" fill="none" width="180" height="44" stroke="black" />
      <text x="91" y="187" clip-path="url(#clipPath8)" fill="black" font-family="&apos;Arial&apos;" stroke="none" xml:space="preserve">&lt;&lt;Java Class&gt;&gt;</text>
    </g>
    <g stroke-miterlimit="0" font-weight="bold" font-family="&apos;Arial&apos;" stroke-linejoin="round">
      <text xml:space="preserve" x="109" y="202" clip-path="url(#clipPath9)" stroke="none">Module</text>
      <text font-size="9" x="43" y="214" clip-path="url(#clipPath10)" stroke="none" font-weight="normal" xml:space="preserve">org.jspresso.framework.application.model</text>
    </g>
    <g font-size="11" fill="white" font-family="&apos;Tahoma&apos;" stroke-linejoin="round" stroke="white" stroke-miterlimit="0">
      <rect x="5" y="108" clip-path="url(#clipPath11)" width="180" height="44" stroke="none" />
      <rect x="5" y="108" clip-path="url(#clipPath11)" fill="none" width="180" height="44" stroke="black" />
      <text x="57" y="120" clip-path="url(#clipPath12)" fill="black" font-family="&apos;Arial&apos;" stroke="none" xml:space="preserve">&lt;&lt;Java Class&gt;&gt;</text>
    </g>
    <g stroke-miterlimit="0" font-weight="bold" font-family="&apos;Arial&apos;" stroke-linejoin="round">
      <text xml:space="preserve" x="62" y="135" clip-path="url(#clipPath13)" stroke="none">Workspace</text>
      <text font-size="9" x="9" y="147" clip-path="url(#clipPath14)" stroke="none" font-weight="normal" xml:space="preserve">org.jspresso.framework.application.model</text>
    </g>
    <g font-size="11" fill="white" font-family="&apos;Tahoma&apos;" stroke-linejoin="round" stroke="white" stroke-miterlimit="0">
      <rect x="576" y="87" clip-path="url(#clipPath15)" width="133" height="44" stroke="none" />
      <rect x="576" y="87" clip-path="url(#clipPath15)" fill="none" width="133" height="44" stroke="black" />
      <text x="596" y="99" clip-path="url(#clipPath16)" fill="black" font-family="&apos;Arial&apos;" stroke="none" xml:space="preserve">&lt;&lt;Java Interface&gt;&gt;</text>
    </g>
    <g stroke-miterlimit="0" font-weight="bold" font-family="&apos;Arial&apos;" stroke-linejoin="round">
      <text xml:space="preserve" x="623" y="114" clip-path="url(#clipPath17)" stroke="none">IAction</text>
      <text font-size="9" x="580" y="126" clip-path="url(#clipPath18)" stroke="none" font-weight="normal" xml:space="preserve">org.jspresso.framework.action</text>
    </g>
    <g font-size="11" fill="white" font-family="&apos;Tahoma&apos;" stroke-linejoin="round" stroke="white" stroke-miterlimit="0">
      <rect x="538" y="233" clip-path="url(#clipPath19)" width="171" height="44" stroke="none" />
      <rect x="538" y="233" clip-path="url(#clipPath19)" fill="none" width="171" height="44" stroke="black" />
      <text x="577" y="245" clip-path="url(#clipPath20)" fill="black" font-family="&apos;Arial&apos;" stroke="none" xml:space="preserve">&lt;&lt;Java Interface&gt;&gt;</text>
    </g>
    <g stroke-miterlimit="0" font-weight="bold" font-family="&apos;Arial&apos;" stroke-linejoin="round">
      <text xml:space="preserve" x="578" y="260" clip-path="url(#clipPath21)" stroke="none">IViewDescriptor</text>
      <text font-size="9" x="542" y="272" clip-path="url(#clipPath22)" stroke="none" font-weight="normal" xml:space="preserve">org.jspresso.framework.view.descriptor</text>
    </g>
    <g font-size="11" fill="white" font-family="&apos;Tahoma&apos;" stroke-linejoin="round" stroke="white" stroke-miterlimit="0">
      <rect x="538" y="160" clip-path="url(#clipPath23)" width="171" height="44" stroke="none" />
      <rect x="538" y="160" clip-path="url(#clipPath23)" fill="none" width="171" height="44" stroke="black" />
      <text x="577" y="172" clip-path="url(#clipPath24)" fill="black" font-family="&apos;Arial&apos;" stroke="none" xml:space="preserve">&lt;&lt;Java Interface&gt;&gt;</text>
    </g>
    <g stroke-miterlimit="0" font-weight="bold" font-family="&apos;Arial&apos;" stroke-linejoin="round">
      <text xml:space="preserve" x="567" y="187" clip-path="url(#clipPath25)" stroke="none">ISubViewDescriptor</text>
      <text font-size="9" x="542" y="199" clip-path="url(#clipPath26)" stroke="none" font-weight="normal" xml:space="preserve">org.jspresso.framework.view.descriptor</text>
    </g>
    <g font-size="11" fill="white" font-family="&apos;Tahoma&apos;" stroke-linejoin="round" stroke="white" stroke-miterlimit="0">
      <rect x="150" y="233" clip-path="url(#clipPath27)" width="177" height="44" stroke="none" />
      <rect x="150" y="233" clip-path="url(#clipPath27)" fill="none" width="177" height="44" stroke="black" />
      <text x="192" y="245" clip-path="url(#clipPath28)" fill="black" font-family="&apos;Arial&apos;" stroke="none" xml:space="preserve">&lt;&lt;Java Interface&gt;&gt;</text>
    </g>
    <g stroke-miterlimit="0" font-weight="bold" font-family="&apos;Arial&apos;" stroke-linejoin="round">
      <text xml:space="preserve" x="183" y="260" clip-path="url(#clipPath29)" stroke="none">IPropertyDescriptor</text>
      <text font-size="9" x="154" y="272" clip-path="url(#clipPath30)" stroke="none" font-weight="normal" xml:space="preserve">org.jspresso.framework.model.descriptor</text>
    </g>
    <g font-size="11" fill="white" font-family="&apos;Tahoma&apos;" stroke-linejoin="round" stroke="white" stroke-miterlimit="0">
      <rect x="338" y="233" clip-path="url(#clipPath31)" width="177" height="44" stroke="none" />
      <rect x="338" y="233" clip-path="url(#clipPath31)" fill="none" width="177" height="44" stroke="black" />
      <text x="380" y="245" clip-path="url(#clipPath32)" fill="black" font-family="&apos;Arial&apos;" stroke="none" xml:space="preserve">&lt;&lt;Java Interface&gt;&gt;</text>
    </g>
    <g stroke-miterlimit="0" font-weight="bold" font-family="&apos;Arial&apos;" stroke-linejoin="round">
      <text xml:space="preserve" x="352" y="260" clip-path="url(#clipPath33)" stroke="none">IComponentDescriptor&lt;E&gt;</text>
      <text font-size="9" x="342" y="272" clip-path="url(#clipPath34)" stroke="none" font-weight="normal" xml:space="preserve">org.jspresso.framework.model.descriptor</text>
    </g>
    <g stroke-dasharray="3,3" font-size="11" stroke-miterlimit="0" font-family="&apos;Tahoma&apos;" stroke-linejoin="round">
      <line clip-path="url(#clipPath35)" fill="none" x1="160" x2="239" y1="175" y2="120" />
      <line clip-path="url(#clipPath35)" fill="none" x1="239" x2="318" y1="120" y2="66" />
      <polygon fill="white" stroke-dasharray="none" clip-path="url(#clipPath36)" points=" 318 66 309 78 304 70" stroke="none" />
      <polygon fill="none" stroke-dasharray="none" clip-path="url(#clipPath36)" points=" 318 66 309 78 304 70" />
      <line clip-path="url(#clipPath37)" fill="none" x1="584" x2="500" y1="160" y2="113" stroke-dasharray="none" />
      <line clip-path="url(#clipPath37)" fill="none" x1="500" x2="416" y1="113" y2="66" stroke-dasharray="none" />
      <polygon fill="white" stroke-dasharray="none" clip-path="url(#clipPath38)" points=" 416 66 431 69 426 77" stroke="none" />
      <polygon fill="none" stroke-dasharray="none" clip-path="url(#clipPath38)" points=" 416 66 431 69 426 77" />
      <line clip-path="url(#clipPath39)" fill="none" x1="576" x2="517" y1="92" y2="76" stroke-dasharray="none" />
      <line clip-path="url(#clipPath39)" fill="none" x1="517" x2="459" y1="76" y2="61" stroke-dasharray="none" />
      <polygon fill="white" stroke-dasharray="none" clip-path="url(#clipPath40)" points=" 459 61 474 60 471 69" stroke="none" />
      <polygon fill="none" stroke-dasharray="none" clip-path="url(#clipPath40)" points=" 459 61 474 60 471 69" />
      <line clip-path="url(#clipPath41)" fill="none" x1="157" x2="216" y1="108" y2="87" stroke-dasharray="2,2" />
      <line clip-path="url(#clipPath41)" fill="none" x1="216" x2="276" y1="87" y2="66" stroke-dasharray="2,2" />
      <polygon fill="white" stroke-dasharray="none" clip-path="url(#clipPath42)" points=" 276 66 264 75 261 66" stroke="none" />
      <polygon fill="none" stroke-dasharray="none" clip-path="url(#clipPath42)" points=" 276 66 264 75 261 66" />
      <line clip-path="url(#clipPath43)" fill="none" x1="251" x2="298" y1="233" y2="149" stroke-dasharray="none" />
      <line clip-path="url(#clipPath43)" fill="none" x1="298" x2="345" y1="149" y2="66" stroke-dasharray="none" />
      <polygon fill="white" stroke-dasharray="none" clip-path="url(#clipPath44)" points=" 345 66 342 81 334 76" stroke="none" />
      <polygon fill="none" stroke-dasharray="none" clip-path="url(#clipPath44)" points=" 345 66 342 81 334 76" />
      <line clip-path="url(#clipPath45)" fill="none" x1="420" x2="395" y1="233" y2="149" stroke-dasharray="none" />
      <line clip-path="url(#clipPath45)" fill="none" x1="395" x2="371" y1="149" y2="66" stroke-dasharray="none" />
      <polygon fill="white" stroke-dasharray="none" clip-path="url(#clipPath46)" points=" 371 66 380 78 370 81" stroke="none" />
      <polygon fill="none" stroke-dasharray="none" clip-path="url(#clipPath46)" points=" 371 66 380 78 370 81" />
      <line clip-path="url(#clipPath47)" fill="none" x1="623" x2="623" y1="233" y2="218" stroke-dasharray="none" />
      <line clip-path="url(#clipPath47)" fill="none" x1="623" x2="623" y1="218" y2="204" stroke-dasharray="none" />
      <polygon fill="white" stroke-dasharray="none" clip-path="url(#clipPath48)" points=" 623 204 628 218 618 218" stroke="none" />
      <polygon fill="none" stroke-dasharray="none" clip-path="url(#clipPath48)" points=" 623 204 628 218 618 218" />
    </g>
  </g>
</svg>
