<!--
  ~ Copyright (c) 2005-2016 Vincent Vandenschrick. All rights reserved.
  ~
  ~  This file is part of the Jspresso framework.
  ~
  ~  Jspresso is free software: you can redistribute it and/or modify
  ~  it under the terms of the GNU Lesser General Public License as published by
  ~  the Free Software Foundation, either version 3 of the License, or
  ~  (at your option) any later version.
  ~
  ~  Jspresso is distributed in the hope that it will be useful,
  ~  but WITHOUT ANY WARRANTY; without even the implied warranty of
  ~  MERCHANTABILITY or FITNESS FOR A PARTICULAR PURPOSE.  See the
  ~  GNU Lesser General Public License for more details.
  ~
  ~  You should have received a copy of the GNU Lesser General Public License
  ~  along with Jspresso.  If not, see <http://www.gnu.org/licenses/>.
  -->
<svg fill="#000000" height="20" viewBox="0 0 24 24" width="20" xmlns="http://www.w3.org/2000/svg">
    <path d="M0 0h24v24H0z" fill="none"/>
    <path d="M12 8c-2.21 0-4 1.79-4 4s1.79 4 4 4 4-1.79 4-4-1.79-4-4-4zm8.94 3c-.46-4.17-3.77-7.48-7.94-7.94V1h-2v2.06C6.83 3.52 3.52 6.83 3.06 11H1v2h2.06c.46 4.17 3.77 7.48 7.94 7.94V23h2v-2.06c4.17-.46 7.48-3.77 7.94-7.94H23v-2h-2.06zM12 19c-3.87 0-7-3.13-7-7s3.13-7 7-7 7 3.13 7 7-3.13 7-7 7z"
          fill="#4A4A4A" stroke="#4A4A4A"/>
</svg>
