<?xml version="1.0"?>

<!DOCTYPE svg PUBLIC '-//W3C//DTD SVG 1.0//EN' 'http://www.w3.org/TR/2001/REC-SVG-20010904/DTD/svg10.dtd'>
<svg stroke-dasharray="none" shape-rendering="auto" xmlns="http://www.w3.org/2000/svg" font-family="&apos;Dialog&apos;" width="709" text-rendering="auto" fill-opacity="1" contentScriptType="text/ecmascript" color-interpolation="auto" color-rendering="auto" preserveAspectRatio="xMidYMid meet" font-size="12" fill="black" xmlns:xlink="http://www.w3.org/1999/xlink" stroke="black" image-rendering="auto" stroke-miterlimit="10" zoomAndPan="magnify" version="1.0" stroke-linecap="square" stroke-linejoin="miter" contentStyleType="text/css" font-style="normal" height="209" stroke-width="1" stroke-dashoffset="0" font-weight="normal" stroke-opacity="1">
  <!--Generated by the Batik Graphics2D SVG Generator-->
  <defs id="genericDefs" />
  <g>
    <defs id="defs1">
      <clipPath clipPathUnits="userSpaceOnUse" id="clipPath1">
        <path d="M264 4 L460 4 L460 50 L264 50 L264 4 Z" />
      </clipPath>
      <clipPath clipPathUnits="userSpaceOnUse" id="clipPath2">
        <path d="M313 5 L411 5 L411 21 L313 21 L313 5 Z" />
      </clipPath>
      <clipPath clipPathUnits="userSpaceOnUse" id="clipPath3">
        <path d="M329 19 L395 19 L395 36 L329 36 L329 19 Z" />
      </clipPath>
      <clipPath clipPathUnits="userSpaceOnUse" id="clipPath4">
        <path d="M292 34 L432 34 L432 48 L292 48 L292 34 Z" />
      </clipPath>
      <clipPath clipPathUnits="userSpaceOnUse" id="clipPath5">
        <path d="M264 48 L460 48 L460 67 L264 67 L264 48 Z" />
      </clipPath>
      <clipPath clipPathUnits="userSpaceOnUse" id="clipPath6">
        <path d="M266 49 L458 49 L458 65 L266 65 L266 49 Z" />
      </clipPath>
      <clipPath clipPathUnits="userSpaceOnUse" id="clipPath7">
        <path d="M4 159 L186 159 L186 205 L4 205 L4 159 Z" />
      </clipPath>
      <clipPath clipPathUnits="userSpaceOnUse" id="clipPath8">
        <path d="M54 160 L136 160 L136 176 L54 176 L54 160 Z" />
      </clipPath>
      <clipPath clipPathUnits="userSpaceOnUse" id="clipPath9">
        <path d="M72 174 L118 174 L118 191 L72 191 L72 174 Z" />
      </clipPath>
      <clipPath clipPathUnits="userSpaceOnUse" id="clipPath10">
        <path d="M6 189 L184 189 L184 203 L6 203 L6 189 Z" />
      </clipPath>
      <clipPath clipPathUnits="userSpaceOnUse" id="clipPath11">
        <path d="M196 159 L378 159 L378 205 L196 205 L196 159 Z" />
      </clipPath>
      <clipPath clipPathUnits="userSpaceOnUse" id="clipPath12">
        <path d="M246 160 L328 160 L328 176 L246 176 L246 160 Z" />
      </clipPath>
      <clipPath clipPathUnits="userSpaceOnUse" id="clipPath13">
        <path d="M251 174 L322 174 L322 191 L251 191 L251 174 Z" />
      </clipPath>
      <clipPath clipPathUnits="userSpaceOnUse" id="clipPath14">
        <path d="M198 189 L376 189 L376 203 L198 203 L198 189 Z" />
      </clipPath>
      <clipPath clipPathUnits="userSpaceOnUse" id="clipPath15">
        <path d="M390 159 L525 159 L525 205 L390 205 L390 159 Z" />
      </clipPath>
      <clipPath clipPathUnits="userSpaceOnUse" id="clipPath16">
        <path d="M408 160 L506 160 L506 176 L408 176 L408 160 Z" />
      </clipPath>
      <clipPath clipPathUnits="userSpaceOnUse" id="clipPath17">
        <path d="M435 174 L479 174 L479 191 L435 191 L435 174 Z" />
      </clipPath>
      <clipPath clipPathUnits="userSpaceOnUse" id="clipPath18">
        <path d="M392 189 L523 189 L523 203 L392 203 L392 189 Z" />
      </clipPath>
      <clipPath clipPathUnits="userSpaceOnUse" id="clipPath19">
        <path d="M532 159 L705 159 L705 205 L532 205 L532 159 Z" />
      </clipPath>
      <clipPath clipPathUnits="userSpaceOnUse" id="clipPath20">
        <path d="M569 160 L667 160 L667 176 L569 176 L569 160 Z" />
      </clipPath>
      <clipPath clipPathUnits="userSpaceOnUse" id="clipPath21">
        <path d="M570 174 L666 174 L666 191 L570 191 L570 174 Z" />
      </clipPath>
      <clipPath clipPathUnits="userSpaceOnUse" id="clipPath22">
        <path d="M534 189 L703 189 L703 203 L534 203 L534 189 Z" />
      </clipPath>
      <clipPath clipPathUnits="userSpaceOnUse" id="clipPath23">
        <path d="M134 65 L308 65 L308 162 L134 162 L134 65 Z" />
      </clipPath>
      <clipPath clipPathUnits="userSpaceOnUse" id="clipPath24">
        <path d="M290 65 L308 65 L308 79 L290 79 L290 65 Z" />
      </clipPath>
      <clipPath clipPathUnits="userSpaceOnUse" id="clipPath25">
        <path d="M297 65 L348 65 L348 162 L297 162 L297 65 Z" />
      </clipPath>
      <clipPath clipPathUnits="userSpaceOnUse" id="clipPath26">
        <path d="M334 65 L348 65 L348 83 L334 83 L334 65 Z" />
      </clipPath>
      <clipPath clipPathUnits="userSpaceOnUse" id="clipPath27">
        <path d="M381 65 L445 65 L445 162 L381 162 L381 65 Z" />
      </clipPath>
      <clipPath clipPathUnits="userSpaceOnUse" id="clipPath28">
        <path d="M381 65 L396 65 L396 82 L381 82 L381 65 Z" />
      </clipPath>
      <clipPath clipPathUnits="userSpaceOnUse" id="clipPath29">
        <path d="M414 65 L582 65 L582 162 L414 162 L414 65 Z" />
      </clipPath>
      <clipPath clipPathUnits="userSpaceOnUse" id="clipPath30">
        <path d="M414 65 L432 65 L432 79 L414 79 L414 65 Z" />
      </clipPath>
    </defs>
    <g font-size="11" fill="white" font-family="&apos;Tahoma&apos;" stroke-linejoin="round" stroke="white" stroke-miterlimit="0">
      <rect width="906" x="0" height="457" y="0" stroke="none" />
      <rect x="265" y="5" clip-path="url(#clipPath1)" width="194" height="44" stroke="none" />
      <rect x="265" y="5" clip-path="url(#clipPath1)" fill="none" width="194" height="44" stroke="black" />
      <text x="316" y="17" clip-path="url(#clipPath2)" fill="black" font-family="&apos;Arial&apos;" stroke="none" xml:space="preserve">&lt;&lt;Java Interface&gt;&gt;</text>
    </g>
    <g stroke-miterlimit="0" font-weight="bold" font-family="&apos;Arial&apos;" stroke-linejoin="round">
      <text xml:space="preserve" x="332" y="32" clip-path="url(#clipPath3)" stroke="none">ISecurable</text>
      <text font-size="9" x="295" y="44" clip-path="url(#clipPath4)" stroke="none" font-weight="normal" xml:space="preserve">org.jspresso.framework.security</text>
    </g>
    <g font-size="11" fill="white" font-family="&apos;Tahoma&apos;" stroke-linejoin="round" stroke="white" stroke-miterlimit="0">
      <rect x="265" y="49" clip-path="url(#clipPath5)" width="194" height="17" stroke="none" />
      <rect x="265" y="48" clip-path="url(#clipPath5)" fill="none" width="194" height="18" stroke="black" />
      <text x="269" y="61" clip-path="url(#clipPath6)" fill="black" font-family="&apos;Arial&apos;" stroke="none" xml:space="preserve">+getGrantedRoles(): Collection&lt;String&gt;</text>
      <rect x="5" y="160" clip-path="url(#clipPath7)" width="180" height="44" stroke="none" />
      <rect x="5" y="160" clip-path="url(#clipPath7)" fill="none" width="180" height="44" stroke="black" />
      <text x="57" y="172" clip-path="url(#clipPath8)" fill="black" font-family="&apos;Arial&apos;" stroke="none" xml:space="preserve">&lt;&lt;Java Class&gt;&gt;</text>
    </g>
    <g stroke-miterlimit="0" font-weight="bold" font-family="&apos;Arial&apos;" stroke-linejoin="round">
      <text xml:space="preserve" x="75" y="187" clip-path="url(#clipPath9)" stroke="none">Module</text>
      <text font-size="9" x="9" y="199" clip-path="url(#clipPath10)" stroke="none" font-weight="normal" xml:space="preserve">org.jspresso.framework.application.model</text>
    </g>
    <g font-size="11" fill="white" font-family="&apos;Tahoma&apos;" stroke-linejoin="round" stroke="white" stroke-miterlimit="0">
      <rect x="197" y="160" clip-path="url(#clipPath11)" width="180" height="44" stroke="none" />
      <rect x="197" y="160" clip-path="url(#clipPath11)" fill="none" width="180" height="44" stroke="black" />
      <text x="249" y="172" clip-path="url(#clipPath12)" fill="black" font-family="&apos;Arial&apos;" stroke="none" xml:space="preserve">&lt;&lt;Java Class&gt;&gt;</text>
    </g>
    <g stroke-miterlimit="0" font-weight="bold" font-family="&apos;Arial&apos;" stroke-linejoin="round">
      <text xml:space="preserve" x="254" y="187" clip-path="url(#clipPath13)" stroke="none">Workspace</text>
      <text font-size="9" x="201" y="199" clip-path="url(#clipPath14)" stroke="none" font-weight="normal" xml:space="preserve">org.jspresso.framework.application.model</text>
    </g>
    <g font-size="11" fill="white" font-family="&apos;Tahoma&apos;" stroke-linejoin="round" stroke="white" stroke-miterlimit="0">
      <rect x="391" y="160" clip-path="url(#clipPath15)" width="133" height="44" stroke="none" />
      <rect x="391" y="160" clip-path="url(#clipPath15)" fill="none" width="133" height="44" stroke="black" />
      <text x="411" y="172" clip-path="url(#clipPath16)" fill="black" font-family="&apos;Arial&apos;" stroke="none" xml:space="preserve">&lt;&lt;Java Interface&gt;&gt;</text>
    </g>
    <g stroke-miterlimit="0" font-weight="bold" font-family="&apos;Arial&apos;" stroke-linejoin="round">
      <text xml:space="preserve" x="438" y="187" clip-path="url(#clipPath17)" stroke="none">IAction</text>
      <text font-size="9" x="395" y="199" clip-path="url(#clipPath18)" stroke="none" font-weight="normal" xml:space="preserve">org.jspresso.framework.action</text>
    </g>
    <g font-size="11" fill="white" font-family="&apos;Tahoma&apos;" stroke-linejoin="round" stroke="white" stroke-miterlimit="0">
      <rect x="533" y="160" clip-path="url(#clipPath19)" width="171" height="44" stroke="none" />
      <rect x="533" y="160" clip-path="url(#clipPath19)" fill="none" width="171" height="44" stroke="black" />
      <text x="572" y="172" clip-path="url(#clipPath20)" fill="black" font-family="&apos;Arial&apos;" stroke="none" xml:space="preserve">&lt;&lt;Java Interface&gt;&gt;</text>
    </g>
    <g stroke-miterlimit="0" font-weight="bold" font-family="&apos;Arial&apos;" stroke-linejoin="round">
      <text xml:space="preserve" x="573" y="187" clip-path="url(#clipPath21)" stroke="none">IViewDescriptor</text>
      <text font-size="9" x="537" y="199" clip-path="url(#clipPath22)" stroke="none" font-weight="normal" xml:space="preserve">org.jspresso.framework.view.descriptor</text>
    </g>
    <g stroke-dasharray="3,3" font-size="11" stroke-miterlimit="0" font-family="&apos;Tahoma&apos;" stroke-linejoin="round">
      <line clip-path="url(#clipPath23)" fill="none" x1="135" x2="306" y1="160" y2="66" />
      <polygon fill="white" stroke-dasharray="none" clip-path="url(#clipPath24)" points=" 306 66 296 77 291 68" stroke="none" />
      <polygon fill="none" stroke-dasharray="none" clip-path="url(#clipPath24)" points=" 306 66 296 77 291 68" />
      <line clip-path="url(#clipPath25)" fill="none" x1="298" x2="346" y1="160" y2="66" stroke-dasharray="2,2" />
      <polygon fill="white" stroke-dasharray="none" clip-path="url(#clipPath26)" points=" 346 66 344 81 335 76" stroke="none" />
      <polygon fill="none" stroke-dasharray="none" clip-path="url(#clipPath26)" points=" 346 66 344 81 335 76" />
      <line clip-path="url(#clipPath27)" fill="none" x1="443" x2="382" y1="160" y2="66" stroke-dasharray="none" />
      <polygon fill="white" stroke-dasharray="none" clip-path="url(#clipPath28)" points=" 382 66 394 75 386 80" stroke="none" />
      <polygon fill="none" stroke-dasharray="none" clip-path="url(#clipPath28)" points=" 382 66 394 75 386 80" />
      <line clip-path="url(#clipPath29)" fill="none" x1="580" x2="415" y1="160" y2="66" stroke-dasharray="none" />
      <polygon fill="white" stroke-dasharray="none" clip-path="url(#clipPath30)" points=" 415 66 430 69 425 77" stroke="none" />
      <polygon fill="none" stroke-dasharray="none" clip-path="url(#clipPath30)" points=" 415 66 430 69 425 77" />
    </g>
  </g>
</svg>
