<?xml version="1.0"?>

<!DOCTYPE svg PUBLIC '-//W3C//DTD SVG 1.0//EN' 'http://www.w3.org/TR/2001/REC-SVG-20010904/DTD/svg10.dtd'>
<svg stroke-dasharray="none" shape-rendering="auto" xmlns="http://www.w3.org/2000/svg" font-family="&apos;Dialog&apos;" width="750" text-rendering="auto" fill-opacity="1" contentScriptType="text/ecmascript" color-interpolation="auto" color-rendering="auto" preserveAspectRatio="xMidYMid meet" font-size="12" fill="black" xmlns:xlink="http://www.w3.org/1999/xlink" stroke="black" image-rendering="auto" stroke-miterlimit="10" zoomAndPan="magnify" version="1.0" stroke-linecap="square" stroke-linejoin="miter" contentStyleType="text/css" font-style="normal" height="327" stroke-width="1" stroke-dashoffset="0" font-weight="normal" stroke-opacity="1">
  <!--Generated by the Batik Graphics2D SVG Generator-->
  <defs id="genericDefs" />
  <g>
    <defs id="defs1">
      <clipPath clipPathUnits="userSpaceOnUse" id="clipPath1">
        <path d="M4 4 L375 4 L375 50 L4 50 L4 4 Z" />
      </clipPath>
      <clipPath clipPathUnits="userSpaceOnUse" id="clipPath2">
        <path d="M148 5 L230 5 L230 21 L148 21 L148 5 Z" />
      </clipPath>
      <clipPath clipPathUnits="userSpaceOnUse" id="clipPath3">
        <path d="M128 19 L251 19 L251 36 L128 36 L128 19 Z" />
      </clipPath>
      <clipPath clipPathUnits="userSpaceOnUse" id="clipPath4">
        <path d="M131 34 L247 34 L247 48 L131 48 L131 34 Z" />
      </clipPath>
      <clipPath clipPathUnits="userSpaceOnUse" id="clipPath5">
        <path d="M4 48 L375 48 L375 137 L4 137 L4 48 Z" />
      </clipPath>
      <clipPath clipPathUnits="userSpaceOnUse" id="clipPath6">
        <path d="M6 49 L124 49 L124 65 L6 65 L6 49 Z" />
      </clipPath>
      <clipPath clipPathUnits="userSpaceOnUse" id="clipPath7">
        <path d="M6 63 L153 63 L153 79 L6 79 L6 63 Z" />
      </clipPath>
      <clipPath clipPathUnits="userSpaceOnUse" id="clipPath8">
        <path d="M6 77 L125 77 L125 93 L6 93 L6 77 Z" />
      </clipPath>
      <clipPath clipPathUnits="userSpaceOnUse" id="clipPath9">
        <path d="M6 91 L215 91 L215 107 L6 107 L6 91 Z" />
      </clipPath>
      <clipPath clipPathUnits="userSpaceOnUse" id="clipPath10">
        <path d="M6 105 L373 105 L373 121 L6 121 L6 105 Z" />
      </clipPath>
      <clipPath clipPathUnits="userSpaceOnUse" id="clipPath11">
        <path d="M6 119 L362 119 L362 135 L6 135 L6 119 Z" />
      </clipPath>
      <clipPath clipPathUnits="userSpaceOnUse" id="clipPath12">
        <path d="M4 204 L375 204 L375 250 L4 250 L4 204 Z" />
      </clipPath>
      <clipPath clipPathUnits="userSpaceOnUse" id="clipPath13">
        <path d="M148 205 L230 205 L230 221 L148 221 L148 205 Z" />
      </clipPath>
      <clipPath clipPathUnits="userSpaceOnUse" id="clipPath14">
        <path d="M137 219 L242 219 L242 236 L137 236 L137 219 Z" />
      </clipPath>
      <clipPath clipPathUnits="userSpaceOnUse" id="clipPath15">
        <path d="M101 234 L277 234 L277 248 L101 248 L101 234 Z" />
      </clipPath>
      <clipPath clipPathUnits="userSpaceOnUse" id="clipPath16">
        <path d="M4 248 L375 248 L375 281 L4 281 L4 248 Z" />
      </clipPath>
      <clipPath clipPathUnits="userSpaceOnUse" id="clipPath17">
        <path d="M6 249 L373 249 L373 265 L6 265 L6 249 Z" />
      </clipPath>
      <clipPath clipPathUnits="userSpaceOnUse" id="clipPath18">
        <path d="M6 263 L164 263 L164 279 L6 279 L6 263 Z" />
      </clipPath>
      <clipPath clipPathUnits="userSpaceOnUse" id="clipPath19">
        <path d="M400 204 L746 204 L746 250 L400 250 L400 204 Z" />
      </clipPath>
      <clipPath clipPathUnits="userSpaceOnUse" id="clipPath20">
        <path d="M532 205 L614 205 L614 221 L532 221 L532 205 Z" />
      </clipPath>
      <clipPath clipPathUnits="userSpaceOnUse" id="clipPath21">
        <path d="M497 219 L648 219 L648 236 L497 236 L497 219 Z" />
      </clipPath>
      <clipPath clipPathUnits="userSpaceOnUse" id="clipPath22">
        <path d="M485 234 L661 234 L661 248 L485 248 L485 234 Z" />
      </clipPath>
      <clipPath clipPathUnits="userSpaceOnUse" id="clipPath23">
        <path d="M400 248 L746 248 L746 323 L400 323 L400 248 Z" />
      </clipPath>
      <clipPath clipPathUnits="userSpaceOnUse" id="clipPath24">
        <path d="M402 249 L490 249 L490 265 L402 265 L402 249 Z" />
      </clipPath>
      <clipPath clipPathUnits="userSpaceOnUse" id="clipPath25">
        <path d="M402 263 L498 263 L498 279 L402 279 L402 263 Z" />
      </clipPath>
      <clipPath clipPathUnits="userSpaceOnUse" id="clipPath26">
        <path d="M402 277 L744 277 L744 293 L402 293 L402 277 Z" />
      </clipPath>
      <clipPath clipPathUnits="userSpaceOnUse" id="clipPath27">
        <path d="M402 291 L487 291 L487 307 L402 307 L402 291 Z" />
      </clipPath>
      <clipPath clipPathUnits="userSpaceOnUse" id="clipPath28">
        <path d="M402 305 L494 305 L494 321 L402 321 L402 305 Z" />
      </clipPath>
      <clipPath clipPathUnits="userSpaceOnUse" id="clipPath29">
        <path d="M183 135 L196 135 L196 207 L183 207 L183 135 Z" />
      </clipPath>
      <clipPath clipPathUnits="userSpaceOnUse" id="clipPath30">
        <path d="M183 135 L196 135 L196 152 L183 152 L183 135 Z" />
      </clipPath>
    </defs>
    <g font-size="11" fill="white" font-family="&apos;Tahoma&apos;" stroke-linejoin="round" stroke="white" stroke-miterlimit="0">
      <rect width="981" x="0" height="485" y="0" stroke="none" />
      <rect x="5" y="5" clip-path="url(#clipPath1)" width="369" height="44" stroke="none" />
      <rect x="5" y="5" clip-path="url(#clipPath1)" fill="none" width="369" height="44" stroke="black" />
      <text x="151" y="17" clip-path="url(#clipPath2)" fill="black" font-family="&apos;Arial&apos;" stroke="none" xml:space="preserve">&lt;&lt;Java Class&gt;&gt;</text>
    </g>
    <g stroke-miterlimit="0" font-weight="bold" font-family="&apos;Arial&apos;" stroke-linejoin="round">
      <text xml:space="preserve" x="131" y="32" clip-path="url(#clipPath3)" stroke="none">LdapExtLoginModule</text>
      <text font-size="9" x="134" y="44" clip-path="url(#clipPath4)" stroke="none" font-weight="normal" xml:space="preserve">org.jboss.security.auth.spi</text>
    </g>
    <g font-size="11" fill="white" font-family="&apos;Tahoma&apos;" stroke-linejoin="round" stroke="white" stroke-miterlimit="0">
      <rect x="5" y="49" clip-path="url(#clipPath5)" width="369" height="87" stroke="none" />
      <rect x="5" y="48" clip-path="url(#clipPath5)" fill="none" width="369" height="88" stroke="black" />
      <text x="9" y="61" clip-path="url(#clipPath6)" fill="black" font-family="&apos;Arial&apos;" stroke="none" xml:space="preserve">+LdapExtLoginModule()</text>
      <text x="9" y="75" clip-path="url(#clipPath7)" fill="black" font-family="&apos;Arial&apos;" stroke="none" xml:space="preserve">#getUsersPassword(): String</text>
      <text x="9" y="89" clip-path="url(#clipPath8)" fill="black" font-family="&apos;Arial&apos;" stroke="none" xml:space="preserve">#getRoleSets(): Group[]</text>
      <text x="9" y="103" clip-path="url(#clipPath9)" fill="black" font-family="&apos;Arial&apos;" stroke="none" xml:space="preserve">#validatePassword(String,String): boolean</text>
      <text x="9" y="117" clip-path="url(#clipPath10)" fill="black" font-family="&apos;Arial&apos;" stroke="none" xml:space="preserve">#bindDNAuthentication(InitialLdapContext,String,Object,String,String): String</text>
      <text x="9" y="131" clip-path="url(#clipPath11)" fill="black" font-family="&apos;Arial&apos;" stroke="none" xml:space="preserve">#rolesSearch(InitialLdapContext,SearchControls,String,String,int,int): void</text>
      <rect x="5" y="205" clip-path="url(#clipPath12)" width="369" height="44" stroke="none" />
      <rect x="5" y="205" clip-path="url(#clipPath12)" fill="none" width="369" height="44" stroke="black" />
      <text x="151" y="217" clip-path="url(#clipPath13)" fill="black" font-family="&apos;Arial&apos;" stroke="none" xml:space="preserve">&lt;&lt;Java Class&gt;&gt;</text>
    </g>
    <g stroke-miterlimit="0" font-weight="bold" font-family="&apos;Arial&apos;" stroke-linejoin="round">
      <text xml:space="preserve" x="140" y="232" clip-path="url(#clipPath14)" stroke="none">LdapLoginModule</text>
      <text font-size="9" x="104" y="244" clip-path="url(#clipPath15)" stroke="none" font-weight="normal" xml:space="preserve">org.jspresso.framework.security.auth.spi</text>
    </g>
    <g font-size="11" fill="white" font-family="&apos;Tahoma&apos;" stroke-linejoin="round" stroke="white" stroke-miterlimit="0">
      <rect x="5" y="249" clip-path="url(#clipPath16)" width="369" height="31" stroke="none" />
      <rect x="5" y="248" clip-path="url(#clipPath16)" fill="none" width="369" height="32" stroke="black" />
      <text x="9" y="261" clip-path="url(#clipPath17)" fill="black" font-family="&apos;Arial&apos;" stroke="none" xml:space="preserve">#bindDNAuthentication(InitialLdapContext,String,Object,String,String): String</text>
      <text x="9" y="275" clip-path="url(#clipPath18)" fill="black" font-family="&apos;Arial&apos;" stroke="none" xml:space="preserve">#createIdentity(String): Principal</text>
      <rect x="401" y="205" clip-path="url(#clipPath19)" width="344" height="44" stroke="none" />
      <rect x="401" y="205" clip-path="url(#clipPath19)" fill="none" width="344" height="44" stroke="black" />
      <text x="535" y="217" clip-path="url(#clipPath20)" fill="black" font-family="&apos;Arial&apos;" stroke="none" xml:space="preserve">&lt;&lt;Java Class&gt;&gt;</text>
    </g>
    <g stroke-miterlimit="0" font-weight="bold" font-family="&apos;Arial&apos;" stroke-linejoin="round">
      <text xml:space="preserve" x="500" y="232" clip-path="url(#clipPath21)" stroke="none">DevelopmentLoginModule</text>
      <text font-size="9" x="488" y="244" clip-path="url(#clipPath22)" stroke="none" font-weight="normal" xml:space="preserve">org.jspresso.framework.security.auth.spi</text>
    </g>
    <g font-size="11" fill="white" font-family="&apos;Tahoma&apos;" stroke-linejoin="round" stroke="white" stroke-miterlimit="0">
      <rect x="401" y="249" clip-path="url(#clipPath23)" width="344" height="73" stroke="none" />
      <rect x="401" y="248" clip-path="url(#clipPath23)" fill="none" width="344" height="74" stroke="black" />
      <text x="405" y="261" clip-path="url(#clipPath24)" fill="black" font-family="&apos;Arial&apos;" stroke="none" xml:space="preserve">+abort(): boolean</text>
      <text x="405" y="275" clip-path="url(#clipPath25)" fill="black" font-family="&apos;Arial&apos;" stroke="none" xml:space="preserve">+commit(): boolean</text>
      <text x="405" y="289" clip-path="url(#clipPath26)" fill="black" font-family="&apos;Arial&apos;" stroke="none" xml:space="preserve">+initialize(Subject,CallbackHandler,Map&lt;String,?&gt;,Map&lt;String,?&gt;): void</text>
      <text x="405" y="303" clip-path="url(#clipPath27)" fill="black" font-family="&apos;Arial&apos;" stroke="none" xml:space="preserve">+login(): boolean</text>
      <text x="405" y="317" clip-path="url(#clipPath28)" fill="black" font-family="&apos;Arial&apos;" stroke="none" xml:space="preserve">+logout(): boolean</text>
      <line clip-path="url(#clipPath29)" fill="none" x1="189" x2="189" y1="205" y2="136" stroke="black" />
      <polygon clip-path="url(#clipPath30)" points=" 189 136 194 150 184 150" stroke="none" />
      <polygon fill="none" clip-path="url(#clipPath30)" points=" 189 136 194 150 184 150" stroke="black" />
    </g>
  </g>
</svg>
