<?xml version="1.0" encoding="UTF-8" standalone="no"?>
<!-- Created with Bouml (http://bouml.free.fr/) -->
<!DOCTYPE svg PUBLIC "-//W3C//DTD SVG 1.1//EN" "http://www.w3.org/Graphics/SVG/1.1/DTD/svg11.dtd">
<svg width="404" height="220" version="1.1" xmlns="http://www.w3.org/2000/svg">
<g>
	<line stroke-dasharray="4,4" stroke="black" stroke-opacity="1" x1="323" y1="123" x2="323" y2="97" />
	<line stroke="black" stroke-opacity="1" x1="323" y1="91" x2="317" y2="97" />
	<line stroke="black" stroke-opacity="1" x1="323" y1="91" x2="329" y2="97" />
	<line stroke="black" stroke-opacity="1" x1="317" y1="97" x2="329" y2="97" />
</g>
<g>
	<line stroke="black" stroke-opacity="1" x1="162" y1="153" x2="156" y2="147" />
	<line stroke="black" stroke-opacity="1" x1="162" y1="153" x2="156" y2="159" />
	<line stroke="black" stroke-opacity="1" x1="109" y1="153" x2="162" y2="153" />
</g>
<g>
	<line stroke-dasharray="4,4" stroke="black" stroke-opacity="1" x1="185" y1="126" x2="185" y2="79" />
	<line stroke="black" stroke-opacity="1" x1="185" y1="73" x2="179" y2="79" />
	<line stroke="black" stroke-opacity="1" x1="185" y1="73" x2="191" y2="79" />
	<line stroke="black" stroke-opacity="1" x1="179" y1="79" x2="191" y2="79" />
</g>
<g>
	<rect fill="#808080" stroke="none" stroke-opacity="1" x="227" y="5" width="3" height="67" />
	<rect fill="#808080" stroke="none" stroke-opacity="1" x="143" y="69" width="87" height="3" />
	<rect fill="#ffffc0" stroke="black" stroke-width="1" stroke-opacity="1" x="139" y="1" width="88" height="68" />
	<text font-family="Helvetica" font-size="12" fill="black" text-anchor="middle" x="183" y="16">&lt;&lt;interface&gt;&gt;</text>
	<text font-family="Helvetica" font-size="12" fill="black" font-weight="bold" text-anchor="middle" x="183" y="36">Nameable</text>
	<line stroke="black" stroke-opacity="1" x1="139" y1="41" x2="227" y2="41" />
	<text font-family="Helvetica" font-size="12" fill="black" x="143" y="56">name</text>
	<line stroke="black" stroke-opacity="1" x1="139" y1="61" x2="227" y2="61" />
</g>
<g>
	<rect fill="#808080" stroke="none" stroke-opacity="1" x="388" y="5" width="3" height="85" />
	<rect fill="#808080" stroke="none" stroke-opacity="1" x="258" y="87" width="133" height="3" />
	<rect fill="#ffffc0" stroke="black" stroke-width="1" stroke-opacity="1" x="254" y="1" width="134" height="86" />
	<text font-family="Helvetica" font-size="12" fill="black" text-anchor="middle" x="321" y="16">&lt;&lt;interface&gt;&gt;</text>
	<text font-family="Helvetica" font-size="12" fill="black" font-weight="bold" text-anchor="middle" x="321" y="36">Traceable</text>
	<line stroke="black" stroke-opacity="1" x1="254" y1="41" x2="388" y2="41" />
	<text font-family="Helvetica" font-size="12" fill="black" x="258" y="56">createTimestamp</text>
	<text font-family="Helvetica" font-size="12" fill="black" x="258" y="74">lastUpdateTimestamp</text>
	<line stroke="black" stroke-opacity="1" x1="254" y1="79" x2="388" y2="79" />
</g>
<g>
	<rect fill="#808080" stroke="none" stroke-opacity="1" x="342" y="128" width="3" height="47" />
	<rect fill="#808080" stroke="none" stroke-opacity="1" x="304" y="172" width="41" height="3" />
	<rect fill="#ffffc0" stroke="black" stroke-width="1" stroke-opacity="1" x="300" y="124" width="42" height="48" />
	<text font-family="Helvetica" font-size="12" fill="black" font-weight="bold" text-anchor="middle" x="321" y="139">Event</text>
	<line stroke="black" stroke-opacity="1" x1="300" y1="144" x2="342" y2="144" />
	<text font-family="Helvetica" font-size="12" fill="black" x="304" y="159">text</text>
	<line stroke="black" stroke-opacity="1" x1="300" y1="164" x2="342" y2="164" />
</g>
<g>
	<rect fill="#808080" stroke="none" stroke-opacity="1" x="105" y="104" width="3" height="103" />
	<rect fill="#808080" stroke="none" stroke-opacity="1" x="5" y="204" width="103" height="3" />
	<rect fill="#ffffc0" stroke="black" stroke-width="1" stroke-opacity="1" x="1" y="100" width="104" height="104" />
	<text font-family="Helvetica" font-size="12" fill="black" text-anchor="middle" x="53" y="115">&lt;&lt;component&gt;&gt;</text>
	<text font-family="Helvetica" font-size="12" fill="black" font-weight="bold" text-anchor="middle" x="53" y="135">ContactInfo</text>
	<line stroke="black" stroke-opacity="1" x1="1" y1="140" x2="105" y2="140" />
	<text font-family="Helvetica" font-size="12" fill="black" x="5" y="155">address</text>
	<text font-family="Helvetica" font-size="12" fill="black" x="5" y="173">phone</text>
	<text font-family="Helvetica" font-size="12" fill="black" x="5" y="191">email</text>
	<line stroke="black" stroke-opacity="1" x1="1" y1="196" x2="105" y2="196" />
</g>
<g>
	<rect fill="#808080" stroke="none" stroke-opacity="1" x="203" y="131" width="3" height="47" />
	<rect fill="#808080" stroke="none" stroke-opacity="1" x="167" y="175" width="39" height="3" />
	<rect fill="#ffffc0" stroke="black" stroke-width="1" stroke-opacity="1" x="163" y="127" width="40" height="48" />
	<text font-family="Helvetica" font-size="12" fill="black" font-weight="bold" text-anchor="middle" x="183" y="142">City</text>
	<line stroke="black" stroke-opacity="1" x1="163" y1="147" x2="203" y2="147" />
	<text font-family="Helvetica" font-size="12" fill="black" x="167" y="162">zip</text>
	<line stroke="black" stroke-opacity="1" x1="163" y1="167" x2="203" y2="167" />
</g>
<g>
	<text font-family="Helvetica" font-size="12" fill="black" x="145" y="174">1</text>
</g>
<g>
	<text font-family="Helvetica" font-size="12" fill="black" x="131" y="145">city</text>
</g>
</svg>
