<?xml version="1.0" encoding="UTF-8" standalone="no"?>
<!-- Created with Bouml (http://bouml.free.fr/) -->
<!DOCTYPE svg PUBLIC "-//W3C//DTD SVG 1.1//EN" "http://www.w3.org/Graphics/SVG/1.1/DTD/svg11.dtd">
<svg width="404" height="321" version="1.1" xmlns="http://www.w3.org/2000/svg">
<g>
	<line stroke="black" stroke-opacity="1" x1="162" y1="254" x2="156" y2="248" />
	<line stroke="black" stroke-opacity="1" x1="162" y1="254" x2="156" y2="260" />
	<line stroke="black" stroke-opacity="1" x1="109" y1="254" x2="162" y2="254" />
</g>
<g>
	<line stroke-dasharray="4,4" stroke="black" stroke-opacity="1" x1="323" y1="224" x2="323" y2="198" />
	<line stroke="black" stroke-opacity="1" x1="323" y1="192" x2="317" y2="198" />
	<line stroke="black" stroke-opacity="1" x1="323" y1="192" x2="329" y2="198" />
	<line stroke="black" stroke-opacity="1" x1="317" y1="198" x2="329" y2="198" />
</g>
<g>
	<line stroke-dasharray="4,4" stroke="black" stroke-opacity="1" x1="185" y1="227" x2="185" y2="180" />
	<line stroke="black" stroke-opacity="1" x1="185" y1="174" x2="179" y2="180" />
	<line stroke="black" stroke-opacity="1" x1="185" y1="174" x2="191" y2="180" />
	<line stroke="black" stroke-opacity="1" x1="179" y1="180" x2="191" y2="180" />
</g>
<g>
	<line stroke-dasharray="4,4" stroke="black" stroke-opacity="1" x1="185" y1="101" x2="185" y2="84" />
	<line stroke="black" stroke-opacity="1" x1="185" y1="78" x2="179" y2="84" />
	<line stroke="black" stroke-opacity="1" x1="185" y1="78" x2="191" y2="84" />
	<line stroke="black" stroke-opacity="1" x1="179" y1="84" x2="191" y2="84" />
</g>
<g>
	<rect fill="#808080" stroke="none" stroke-opacity="1" x="105" y="205" width="3" height="103" />
	<rect fill="#808080" stroke="none" stroke-opacity="1" x="5" y="305" width="103" height="3" />
	<rect fill="#ffffc0" stroke="black" stroke-width="1" stroke-opacity="1" x="1" y="201" width="104" height="104" />
	<text font-family="Helvetica" font-size="12" fill="#000000" xml:space="preserve" text-anchor="middle" x="53" y="216">&lt;&lt;component&gt;&gt;</text>
	<text font-family="Helvetica" font-size="12" fill="#000000" xml:space="preserve" font-weight="bold" text-anchor="middle" x="53" y="236">ContactInfo</text>
	<line stroke="black" stroke-opacity="1" x1="1" y1="241" x2="105" y2="241" />
	<text font-family="Helvetica" font-size="12" fill="#000000" xml:space="preserve" x="5" y="256">address</text>
	<text font-family="Helvetica" font-size="12" fill="#000000" xml:space="preserve" x="5" y="274">phone</text>
	<text font-family="Helvetica" font-size="12" fill="#000000" xml:space="preserve" x="5" y="292">email</text>
	<line stroke="black" stroke-opacity="1" x1="1" y1="297" x2="105" y2="297" />
</g>
<g>
	<rect fill="#808080" stroke="none" stroke-opacity="1" x="388" y="106" width="3" height="85" />
	<rect fill="#808080" stroke="none" stroke-opacity="1" x="258" y="188" width="133" height="3" />
	<rect fill="#ffffc0" stroke="black" stroke-width="1" stroke-opacity="1" x="254" y="102" width="134" height="86" />
	<text font-family="Helvetica" font-size="12" fill="#000000" xml:space="preserve" text-anchor="middle" x="321" y="117">&lt;&lt;interface&gt;&gt;</text>
	<text font-family="Helvetica" font-size="12" fill="#000000" xml:space="preserve" font-weight="bold" text-anchor="middle" x="321" y="137">Traceable</text>
	<line stroke="black" stroke-opacity="1" x1="254" y1="142" x2="388" y2="142" />
	<text font-family="Helvetica" font-size="12" fill="#000000" xml:space="preserve" x="258" y="157">createTimestamp</text>
	<text font-family="Helvetica" font-size="12" fill="#000000" xml:space="preserve" x="258" y="175">lastUpdateTimestamp</text>
	<line stroke="black" stroke-opacity="1" x1="254" y1="180" x2="388" y2="180" />
</g>
<g>
	<rect fill="#808080" stroke="none" stroke-opacity="1" x="227" y="106" width="3" height="67" />
	<rect fill="#808080" stroke="none" stroke-opacity="1" x="143" y="170" width="87" height="3" />
	<rect fill="#ffffc0" stroke="black" stroke-width="1" stroke-opacity="1" x="139" y="102" width="88" height="68" />
	<text font-family="Helvetica" font-size="12" fill="#000000" xml:space="preserve" text-anchor="middle" x="183" y="117">&lt;&lt;interface&gt;&gt;</text>
	<text font-family="Helvetica" font-size="12" fill="#000000" xml:space="preserve" font-weight="bold" text-anchor="middle" x="183" y="137">Nameable</text>
	<line stroke="black" stroke-opacity="1" x1="139" y1="142" x2="227" y2="142" />
	<text font-family="Helvetica" font-size="12" fill="#000000" xml:space="preserve" x="143" y="157">name</text>
	<line stroke="black" stroke-opacity="1" x1="139" y1="162" x2="227" y2="162" />
</g>
<g>
	<rect fill="#808080" stroke="none" stroke-opacity="1" x="203" y="232" width="3" height="47" />
	<rect fill="#808080" stroke="none" stroke-opacity="1" x="167" y="276" width="39" height="3" />
	<rect fill="#ffffc0" stroke="black" stroke-width="1" stroke-opacity="1" x="163" y="228" width="40" height="48" />
	<text font-family="Helvetica" font-size="12" fill="#000000" xml:space="preserve" font-weight="bold" text-anchor="middle" x="183" y="243">City</text>
	<line stroke="black" stroke-opacity="1" x1="163" y1="248" x2="203" y2="248" />
	<text font-family="Helvetica" font-size="12" fill="#000000" xml:space="preserve" x="167" y="263">zip</text>
	<line stroke="black" stroke-opacity="1" x1="163" y1="268" x2="203" y2="268" />
</g>
<g>
	<rect fill="#808080" stroke="none" stroke-opacity="1" x="342" y="229" width="3" height="47" />
	<rect fill="#808080" stroke="none" stroke-opacity="1" x="304" y="273" width="41" height="3" />
	<rect fill="#ffffc0" stroke="black" stroke-width="1" stroke-opacity="1" x="300" y="225" width="42" height="48" />
	<text font-family="Helvetica" font-size="12" fill="#000000" xml:space="preserve" font-weight="bold" text-anchor="middle" x="321" y="240">Event</text>
	<line stroke="black" stroke-opacity="1" x1="300" y1="245" x2="342" y2="245" />
	<text font-family="Helvetica" font-size="12" fill="#000000" xml:space="preserve" x="304" y="260">text</text>
	<line stroke="black" stroke-opacity="1" x1="300" y1="265" x2="342" y2="265" />
</g>
<g>
	<rect fill="#808080" stroke="none" stroke-opacity="1" x="243" y="10" width="3" height="67" />
	<rect fill="#808080" stroke="none" stroke-opacity="1" x="127" y="74" width="119" height="3" />
	<rect fill="#ffffc0" stroke="black" stroke-width="1" stroke-opacity="1" x="123" y="6" width="120" height="68" />
	<text font-family="Helvetica" font-size="12" fill="#000000" xml:space="preserve" text-anchor="middle" x="183" y="21">&lt;&lt;interface&gt;&gt;</text>
	<text font-family="Helvetica" font-size="12" fill="#000000" xml:space="preserve" font-weight="bold" text-anchor="middle" x="183" y="41">NameableService</text>
	<line stroke="black" stroke-opacity="1" x1="123" y1="46" x2="243" y2="46" />
	<line stroke="black" stroke-opacity="1" x1="123" y1="54" x2="243" y2="54" />
	<text font-family="Helvetica" font-size="12" fill="#000000" xml:space="preserve" x="127" y="69">formatName()</text>
</g>
<g>
	<text font-family="Helvetica" font-size="12" fill="#000000" xml:space="preserve" x="145" y="275">1</text>
</g>
<g>
	<text font-family="Helvetica" font-size="12" fill="#000000" xml:space="preserve" x="131" y="246">city</text>
</g>
</svg>
