<?xml version="1.0"?>

<!DOCTYPE svg PUBLIC '-//W3C//DTD SVG 1.0//EN' 'http://www.w3.org/TR/2001/REC-SVG-20010904/DTD/svg10.dtd'>
<svg stroke-dasharray="none" shape-rendering="auto" xmlns="http://www.w3.org/2000/svg" font-family="&apos;Dialog&apos;" width="973" text-rendering="auto" fill-opacity="1" contentScriptType="text/ecmascript" color-interpolation="auto" color-rendering="auto" preserveAspectRatio="xMidYMid meet" font-size="12" fill="black" xmlns:xlink="http://www.w3.org/1999/xlink" stroke="black" image-rendering="auto" stroke-miterlimit="10" zoomAndPan="magnify" version="1.0" stroke-linecap="square" stroke-linejoin="miter" contentStyleType="text/css" font-style="normal" height="742" stroke-width="1" stroke-dashoffset="0" font-weight="normal" stroke-opacity="1">
  <!--Generated by the Batik Graphics2D SVG Generator-->
  <defs id="genericDefs" />
  <g>
    <defs id="defs1">
      <clipPath clipPathUnits="userSpaceOnUse" id="clipPath1">
        <path d="M373 123 L698 123 L698 169 L373 169 L373 123 Z" />
      </clipPath>
      <clipPath clipPathUnits="userSpaceOnUse" id="clipPath2">
        <path d="M486 124 L584 124 L584 140 L486 140 L486 124 Z" />
      </clipPath>
      <clipPath clipPathUnits="userSpaceOnUse" id="clipPath3">
        <path d="M477 138 L594 138 L594 155 L477 155 L477 138 Z" />
      </clipPath>
      <clipPath clipPathUnits="userSpaceOnUse" id="clipPath4">
        <path d="M455 153 L615 153 L615 167 L455 167 L455 153 Z" />
      </clipPath>
      <clipPath clipPathUnits="userSpaceOnUse" id="clipPath5">
        <path d="M373 167 L698 167 L698 172 L373 172 L373 167 Z" />
      </clipPath>
      <clipPath clipPathUnits="userSpaceOnUse" id="clipPath6">
        <path d="M373 170 L698 170 L698 399 L373 399 L373 170 Z" />
      </clipPath>
      <clipPath clipPathUnits="userSpaceOnUse" id="clipPath7">
        <path d="M375 171 L580 171 L580 187 L375 187 L375 171 Z" />
      </clipPath>
      <clipPath clipPathUnits="userSpaceOnUse" id="clipPath8">
        <path d="M375 185 L519 185 L519 201 L375 201 L375 185 Z" />
      </clipPath>
      <clipPath clipPathUnits="userSpaceOnUse" id="clipPath9">
        <path d="M375 199 L529 199 L529 215 L375 215 L375 199 Z" />
      </clipPath>
      <clipPath clipPathUnits="userSpaceOnUse" id="clipPath10">
        <path d="M375 213 L539 213 L539 229 L375 229 L375 213 Z" />
      </clipPath>
      <clipPath clipPathUnits="userSpaceOnUse" id="clipPath11">
        <path d="M375 227 L696 227 L696 243 L375 243 L375 227 Z" />
      </clipPath>
      <clipPath clipPathUnits="userSpaceOnUse" id="clipPath12">
        <path d="M375 241 L579 241 L579 257 L375 257 L375 241 Z" />
      </clipPath>
      <clipPath clipPathUnits="userSpaceOnUse" id="clipPath13">
        <path d="M375 255 L506 255 L506 271 L375 271 L375 255 Z" />
      </clipPath>
      <clipPath clipPathUnits="userSpaceOnUse" id="clipPath14">
        <path d="M375 269 L573 269 L573 285 L375 285 L375 269 Z" />
      </clipPath>
      <clipPath clipPathUnits="userSpaceOnUse" id="clipPath15">
        <path d="M375 283 L497 283 L497 299 L375 299 L375 283 Z" />
      </clipPath>
      <clipPath clipPathUnits="userSpaceOnUse" id="clipPath16">
        <path d="M375 297 L494 297 L494 313 L375 313 L375 297 Z" />
      </clipPath>
      <clipPath clipPathUnits="userSpaceOnUse" id="clipPath17">
        <path d="M375 311 L490 311 L490 327 L375 327 L375 311 Z" />
      </clipPath>
      <clipPath clipPathUnits="userSpaceOnUse" id="clipPath18">
        <path d="M375 325 L496 325 L496 341 L375 341 L375 325 Z" />
      </clipPath>
      <clipPath clipPathUnits="userSpaceOnUse" id="clipPath19">
        <path d="M375 339 L493 339 L493 355 L375 355 L375 339 Z" />
      </clipPath>
      <clipPath clipPathUnits="userSpaceOnUse" id="clipPath20">
        <path d="M375 353 L609 353 L609 369 L375 369 L375 353 Z" />
      </clipPath>
      <clipPath clipPathUnits="userSpaceOnUse" id="clipPath21">
        <path d="M375 367 L604 367 L604 383 L375 383 L375 367 Z" />
      </clipPath>
      <clipPath clipPathUnits="userSpaceOnUse" id="clipPath22">
        <path d="M375 381 L497 381 L497 397 L375 397 L375 381 Z" />
      </clipPath>
      <clipPath clipPathUnits="userSpaceOnUse" id="clipPath23">
        <path d="M454 4 L618 4 L618 50 L454 50 L454 4 Z" />
      </clipPath>
      <clipPath clipPathUnits="userSpaceOnUse" id="clipPath24">
        <path d="M487 5 L585 5 L585 21 L487 21 L487 5 Z" />
      </clipPath>
      <clipPath clipPathUnits="userSpaceOnUse" id="clipPath25">
        <path d="M485 19 L587 19 L587 36 L485 36 L485 19 Z" />
      </clipPath>
      <clipPath clipPathUnits="userSpaceOnUse" id="clipPath26">
        <path d="M456 34 L616 34 L616 48 L456 48 L456 34 Z" />
      </clipPath>
      <clipPath clipPathUnits="userSpaceOnUse" id="clipPath27">
        <path d="M454 48 L618 48 L618 53 L454 53 L454 48 Z" />
      </clipPath>
      <clipPath clipPathUnits="userSpaceOnUse" id="clipPath28">
        <path d="M454 51 L618 51 L618 70 L454 70 L454 51 Z" />
      </clipPath>
      <clipPath clipPathUnits="userSpaceOnUse" id="clipPath29">
        <path d="M456 52 L593 52 L593 68 L456 68 L456 52 Z" />
      </clipPath>
      <clipPath clipPathUnits="userSpaceOnUse" id="clipPath30">
        <path d="M714 122 L969 122 L969 168 L714 168 L714 122 Z" />
      </clipPath>
      <clipPath clipPathUnits="userSpaceOnUse" id="clipPath31">
        <path d="M792 123 L890 123 L890 139 L792 139 L792 123 Z" />
      </clipPath>
      <clipPath clipPathUnits="userSpaceOnUse" id="clipPath32">
        <path d="M769 137 L914 137 L914 154 L769 154 L769 137 Z" />
      </clipPath>
      <clipPath clipPathUnits="userSpaceOnUse" id="clipPath33">
        <path d="M761 152 L921 152 L921 166 L761 166 L761 152 Z" />
      </clipPath>
      <clipPath clipPathUnits="userSpaceOnUse" id="clipPath34">
        <path d="M714 166 L969 166 L969 171 L714 171 L714 166 Z" />
      </clipPath>
      <clipPath clipPathUnits="userSpaceOnUse" id="clipPath35">
        <path d="M714 169 L969 169 L969 202 L714 202 L714 169 Z" />
      </clipPath>
      <clipPath clipPathUnits="userSpaceOnUse" id="clipPath36">
        <path d="M716 170 L890 170 L890 186 L716 186 L716 170 Z" />
      </clipPath>
      <clipPath clipPathUnits="userSpaceOnUse" id="clipPath37">
        <path d="M716 184 L967 184 L967 200 L716 200 L716 184 Z" />
      </clipPath>
      <clipPath clipPathUnits="userSpaceOnUse" id="clipPath38">
        <path d="M4 118 L339 118 L339 164 L4 164 L4 118 Z" />
      </clipPath>
      <clipPath clipPathUnits="userSpaceOnUse" id="clipPath39">
        <path d="M122 119 L220 119 L220 135 L122 135 L122 119 Z" />
      </clipPath>
      <clipPath clipPathUnits="userSpaceOnUse" id="clipPath40">
        <path d="M94 133 L248 133 L248 150 L94 150 L94 133 Z" />
      </clipPath>
      <clipPath clipPathUnits="userSpaceOnUse" id="clipPath41">
        <path d="M91 148 L251 148 L251 162 L91 162 L91 148 Z" />
      </clipPath>
      <clipPath clipPathUnits="userSpaceOnUse" id="clipPath42">
        <path d="M4 162 L339 162 L339 167 L4 167 L4 162 Z" />
      </clipPath>
      <clipPath clipPathUnits="userSpaceOnUse" id="clipPath43">
        <path d="M4 165 L339 165 L339 380 L4 380 L4 165 Z" />
      </clipPath>
      <clipPath clipPathUnits="userSpaceOnUse" id="clipPath44">
        <path d="M6 166 L237 166 L237 182 L6 182 L6 166 Z" />
      </clipPath>
      <clipPath clipPathUnits="userSpaceOnUse" id="clipPath45">
        <path d="M6 180 L337 180 L337 196 L6 196 L6 180 Z" />
      </clipPath>
      <clipPath clipPathUnits="userSpaceOnUse" id="clipPath46">
        <path d="M6 194 L293 194 L293 210 L6 210 L6 194 Z" />
      </clipPath>
      <clipPath clipPathUnits="userSpaceOnUse" id="clipPath47">
        <path d="M6 208 L194 208 L194 224 L6 224 L6 208 Z" />
      </clipPath>
      <clipPath clipPathUnits="userSpaceOnUse" id="clipPath48">
        <path d="M6 222 L258 222 L258 238 L6 238 L6 222 Z" />
      </clipPath>
      <clipPath clipPathUnits="userSpaceOnUse" id="clipPath49">
        <path d="M6 236 L294 236 L294 252 L6 252 L6 236 Z" />
      </clipPath>
      <clipPath clipPathUnits="userSpaceOnUse" id="clipPath50">
        <path d="M6 250 L202 250 L202 266 L6 266 L6 250 Z" />
      </clipPath>
      <clipPath clipPathUnits="userSpaceOnUse" id="clipPath51">
        <path d="M6 264 L199 264 L199 280 L6 280 L6 264 Z" />
      </clipPath>
      <clipPath clipPathUnits="userSpaceOnUse" id="clipPath52">
        <path d="M6 278 L233 278 L233 294 L6 294 L6 278 Z" />
      </clipPath>
      <clipPath clipPathUnits="userSpaceOnUse" id="clipPath53">
        <path d="M6 292 L253 292 L253 308 L6 308 L6 292 Z" />
      </clipPath>
      <clipPath clipPathUnits="userSpaceOnUse" id="clipPath54">
        <path d="M6 306 L155 306 L155 322 L6 322 L6 306 Z" />
      </clipPath>
      <clipPath clipPathUnits="userSpaceOnUse" id="clipPath55">
        <path d="M6 320 L226 320 L226 336 L6 336 L6 320 Z" />
      </clipPath>
      <clipPath clipPathUnits="userSpaceOnUse" id="clipPath56">
        <path d="M6 334 L125 334 L125 350 L6 350 L6 334 Z" />
      </clipPath>
      <clipPath clipPathUnits="userSpaceOnUse" id="clipPath57">
        <path d="M6 348 L103 348 L103 364 L6 364 L6 348 Z" />
      </clipPath>
      <clipPath clipPathUnits="userSpaceOnUse" id="clipPath58">
        <path d="M6 362 L149 362 L149 378 L6 378 L6 362 Z" />
      </clipPath>
      <clipPath clipPathUnits="userSpaceOnUse" id="clipPath59">
        <path d="M123 451 L287 451 L287 497 L123 497 L123 451 Z" />
      </clipPath>
      <clipPath clipPathUnits="userSpaceOnUse" id="clipPath60">
        <path d="M156 452 L254 452 L254 468 L156 468 L156 452 Z" />
      </clipPath>
      <clipPath clipPathUnits="userSpaceOnUse" id="clipPath61">
        <path d="M128 466 L282 466 L282 483 L128 483 L128 466 Z" />
      </clipPath>
      <clipPath clipPathUnits="userSpaceOnUse" id="clipPath62">
        <path d="M125 481 L285 481 L285 495 L125 495 L125 481 Z" />
      </clipPath>
      <clipPath clipPathUnits="userSpaceOnUse" id="clipPath63">
        <path d="M123 495 L287 495 L287 500 L123 500 L123 495 Z" />
      </clipPath>
      <clipPath clipPathUnits="userSpaceOnUse" id="clipPath64">
        <path d="M123 498 L287 498 L287 517 L123 517 L123 498 Z" />
      </clipPath>
      <clipPath clipPathUnits="userSpaceOnUse" id="clipPath65">
        <path d="M125 499 L258 499 L258 515 L125 515 L125 499 Z" />
      </clipPath>
      <clipPath clipPathUnits="userSpaceOnUse" id="clipPath66">
        <path d="M371 451 L701 451 L701 497 L371 497 L371 451 Z" />
      </clipPath>
      <clipPath clipPathUnits="userSpaceOnUse" id="clipPath67">
        <path d="M487 452 L585 452 L585 468 L487 468 L487 452 Z" />
      </clipPath>
      <clipPath clipPathUnits="userSpaceOnUse" id="clipPath68">
        <path d="M432 466 L640 466 L640 483 L432 483 L432 466 Z" />
      </clipPath>
      <clipPath clipPathUnits="userSpaceOnUse" id="clipPath69">
        <path d="M456 481 L616 481 L616 495 L456 495 L456 481 Z" />
      </clipPath>
      <clipPath clipPathUnits="userSpaceOnUse" id="clipPath70">
        <path d="M371 495 L701 495 L701 500 L371 500 L371 495 Z" />
      </clipPath>
      <clipPath clipPathUnits="userSpaceOnUse" id="clipPath71">
        <path d="M371 498 L701 498 L701 545 L371 545 L371 498 Z" />
      </clipPath>
      <clipPath clipPathUnits="userSpaceOnUse" id="clipPath72">
        <path d="M373 499 L679 499 L679 515 L373 515 L373 499 Z" />
      </clipPath>
      <clipPath clipPathUnits="userSpaceOnUse" id="clipPath73">
        <path d="M373 513 L502 513 L502 529 L373 529 L373 513 Z" />
      </clipPath>
      <clipPath clipPathUnits="userSpaceOnUse" id="clipPath74">
        <path d="M373 527 L699 527 L699 543 L373 543 L373 527 Z" />
      </clipPath>
      <clipPath clipPathUnits="userSpaceOnUse" id="clipPath75">
        <path d="M258 588 L533 588 L533 634 L258 634 L258 588 Z" />
      </clipPath>
      <clipPath clipPathUnits="userSpaceOnUse" id="clipPath76">
        <path d="M346 589 L444 589 L444 605 L346 605 L346 589 Z" />
      </clipPath>
      <clipPath clipPathUnits="userSpaceOnUse" id="clipPath77">
        <path d="M297 603 L494 603 L494 620 L297 620 L297 603 Z" />
      </clipPath>
      <clipPath clipPathUnits="userSpaceOnUse" id="clipPath78">
        <path d="M315 618 L475 618 L475 632 L315 632 L315 618 Z" />
      </clipPath>
      <clipPath clipPathUnits="userSpaceOnUse" id="clipPath79">
        <path d="M258 632 L533 632 L533 637 L258 637 L258 632 Z" />
      </clipPath>
      <clipPath clipPathUnits="userSpaceOnUse" id="clipPath80">
        <path d="M258 635 L533 635 L533 668 L258 668 L258 635 Z" />
      </clipPath>
      <clipPath clipPathUnits="userSpaceOnUse" id="clipPath81">
        <path d="M260 636 L485 636 L485 652 L260 652 L260 636 Z" />
      </clipPath>
      <clipPath clipPathUnits="userSpaceOnUse" id="clipPath82">
        <path d="M260 650 L531 650 L531 666 L260 666 L260 650 Z" />
      </clipPath>
      <clipPath clipPathUnits="userSpaceOnUse" id="clipPath83">
        <path d="M564 588 L849 588 L849 634 L564 634 L564 588 Z" />
      </clipPath>
      <clipPath clipPathUnits="userSpaceOnUse" id="clipPath84">
        <path d="M657 589 L755 589 L755 605 L657 605 L657 589 Z" />
      </clipPath>
      <clipPath clipPathUnits="userSpaceOnUse" id="clipPath85">
        <path d="M609 603 L803 603 L803 620 L609 620 L609 603 Z" />
      </clipPath>
      <clipPath clipPathUnits="userSpaceOnUse" id="clipPath86">
        <path d="M626 618 L786 618 L786 632 L626 632 L626 618 Z" />
      </clipPath>
      <clipPath clipPathUnits="userSpaceOnUse" id="clipPath87">
        <path d="M564 632 L849 632 L849 637 L564 637 L564 632 Z" />
      </clipPath>
      <clipPath clipPathUnits="userSpaceOnUse" id="clipPath88">
        <path d="M564 635 L849 635 L849 738 L564 738 L564 635 Z" />
      </clipPath>
      <clipPath clipPathUnits="userSpaceOnUse" id="clipPath89">
        <path d="M566 636 L754 636 L754 652 L566 652 L566 636 Z" />
      </clipPath>
      <clipPath clipPathUnits="userSpaceOnUse" id="clipPath90">
        <path d="M566 650 L829 650 L829 666 L566 666 L566 650 Z" />
      </clipPath>
      <clipPath clipPathUnits="userSpaceOnUse" id="clipPath91">
        <path d="M566 664 L701 664 L701 680 L566 680 L566 664 Z" />
      </clipPath>
      <clipPath clipPathUnits="userSpaceOnUse" id="clipPath92">
        <path d="M566 678 L834 678 L834 694 L566 694 L566 678 Z" />
      </clipPath>
      <clipPath clipPathUnits="userSpaceOnUse" id="clipPath93">
        <path d="M566 692 L847 692 L847 708 L566 708 L566 692 Z" />
      </clipPath>
      <clipPath clipPathUnits="userSpaceOnUse" id="clipPath94">
        <path d="M566 706 L829 706 L829 722 L566 722 L566 706 Z" />
      </clipPath>
      <clipPath clipPathUnits="userSpaceOnUse" id="clipPath95">
        <path d="M566 720 L842 720 L842 736 L566 736 L566 720 Z" />
      </clipPath>
      <clipPath clipPathUnits="userSpaceOnUse" id="clipPath96">
        <path d="M530 68 L543 68 L543 126 L530 126 L530 68 Z" />
      </clipPath>
      <clipPath clipPathUnits="userSpaceOnUse" id="clipPath97">
        <path d="M530 68 L543 68 L543 85 L530 85 L530 68 Z" />
      </clipPath>
      <clipPath clipPathUnits="userSpaceOnUse" id="clipPath98">
        <path d="M616 50 L843 50 L843 125 L616 125 L616 50 Z" />
      </clipPath>
      <clipPath clipPathUnits="userSpaceOnUse" id="clipPath99">
        <path d="M616 50 L634 50 L634 63 L616 63 L616 50 Z" />
      </clipPath>
      <clipPath clipPathUnits="userSpaceOnUse" id="clipPath100">
        <path d="M171 48 L457 48 L457 121 L171 121 L171 48 Z" />
      </clipPath>
      <clipPath clipPathUnits="userSpaceOnUse" id="clipPath101">
        <path d="M439 48 L457 48 L457 60 L439 60 L439 48 Z" />
      </clipPath>
      <clipPath clipPathUnits="userSpaceOnUse" id="clipPath102">
        <path d="M251 369 L376 369 L376 454 L251 454 L251 369 Z" />
      </clipPath>
      <clipPath clipPathUnits="userSpaceOnUse" id="clipPath103">
        <path d="M359 369 L376 369 L376 384 L359 384 L359 369 Z" />
      </clipPath>
      <clipPath clipPathUnits="userSpaceOnUse" id="clipPath104">
        <path d="M530 397 L543 397 L543 454 L530 454 L530 397 Z" />
      </clipPath>
      <clipPath clipPathUnits="userSpaceOnUse" id="clipPath105">
        <path d="M530 397 L543 397 L543 414 L530 414 L530 397 Z" />
      </clipPath>
      <clipPath clipPathUnits="userSpaceOnUse" id="clipPath106">
        <path d="M436 543 L488 543 L488 591 L436 591 L436 543 Z" />
      </clipPath>
      <clipPath clipPathUnits="userSpaceOnUse" id="clipPath107">
        <path d="M471 543 L488 543 L488 559 L471 559 L471 543 Z" />
      </clipPath>
      <clipPath clipPathUnits="userSpaceOnUse" id="clipPath108">
        <path d="M582 543 L632 543 L632 591 L582 591 L582 543 Z" />
      </clipPath>
      <clipPath clipPathUnits="userSpaceOnUse" id="clipPath109">
        <path d="M582 543 L599 543 L599 559 L582 559 L582 543 Z" />
      </clipPath>
    </defs>
    <g font-size="11" fill="white" font-family="&apos;Tahoma&apos;" stroke-linejoin="round" stroke="white" stroke-miterlimit="0">
      <rect width="973" x="0" height="742" y="0" stroke="none" />
      <rect x="374" y="124" clip-path="url(#clipPath1)" width="323" height="44" stroke="none" />
      <rect x="374" y="124" clip-path="url(#clipPath1)" fill="none" width="323" height="44" stroke="black" />
      <text x="489" y="136" clip-path="url(#clipPath2)" fill="black" font-family="&apos;Arial&apos;" stroke="none" xml:space="preserve">&lt;&lt;Java Interface&gt;&gt;</text>
    </g>
    <g stroke-miterlimit="0" font-weight="bold" font-family="&apos;Arial&apos;" stroke-linejoin="round">
      <text xml:space="preserve" x="480" y="151" clip-path="url(#clipPath3)" stroke="none">IPropertyDescriptor</text>
      <text font-size="9" x="458" y="163" clip-path="url(#clipPath4)" stroke="none" font-weight="normal" xml:space="preserve">com.d2s.framework.model.descriptor</text>
    </g>
    <g font-size="11" fill="white" font-family="&apos;Tahoma&apos;" stroke-linejoin="round" stroke="white" stroke-miterlimit="0">
      <rect x="374" y="168" clip-path="url(#clipPath5)" width="323" height="3" stroke="none" />
      <rect x="374" y="167" clip-path="url(#clipPath5)" fill="none" width="323" height="4" stroke="black" />
      <rect x="374" y="171" clip-path="url(#clipPath6)" width="323" height="227" stroke="none" />
      <rect x="374" y="170" clip-path="url(#clipPath6)" fill="none" width="323" height="228" stroke="black" />
      <text x="378" y="183" clip-path="url(#clipPath7)" fill="black" font-family="&apos;Arial&apos;" stroke="none" xml:space="preserve">+checkValueIntegrity(Object,Object): void</text>
      <text x="378" y="197" clip-path="url(#clipPath8)" fill="black" font-family="&apos;Arial&apos;" stroke="none" xml:space="preserve">+clone(): IPropertyDescriptor</text>
      <text x="378" y="211" clip-path="url(#clipPath9)" fill="black" font-family="&apos;Arial&apos;" stroke="none" xml:space="preserve">+getDelegateClass(): Class&lt;?&gt;</text>
      <text x="378" y="225" clip-path="url(#clipPath10)" fill="black" font-family="&apos;Arial&apos;" stroke="none" xml:space="preserve">+getDelegateClassName(): String</text>
      <text x="378" y="239" clip-path="url(#clipPath11)" fill="black" font-family="&apos;Arial&apos;" stroke="none" xml:space="preserve">+getIntegrityProcessors(): List&lt;IPropertyIntegrityProcessor&lt;?,?&gt;&gt;</text>
      <text x="378" y="253" clip-path="url(#clipPath12)" fill="black" font-family="&apos;Arial&apos;" stroke="none" xml:space="preserve">+getReadabilityGates(): Collection&lt;IGate&gt;</text>
      <text x="378" y="267" clip-path="url(#clipPath13)" fill="black" font-family="&apos;Arial&apos;" stroke="none" xml:space="preserve">+getUnicityScope(): String</text>
      <text x="378" y="281" clip-path="url(#clipPath14)" fill="black" font-family="&apos;Arial&apos;" stroke="none" xml:space="preserve">+getWritabilityGates(): Collection&lt;IGate&gt;</text>
      <text x="378" y="295" clip-path="url(#clipPath15)" fill="black" font-family="&apos;Arial&apos;" stroke="none" xml:space="preserve">+isMandatory(): boolean</text>
      <text x="378" y="309" clip-path="url(#clipPath16)" fill="black" font-family="&apos;Arial&apos;" stroke="none" xml:space="preserve">+isModifiable(): boolean</text>
      <text x="378" y="323" clip-path="url(#clipPath17)" fill="black" font-family="&apos;Arial&apos;" stroke="none" xml:space="preserve">+isOverload(): boolean</text>
      <text x="378" y="337" clip-path="url(#clipPath18)" fill="black" font-family="&apos;Arial&apos;" stroke="none" xml:space="preserve">+isQueryable(): boolean</text>
      <text x="378" y="351" clip-path="url(#clipPath19)" fill="black" font-family="&apos;Arial&apos;" stroke="none" xml:space="preserve">+isReadOnly(): boolean</text>
      <text x="378" y="365" clip-path="url(#clipPath20)" fill="black" font-family="&apos;Arial&apos;" stroke="none" xml:space="preserve">+postprocessSetter(Object,Object,Object): void</text>
      <text x="378" y="379" clip-path="url(#clipPath21)" fill="black" font-family="&apos;Arial&apos;" stroke="none" xml:space="preserve">+preprocessSetter(Object,Object,Object): void</text>
      <text x="378" y="393" clip-path="url(#clipPath22)" fill="black" font-family="&apos;Arial&apos;" stroke="none" xml:space="preserve">+unleashForFilter(): void</text>
      <rect x="455" y="5" clip-path="url(#clipPath23)" width="162" height="44" stroke="none" />
      <rect x="455" y="5" clip-path="url(#clipPath23)" fill="none" width="162" height="44" stroke="black" />
      <text x="490" y="17" clip-path="url(#clipPath24)" fill="black" font-family="&apos;Arial&apos;" stroke="none" xml:space="preserve">&lt;&lt;Java Interface&gt;&gt;</text>
    </g>
    <g stroke-miterlimit="0" font-weight="bold" font-family="&apos;Arial&apos;" stroke-linejoin="round">
      <text xml:space="preserve" x="488" y="32" clip-path="url(#clipPath25)" stroke="none">IModelDescriptor</text>
      <text font-size="9" x="459" y="44" clip-path="url(#clipPath26)" stroke="none" font-weight="normal" xml:space="preserve">com.d2s.framework.model.descriptor</text>
    </g>
    <g font-size="11" fill="white" font-family="&apos;Tahoma&apos;" stroke-linejoin="round" stroke="white" stroke-miterlimit="0">
      <rect x="455" y="49" clip-path="url(#clipPath27)" width="162" height="3" stroke="none" />
      <rect x="455" y="48" clip-path="url(#clipPath27)" fill="none" width="162" height="4" stroke="black" />
      <rect x="455" y="52" clip-path="url(#clipPath28)" width="162" height="17" stroke="none" />
      <rect x="455" y="51" clip-path="url(#clipPath28)" fill="none" width="162" height="18" stroke="black" />
      <text x="459" y="64" clip-path="url(#clipPath29)" fill="black" font-family="&apos;Arial&apos;" stroke="none" xml:space="preserve">+getModelType(): Class&lt;?&gt;</text>
      <rect x="715" y="123" clip-path="url(#clipPath30)" width="253" height="44" stroke="none" />
      <rect x="715" y="123" clip-path="url(#clipPath30)" fill="none" width="253" height="44" stroke="black" />
      <text x="795" y="135" clip-path="url(#clipPath31)" fill="black" font-family="&apos;Arial&apos;" stroke="none" xml:space="preserve">&lt;&lt;Java Interface&gt;&gt;</text>
    </g>
    <g stroke-miterlimit="0" font-weight="bold" font-family="&apos;Arial&apos;" stroke-linejoin="round">
      <text xml:space="preserve" x="772" y="150" clip-path="url(#clipPath32)" stroke="none">ICollectionDescriptor&lt;E&gt;</text>
      <text font-size="9" x="764" y="162" clip-path="url(#clipPath33)" stroke="none" font-weight="normal" xml:space="preserve">com.d2s.framework.model.descriptor</text>
    </g>
    <g font-size="11" fill="white" font-family="&apos;Tahoma&apos;" stroke-linejoin="round" stroke="white" stroke-miterlimit="0">
      <rect x="715" y="167" clip-path="url(#clipPath34)" width="253" height="3" stroke="none" />
      <rect x="715" y="166" clip-path="url(#clipPath34)" fill="none" width="253" height="4" stroke="black" />
      <rect x="715" y="170" clip-path="url(#clipPath35)" width="253" height="31" stroke="none" />
      <rect x="715" y="169" clip-path="url(#clipPath35)" fill="none" width="253" height="32" stroke="black" />
      <text x="719" y="182" clip-path="url(#clipPath36)" fill="black" font-family="&apos;Arial&apos;" stroke="none" xml:space="preserve">+getCollectionInterface(): Class&lt;?&gt;</text>
      <text x="719" y="196" clip-path="url(#clipPath37)" fill="black" font-family="&apos;Arial&apos;" stroke="none" xml:space="preserve">+getElementDescriptor(): IComponentDescriptor&lt;E&gt;</text>
      <rect x="5" y="119" clip-path="url(#clipPath38)" width="333" height="44" stroke="none" />
      <rect x="5" y="119" clip-path="url(#clipPath38)" fill="none" width="333" height="44" stroke="black" />
      <text x="125" y="131" clip-path="url(#clipPath39)" fill="black" font-family="&apos;Arial&apos;" stroke="none" xml:space="preserve">&lt;&lt;Java Interface&gt;&gt;</text>
    </g>
    <g stroke-miterlimit="0" font-weight="bold" font-family="&apos;Arial&apos;" stroke-linejoin="round">
      <text xml:space="preserve" x="97" y="146" clip-path="url(#clipPath40)" stroke="none">IComponentDescriptor&lt;E&gt;</text>
      <text font-size="9" x="94" y="158" clip-path="url(#clipPath41)" stroke="none" font-weight="normal" xml:space="preserve">com.d2s.framework.model.descriptor</text>
    </g>
    <g font-size="11" fill="white" font-family="&apos;Tahoma&apos;" stroke-linejoin="round" stroke="white" stroke-miterlimit="0">
      <rect x="5" y="163" clip-path="url(#clipPath42)" width="333" height="3" stroke="none" />
      <rect x="5" y="162" clip-path="url(#clipPath42)" fill="none" width="333" height="4" stroke="black" />
      <rect x="5" y="166" clip-path="url(#clipPath43)" width="333" height="213" stroke="none" />
      <rect x="5" y="165" clip-path="url(#clipPath43)" fill="none" width="333" height="214" stroke="black" />
      <text x="9" y="178" clip-path="url(#clipPath44)" fill="black" font-family="&apos;Arial&apos;" stroke="none" xml:space="preserve">+getComponentContract(): Class&lt;? extends E&gt;</text>
      <text x="9" y="192" clip-path="url(#clipPath45)" fill="black" font-family="&apos;Arial&apos;" stroke="none" xml:space="preserve">+getDeclaredPropertyDescriptors(): Collection&lt;IPropertyDescriptor&gt;</text>
      <text x="9" y="206" clip-path="url(#clipPath46)" fill="black" font-family="&apos;Arial&apos;" stroke="none" xml:space="preserve">+getLifecycleInterceptors(): List&lt;ILifecycleInterceptor&lt;?&gt;&gt;</text>
      <text x="9" y="220" clip-path="url(#clipPath47)" fill="black" font-family="&apos;Arial&apos;" stroke="none" xml:space="preserve">+getOrderingProperties(): List&lt;String&gt;</text>
      <text x="9" y="234" clip-path="url(#clipPath48)" fill="black" font-family="&apos;Arial&apos;" stroke="none" xml:space="preserve">+getPropertyDescriptor(String): IPropertyDescriptor</text>
      <text x="9" y="248" clip-path="url(#clipPath49)" fill="black" font-family="&apos;Arial&apos;" stroke="none" xml:space="preserve">+getPropertyDescriptors(): Collection&lt;IPropertyDescriptor&gt;</text>
      <text x="9" y="262" clip-path="url(#clipPath50)" fill="black" font-family="&apos;Arial&apos;" stroke="none" xml:space="preserve">+getQueryableProperties(): List&lt;String&gt;</text>
      <text x="9" y="276" clip-path="url(#clipPath51)" fill="black" font-family="&apos;Arial&apos;" stroke="none" xml:space="preserve">+getRenderedProperties(): List&lt;String&gt;</text>
      <text x="9" y="290" clip-path="url(#clipPath52)" fill="black" font-family="&apos;Arial&apos;" stroke="none" xml:space="preserve">+getServiceContracts(): Collection&lt;Class&lt;?&gt;&gt;</text>
      <text x="9" y="304" clip-path="url(#clipPath53)" fill="black" font-family="&apos;Arial&apos;" stroke="none" xml:space="preserve">+getServiceDelegate(Method): IComponentService</text>
      <text x="9" y="318" clip-path="url(#clipPath54)" fill="black" font-family="&apos;Arial&apos;" stroke="none" xml:space="preserve">+getToStringProperty(): String</text>
      <text x="9" y="332" clip-path="url(#clipPath55)" fill="black" font-family="&apos;Arial&apos;" stroke="none" xml:space="preserve">+getUnclonedProperties(): Collection&lt;String&gt;</text>
      <text x="9" y="346" clip-path="url(#clipPath56)" fill="black" font-family="&apos;Arial&apos;" stroke="none" xml:space="preserve">+isComputed(): boolean</text>
      <text x="9" y="360" clip-path="url(#clipPath57)" fill="black" font-family="&apos;Arial&apos;" stroke="none" xml:space="preserve">+isEntity(): boolean</text>
      <text x="9" y="374" clip-path="url(#clipPath58)" fill="black" font-family="&apos;Arial&apos;" stroke="none" xml:space="preserve">+isPurelyAbstract(): boolean</text>
      <rect x="124" y="452" clip-path="url(#clipPath59)" width="162" height="44" stroke="none" />
      <rect x="124" y="452" clip-path="url(#clipPath59)" fill="none" width="162" height="44" stroke="black" />
      <text x="159" y="464" clip-path="url(#clipPath60)" fill="black" font-family="&apos;Arial&apos;" stroke="none" xml:space="preserve">&lt;&lt;Java Interface&gt;&gt;</text>
    </g>
    <g stroke-miterlimit="0" font-weight="bold" font-family="&apos;Arial&apos;" stroke-linejoin="round">
      <text xml:space="preserve" x="131" y="479" clip-path="url(#clipPath61)" stroke="none">IScalarPropertyDescriptor</text>
      <text font-size="9" x="128" y="491" clip-path="url(#clipPath62)" stroke="none" font-weight="normal" xml:space="preserve">com.d2s.framework.model.descriptor</text>
    </g>
    <g font-size="11" fill="white" font-family="&apos;Tahoma&apos;" stroke-linejoin="round" stroke="white" stroke-miterlimit="0">
      <rect x="124" y="496" clip-path="url(#clipPath63)" width="162" height="3" stroke="none" />
      <rect x="124" y="495" clip-path="url(#clipPath63)" fill="none" width="162" height="4" stroke="black" />
      <rect x="124" y="499" clip-path="url(#clipPath64)" width="162" height="17" stroke="none" />
      <rect x="124" y="498" clip-path="url(#clipPath64)" fill="none" width="162" height="18" stroke="black" />
      <text x="128" y="511" clip-path="url(#clipPath65)" fill="black" font-family="&apos;Arial&apos;" stroke="none" xml:space="preserve">+getDefaultValue(): Object</text>
      <rect x="372" y="452" clip-path="url(#clipPath66)" width="328" height="44" stroke="none" />
      <rect x="372" y="452" clip-path="url(#clipPath66)" fill="none" width="328" height="44" stroke="black" />
      <text x="490" y="464" clip-path="url(#clipPath67)" fill="black" font-family="&apos;Arial&apos;" stroke="none" xml:space="preserve">&lt;&lt;Java Interface&gt;&gt;</text>
    </g>
    <g stroke-miterlimit="0" font-weight="bold" font-family="&apos;Arial&apos;" stroke-linejoin="round">
      <text xml:space="preserve" x="435" y="479" clip-path="url(#clipPath68)" stroke="none">IRelationshipEndPropertyDescriptor</text>
      <text font-size="9" x="459" y="491" clip-path="url(#clipPath69)" stroke="none" font-weight="normal" xml:space="preserve">com.d2s.framework.model.descriptor</text>
    </g>
    <g font-size="11" fill="white" font-family="&apos;Tahoma&apos;" stroke-linejoin="round" stroke="white" stroke-miterlimit="0">
      <rect x="372" y="496" clip-path="url(#clipPath70)" width="328" height="3" stroke="none" />
      <rect x="372" y="495" clip-path="url(#clipPath70)" fill="none" width="328" height="4" stroke="black" />
      <rect x="372" y="499" clip-path="url(#clipPath71)" width="328" height="45" stroke="none" />
      <rect x="372" y="498" clip-path="url(#clipPath71)" fill="none" width="328" height="46" stroke="black" />
      <text x="376" y="511" clip-path="url(#clipPath72)" fill="black" font-family="&apos;Arial&apos;" stroke="none" xml:space="preserve">+getReverseRelationEnd(): IRelationshipEndPropertyDescriptor</text>
      <text x="376" y="525" clip-path="url(#clipPath73)" fill="black" font-family="&apos;Arial&apos;" stroke="none" xml:space="preserve">+isComposition(): boolean</text>
      <text x="376" y="539" clip-path="url(#clipPath74)" fill="black" font-family="&apos;Arial&apos;" stroke="none" xml:space="preserve">+setReverseRelationEnd(IRelationshipEndPropertyDescriptor): void</text>
      <rect x="259" y="589" clip-path="url(#clipPath75)" width="273" height="44" stroke="none" />
      <rect x="259" y="589" clip-path="url(#clipPath75)" fill="none" width="273" height="44" stroke="black" />
      <text x="349" y="601" clip-path="url(#clipPath76)" fill="black" font-family="&apos;Arial&apos;" stroke="none" xml:space="preserve">&lt;&lt;Java Interface&gt;&gt;</text>
    </g>
    <g stroke-miterlimit="0" font-weight="bold" font-family="&apos;Arial&apos;" stroke-linejoin="round">
      <text xml:space="preserve" x="300" y="616" clip-path="url(#clipPath77)" stroke="none">IReferencePropertyDescriptor&lt;E&gt;</text>
      <text font-size="9" x="318" y="628" clip-path="url(#clipPath78)" stroke="none" font-weight="normal" xml:space="preserve">com.d2s.framework.model.descriptor</text>
    </g>
    <g font-size="11" fill="white" font-family="&apos;Tahoma&apos;" stroke-linejoin="round" stroke="white" stroke-miterlimit="0">
      <rect x="259" y="633" clip-path="url(#clipPath79)" width="273" height="3" stroke="none" />
      <rect x="259" y="632" clip-path="url(#clipPath79)" fill="none" width="273" height="4" stroke="black" />
      <rect x="259" y="636" clip-path="url(#clipPath80)" width="273" height="31" stroke="none" />
      <rect x="259" y="635" clip-path="url(#clipPath80)" fill="none" width="273" height="32" stroke="black" />
      <text x="263" y="648" clip-path="url(#clipPath81)" fill="black" font-family="&apos;Arial&apos;" stroke="none" xml:space="preserve">+getInitializationMapping(): Map&lt;String,String&gt;</text>
      <text x="263" y="662" clip-path="url(#clipPath82)" fill="black" font-family="&apos;Arial&apos;" stroke="none" xml:space="preserve">+getReferencedDescriptor(): IComponentDescriptor&lt;E&gt;</text>
      <rect x="565" y="589" clip-path="url(#clipPath83)" width="283" height="44" stroke="none" />
      <rect x="565" y="589" clip-path="url(#clipPath83)" fill="none" width="283" height="44" stroke="black" />
      <text x="660" y="601" clip-path="url(#clipPath84)" fill="black" font-family="&apos;Arial&apos;" stroke="none" xml:space="preserve">&lt;&lt;Java Interface&gt;&gt;</text>
    </g>
    <g stroke-miterlimit="0" font-weight="bold" font-family="&apos;Arial&apos;" stroke-linejoin="round">
      <text xml:space="preserve" x="612" y="616" clip-path="url(#clipPath85)" stroke="none">ICollectionPropertyDescriptor&lt;E&gt;</text>
      <text font-size="9" x="629" y="628" clip-path="url(#clipPath86)" stroke="none" font-weight="normal" xml:space="preserve">com.d2s.framework.model.descriptor</text>
    </g>
    <g font-size="11" fill="white" font-family="&apos;Tahoma&apos;" stroke-linejoin="round" stroke="white" stroke-miterlimit="0">
      <rect x="565" y="633" clip-path="url(#clipPath87)" width="283" height="3" stroke="none" />
      <rect x="565" y="632" clip-path="url(#clipPath87)" fill="none" width="283" height="4" stroke="black" />
      <rect x="565" y="636" clip-path="url(#clipPath88)" width="283" height="101" stroke="none" />
      <rect x="565" y="635" clip-path="url(#clipPath88)" fill="none" width="283" height="102" stroke="black" />
      <text x="569" y="648" clip-path="url(#clipPath89)" fill="black" font-family="&apos;Arial&apos;" stroke="none" xml:space="preserve">+getOrderingProperties(): List&lt;String&gt;</text>
      <text x="569" y="662" clip-path="url(#clipPath90)" fill="black" font-family="&apos;Arial&apos;" stroke="none" xml:space="preserve">+getReferencedDescriptor(): ICollectionDescriptor&lt;E&gt;</text>
      <text x="569" y="676" clip-path="url(#clipPath91)" fill="black" font-family="&apos;Arial&apos;" stroke="none" xml:space="preserve">+isManyToMany(): boolean</text>
      <text x="569" y="690" clip-path="url(#clipPath92)" fill="black" font-family="&apos;Arial&apos;" stroke="none" xml:space="preserve">+postprocessAdder(Object,Collection&lt;?&gt;,Object): void</text>
      <text x="569" y="704" clip-path="url(#clipPath93)" fill="black" font-family="&apos;Arial&apos;" stroke="none" xml:space="preserve">+postprocessRemover(Object,Collection&lt;?&gt;,Object): void</text>
      <text x="569" y="718" clip-path="url(#clipPath94)" fill="black" font-family="&apos;Arial&apos;" stroke="none" xml:space="preserve">+preprocessAdder(Object,Collection&lt;?&gt;,Object): void</text>
      <text x="569" y="732" clip-path="url(#clipPath95)" fill="black" font-family="&apos;Arial&apos;" stroke="none" xml:space="preserve">+preprocessRemover(Object,Collection&lt;?&gt;,Object): void</text>
      <line clip-path="url(#clipPath96)" fill="none" x1="536" x2="536" y1="124" y2="96" stroke="black" />
      <line clip-path="url(#clipPath96)" fill="none" x1="536" x2="536" y1="96" y2="69" stroke="black" />
      <polygon clip-path="url(#clipPath97)" points=" 536 69 541 83 531 83" stroke="none" />
      <polygon fill="none" clip-path="url(#clipPath97)" points=" 536 69 541 83 531 83" stroke="black" />
      <line clip-path="url(#clipPath98)" fill="none" x1="841" x2="841" y1="123" y2="98" stroke="black" />
      <line clip-path="url(#clipPath98)" fill="none" x1="841" x2="617" y1="98" y2="53" stroke="black" />
      <polygon clip-path="url(#clipPath99)" points=" 617 53 632 51 630 61" stroke="none" />
      <polygon fill="none" clip-path="url(#clipPath99)" points=" 617 53 632 51 630 61" stroke="black" />
      <line clip-path="url(#clipPath100)" fill="none" x1="172" x2="172" y1="119" y2="102" stroke="black" />
      <line clip-path="url(#clipPath100)" fill="none" x1="172" x2="455" y1="102" y2="51" stroke="black" />
      <polygon clip-path="url(#clipPath101)" points=" 455 51 442 58 440 49" stroke="none" />
      <polygon fill="none" clip-path="url(#clipPath101)" points=" 455 51 442 58 440 49" stroke="black" />
      <line clip-path="url(#clipPath102)" fill="none" x1="252" x2="313" y1="452" y2="411" stroke="black" />
      <line clip-path="url(#clipPath102)" fill="none" x1="313" x2="374" y1="411" y2="370" stroke="black" />
      <polygon clip-path="url(#clipPath103)" points=" 374 370 365 382 360 374" stroke="none" />
      <polygon fill="none" clip-path="url(#clipPath103)" points=" 374 370 365 382 360 374" stroke="black" />
      <line clip-path="url(#clipPath104)" fill="none" x1="536" x2="536" y1="452" y2="425" stroke="black" />
      <line clip-path="url(#clipPath104)" fill="none" x1="536" x2="536" y1="425" y2="398" stroke="black" />
      <polygon clip-path="url(#clipPath105)" points=" 536 398 541 412 531 412" stroke="none" />
      <polygon fill="none" clip-path="url(#clipPath105)" points=" 536 398 541 412 531 412" stroke="black" />
      <line clip-path="url(#clipPath106)" fill="none" x1="437" x2="462" y1="589" y2="566" stroke="black" />
      <line clip-path="url(#clipPath106)" fill="none" x1="462" x2="486" y1="566" y2="544" stroke="black" />
      <polygon clip-path="url(#clipPath107)" points=" 486 544 479 557 472 550" stroke="none" />
      <polygon fill="none" clip-path="url(#clipPath107)" points=" 486 544 479 557 472 550" stroke="black" />
      <line clip-path="url(#clipPath108)" fill="none" x1="630" x2="606" y1="589" y2="566" stroke="black" />
      <line clip-path="url(#clipPath108)" fill="none" x1="606" x2="583" y1="566" y2="544" stroke="black" />
      <polygon clip-path="url(#clipPath109)" points=" 583 544 597 550 590 557" stroke="none" />
      <polygon fill="none" clip-path="url(#clipPath109)" points=" 583 544 597 550 590 557" stroke="black" />
    </g>
  </g>
</svg>
