<?xml version="1.0"?>

<!DOCTYPE svg PUBLIC '-//W3C//DTD SVG 1.0//EN' 'http://www.w3.org/TR/2001/REC-SVG-20010904/DTD/svg10.dtd'>
<svg stroke-dasharray="none" shape-rendering="auto" xmlns="http://www.w3.org/2000/svg" font-family="&apos;Dialog&apos;" width="973" text-rendering="auto" fill-opacity="1" contentScriptType="text/ecmascript" color-interpolation="auto" color-rendering="auto" preserveAspectRatio="xMidYMid meet" font-size="12" fill="black" xmlns:xlink="http://www.w3.org/1999/xlink" stroke="black" image-rendering="auto" stroke-miterlimit="10" zoomAndPan="magnify" version="1.0" stroke-linecap="square" stroke-linejoin="miter" contentStyleType="text/css" font-style="normal" height="742" stroke-width="1" stroke-dashoffset="0" font-weight="normal" stroke-opacity="1">
  <!--Generated by the Batik Graphics2D SVG Generator-->
  <defs id="genericDefs" />
  <g>
    <defs id="defs1">
      <clipPath clipPathUnits="userSpaceOnUse" id="clipPath1">
        <path d="M392 123 L679 123 L679 169 L392 169 L392 123 Z" />
      </clipPath>
      <clipPath clipPathUnits="userSpaceOnUse" id="clipPath2">
        <path d="M486 124 L584 124 L584 140 L486 140 L486 124 Z" />
      </clipPath>
      <clipPath clipPathUnits="userSpaceOnUse" id="clipPath3">
        <path d="M477 138 L594 138 L594 155 L477 155 L477 138 Z" />
      </clipPath>
      <clipPath clipPathUnits="userSpaceOnUse" id="clipPath4">
        <path d="M455 153 L615 153 L615 167 L455 167 L455 153 Z" />
      </clipPath>
      <clipPath clipPathUnits="userSpaceOnUse" id="clipPath5">
        <path d="M392 167 L679 167 L679 172 L392 172 L392 167 Z" />
      </clipPath>
      <clipPath clipPathUnits="userSpaceOnUse" id="clipPath6">
        <path d="M392 170 L679 170 L679 399 L392 399 L392 170 Z" />
      </clipPath>
      <clipPath clipPathUnits="userSpaceOnUse" id="clipPath7">
        <path d="M394 171 L538 171 L538 187 L394 187 L394 171 Z" />
      </clipPath>
      <clipPath clipPathUnits="userSpaceOnUse" id="clipPath8">
        <path d="M394 185 L548 185 L548 201 L394 201 L394 185 Z" />
      </clipPath>
      <clipPath clipPathUnits="userSpaceOnUse" id="clipPath9">
        <path d="M394 199 L558 199 L558 215 L394 215 L394 199 Z" />
      </clipPath>
      <clipPath clipPathUnits="userSpaceOnUse" id="clipPath10">
        <path d="M394 213 L677 213 L677 229 L394 229 L394 213 Z" />
      </clipPath>
      <clipPath clipPathUnits="userSpaceOnUse" id="clipPath11">
        <path d="M394 227 L598 227 L598 243 L394 243 L394 227 Z" />
      </clipPath>
      <clipPath clipPathUnits="userSpaceOnUse" id="clipPath12">
        <path d="M394 241 L525 241 L525 257 L394 257 L394 241 Z" />
      </clipPath>
      <clipPath clipPathUnits="userSpaceOnUse" id="clipPath13">
        <path d="M394 255 L592 255 L592 271 L394 271 L394 255 Z" />
      </clipPath>
      <clipPath clipPathUnits="userSpaceOnUse" id="clipPath14">
        <path d="M394 269 L516 269 L516 285 L394 285 L394 269 Z" />
      </clipPath>
      <clipPath clipPathUnits="userSpaceOnUse" id="clipPath15">
        <path d="M394 283 L513 283 L513 299 L394 299 L394 283 Z" />
      </clipPath>
      <clipPath clipPathUnits="userSpaceOnUse" id="clipPath16">
        <path d="M394 297 L509 297 L509 313 L394 313 L394 297 Z" />
      </clipPath>
      <clipPath clipPathUnits="userSpaceOnUse" id="clipPath17">
        <path d="M394 311 L515 311 L515 327 L394 327 L394 311 Z" />
      </clipPath>
      <clipPath clipPathUnits="userSpaceOnUse" id="clipPath18">
        <path d="M394 325 L512 325 L512 341 L394 341 L394 325 Z" />
      </clipPath>
      <clipPath clipPathUnits="userSpaceOnUse" id="clipPath19">
        <path d="M394 339 L628 339 L628 355 L394 355 L394 339 Z" />
      </clipPath>
      <clipPath clipPathUnits="userSpaceOnUse" id="clipPath20">
        <path d="M394 353 L589 353 L589 369 L394 369 L394 353 Z" />
      </clipPath>
      <clipPath clipPathUnits="userSpaceOnUse" id="clipPath21">
        <path d="M394 367 L586 367 L586 383 L394 383 L394 367 Z" />
      </clipPath>
      <clipPath clipPathUnits="userSpaceOnUse" id="clipPath22">
        <path d="M394 381 L623 381 L623 397 L394 397 L394 381 Z" />
      </clipPath>
      <clipPath clipPathUnits="userSpaceOnUse" id="clipPath23">
        <path d="M454 4 L618 4 L618 50 L454 50 L454 4 Z" />
      </clipPath>
      <clipPath clipPathUnits="userSpaceOnUse" id="clipPath24">
        <path d="M487 5 L585 5 L585 21 L487 21 L487 5 Z" />
      </clipPath>
      <clipPath clipPathUnits="userSpaceOnUse" id="clipPath25">
        <path d="M485 19 L587 19 L587 36 L485 36 L485 19 Z" />
      </clipPath>
      <clipPath clipPathUnits="userSpaceOnUse" id="clipPath26">
        <path d="M456 34 L616 34 L616 48 L456 48 L456 34 Z" />
      </clipPath>
      <clipPath clipPathUnits="userSpaceOnUse" id="clipPath27">
        <path d="M454 48 L618 48 L618 53 L454 53 L454 48 Z" />
      </clipPath>
      <clipPath clipPathUnits="userSpaceOnUse" id="clipPath28">
        <path d="M454 51 L618 51 L618 70 L454 70 L454 51 Z" />
      </clipPath>
      <clipPath clipPathUnits="userSpaceOnUse" id="clipPath29">
        <path d="M456 52 L593 52 L593 68 L456 68 L456 52 Z" />
      </clipPath>
      <clipPath clipPathUnits="userSpaceOnUse" id="clipPath30">
        <path d="M714 122 L969 122 L969 168 L714 168 L714 122 Z" />
      </clipPath>
      <clipPath clipPathUnits="userSpaceOnUse" id="clipPath31">
        <path d="M792 123 L890 123 L890 139 L792 139 L792 123 Z" />
      </clipPath>
      <clipPath clipPathUnits="userSpaceOnUse" id="clipPath32">
        <path d="M769 137 L914 137 L914 154 L769 154 L769 137 Z" />
      </clipPath>
      <clipPath clipPathUnits="userSpaceOnUse" id="clipPath33">
        <path d="M761 152 L921 152 L921 166 L761 166 L761 152 Z" />
      </clipPath>
      <clipPath clipPathUnits="userSpaceOnUse" id="clipPath34">
        <path d="M714 166 L969 166 L969 171 L714 171 L714 166 Z" />
      </clipPath>
      <clipPath clipPathUnits="userSpaceOnUse" id="clipPath35">
        <path d="M714 169 L969 169 L969 202 L714 202 L714 169 Z" />
      </clipPath>
      <clipPath clipPathUnits="userSpaceOnUse" id="clipPath36">
        <path d="M716 170 L890 170 L890 186 L716 186 L716 170 Z" />
      </clipPath>
      <clipPath clipPathUnits="userSpaceOnUse" id="clipPath37">
        <path d="M716 184 L967 184 L967 200 L716 200 L716 184 Z" />
      </clipPath>
      <clipPath clipPathUnits="userSpaceOnUse" id="clipPath38">
        <path d="M4 111 L339 111 L339 157 L4 157 L4 111 Z" />
      </clipPath>
      <clipPath clipPathUnits="userSpaceOnUse" id="clipPath39">
        <path d="M122 112 L220 112 L220 128 L122 128 L122 112 Z" />
      </clipPath>
      <clipPath clipPathUnits="userSpaceOnUse" id="clipPath40">
        <path d="M94 126 L248 126 L248 143 L94 143 L94 126 Z" />
      </clipPath>
      <clipPath clipPathUnits="userSpaceOnUse" id="clipPath41">
        <path d="M91 141 L251 141 L251 155 L91 155 L91 141 Z" />
      </clipPath>
      <clipPath clipPathUnits="userSpaceOnUse" id="clipPath42">
        <path d="M4 155 L339 155 L339 160 L4 160 L4 155 Z" />
      </clipPath>
      <clipPath clipPathUnits="userSpaceOnUse" id="clipPath43">
        <path d="M4 158 L339 158 L339 387 L4 387 L4 158 Z" />
      </clipPath>
      <clipPath clipPathUnits="userSpaceOnUse" id="clipPath44">
        <path d="M6 159 L237 159 L237 175 L6 175 L6 159 Z" />
      </clipPath>
      <clipPath clipPathUnits="userSpaceOnUse" id="clipPath45">
        <path d="M6 173 L337 173 L337 189 L6 189 L6 173 Z" />
      </clipPath>
      <clipPath clipPathUnits="userSpaceOnUse" id="clipPath46">
        <path d="M6 187 L293 187 L293 203 L6 203 L6 187 Z" />
      </clipPath>
      <clipPath clipPathUnits="userSpaceOnUse" id="clipPath47">
        <path d="M6 201 L194 201 L194 217 L6 217 L6 201 Z" />
      </clipPath>
      <clipPath clipPathUnits="userSpaceOnUse" id="clipPath48">
        <path d="M6 215 L258 215 L258 231 L6 231 L6 215 Z" />
      </clipPath>
      <clipPath clipPathUnits="userSpaceOnUse" id="clipPath49">
        <path d="M6 229 L294 229 L294 245 L6 245 L6 229 Z" />
      </clipPath>
      <clipPath clipPathUnits="userSpaceOnUse" id="clipPath50">
        <path d="M6 243 L202 243 L202 259 L6 259 L6 243 Z" />
      </clipPath>
      <clipPath clipPathUnits="userSpaceOnUse" id="clipPath51">
        <path d="M6 257 L199 257 L199 273 L6 273 L6 257 Z" />
      </clipPath>
      <clipPath clipPathUnits="userSpaceOnUse" id="clipPath52">
        <path d="M6 271 L233 271 L233 287 L6 287 L6 271 Z" />
      </clipPath>
      <clipPath clipPathUnits="userSpaceOnUse" id="clipPath53">
        <path d="M6 285 L253 285 L253 301 L6 301 L6 285 Z" />
      </clipPath>
      <clipPath clipPathUnits="userSpaceOnUse" id="clipPath54">
        <path d="M6 299 L155 299 L155 315 L6 315 L6 299 Z" />
      </clipPath>
      <clipPath clipPathUnits="userSpaceOnUse" id="clipPath55">
        <path d="M6 313 L226 313 L226 329 L6 329 L6 313 Z" />
      </clipPath>
      <clipPath clipPathUnits="userSpaceOnUse" id="clipPath56">
        <path d="M6 327 L125 327 L125 343 L6 343 L6 327 Z" />
      </clipPath>
      <clipPath clipPathUnits="userSpaceOnUse" id="clipPath57">
        <path d="M6 341 L103 341 L103 357 L6 357 L6 341 Z" />
      </clipPath>
      <clipPath clipPathUnits="userSpaceOnUse" id="clipPath58">
        <path d="M6 355 L149 355 L149 371 L6 371 L6 355 Z" />
      </clipPath>
      <clipPath clipPathUnits="userSpaceOnUse" id="clipPath59">
        <path d="M6 369 L216 369 L216 385 L6 385 L6 369 Z" />
      </clipPath>
      <clipPath clipPathUnits="userSpaceOnUse" id="clipPath60">
        <path d="M123 451 L287 451 L287 497 L123 497 L123 451 Z" />
      </clipPath>
      <clipPath clipPathUnits="userSpaceOnUse" id="clipPath61">
        <path d="M156 452 L254 452 L254 468 L156 468 L156 452 Z" />
      </clipPath>
      <clipPath clipPathUnits="userSpaceOnUse" id="clipPath62">
        <path d="M128 466 L282 466 L282 483 L128 483 L128 466 Z" />
      </clipPath>
      <clipPath clipPathUnits="userSpaceOnUse" id="clipPath63">
        <path d="M125 481 L285 481 L285 495 L125 495 L125 481 Z" />
      </clipPath>
      <clipPath clipPathUnits="userSpaceOnUse" id="clipPath64">
        <path d="M123 495 L287 495 L287 500 L123 500 L123 495 Z" />
      </clipPath>
      <clipPath clipPathUnits="userSpaceOnUse" id="clipPath65">
        <path d="M123 498 L287 498 L287 517 L123 517 L123 498 Z" />
      </clipPath>
      <clipPath clipPathUnits="userSpaceOnUse" id="clipPath66">
        <path d="M125 499 L258 499 L258 515 L125 515 L125 499 Z" />
      </clipPath>
      <clipPath clipPathUnits="userSpaceOnUse" id="clipPath67">
        <path d="M371 451 L701 451 L701 497 L371 497 L371 451 Z" />
      </clipPath>
      <clipPath clipPathUnits="userSpaceOnUse" id="clipPath68">
        <path d="M487 452 L585 452 L585 468 L487 468 L487 452 Z" />
      </clipPath>
      <clipPath clipPathUnits="userSpaceOnUse" id="clipPath69">
        <path d="M432 466 L640 466 L640 483 L432 483 L432 466 Z" />
      </clipPath>
      <clipPath clipPathUnits="userSpaceOnUse" id="clipPath70">
        <path d="M456 481 L616 481 L616 495 L456 495 L456 481 Z" />
      </clipPath>
      <clipPath clipPathUnits="userSpaceOnUse" id="clipPath71">
        <path d="M371 495 L701 495 L701 500 L371 500 L371 495 Z" />
      </clipPath>
      <clipPath clipPathUnits="userSpaceOnUse" id="clipPath72">
        <path d="M371 498 L701 498 L701 545 L371 545 L371 498 Z" />
      </clipPath>
      <clipPath clipPathUnits="userSpaceOnUse" id="clipPath73">
        <path d="M373 499 L679 499 L679 515 L373 515 L373 499 Z" />
      </clipPath>
      <clipPath clipPathUnits="userSpaceOnUse" id="clipPath74">
        <path d="M373 513 L502 513 L502 529 L373 529 L373 513 Z" />
      </clipPath>
      <clipPath clipPathUnits="userSpaceOnUse" id="clipPath75">
        <path d="M373 527 L699 527 L699 543 L373 543 L373 527 Z" />
      </clipPath>
      <clipPath clipPathUnits="userSpaceOnUse" id="clipPath76">
        <path d="M258 588 L533 588 L533 634 L258 634 L258 588 Z" />
      </clipPath>
      <clipPath clipPathUnits="userSpaceOnUse" id="clipPath77">
        <path d="M346 589 L444 589 L444 605 L346 605 L346 589 Z" />
      </clipPath>
      <clipPath clipPathUnits="userSpaceOnUse" id="clipPath78">
        <path d="M297 603 L494 603 L494 620 L297 620 L297 603 Z" />
      </clipPath>
      <clipPath clipPathUnits="userSpaceOnUse" id="clipPath79">
        <path d="M315 618 L475 618 L475 632 L315 632 L315 618 Z" />
      </clipPath>
      <clipPath clipPathUnits="userSpaceOnUse" id="clipPath80">
        <path d="M258 632 L533 632 L533 637 L258 637 L258 632 Z" />
      </clipPath>
      <clipPath clipPathUnits="userSpaceOnUse" id="clipPath81">
        <path d="M258 635 L533 635 L533 668 L258 668 L258 635 Z" />
      </clipPath>
      <clipPath clipPathUnits="userSpaceOnUse" id="clipPath82">
        <path d="M260 636 L485 636 L485 652 L260 652 L260 636 Z" />
      </clipPath>
      <clipPath clipPathUnits="userSpaceOnUse" id="clipPath83">
        <path d="M260 650 L531 650 L531 666 L260 666 L260 650 Z" />
      </clipPath>
      <clipPath clipPathUnits="userSpaceOnUse" id="clipPath84">
        <path d="M564 588 L849 588 L849 634 L564 634 L564 588 Z" />
      </clipPath>
      <clipPath clipPathUnits="userSpaceOnUse" id="clipPath85">
        <path d="M657 589 L755 589 L755 605 L657 605 L657 589 Z" />
      </clipPath>
      <clipPath clipPathUnits="userSpaceOnUse" id="clipPath86">
        <path d="M609 603 L803 603 L803 620 L609 620 L609 603 Z" />
      </clipPath>
      <clipPath clipPathUnits="userSpaceOnUse" id="clipPath87">
        <path d="M626 618 L786 618 L786 632 L626 632 L626 618 Z" />
      </clipPath>
      <clipPath clipPathUnits="userSpaceOnUse" id="clipPath88">
        <path d="M564 632 L849 632 L849 637 L564 637 L564 632 Z" />
      </clipPath>
      <clipPath clipPathUnits="userSpaceOnUse" id="clipPath89">
        <path d="M564 635 L849 635 L849 738 L564 738 L564 635 Z" />
      </clipPath>
      <clipPath clipPathUnits="userSpaceOnUse" id="clipPath90">
        <path d="M566 636 L754 636 L754 652 L566 652 L566 636 Z" />
      </clipPath>
      <clipPath clipPathUnits="userSpaceOnUse" id="clipPath91">
        <path d="M566 650 L829 650 L829 666 L566 666 L566 650 Z" />
      </clipPath>
      <clipPath clipPathUnits="userSpaceOnUse" id="clipPath92">
        <path d="M566 664 L701 664 L701 680 L566 680 L566 664 Z" />
      </clipPath>
      <clipPath clipPathUnits="userSpaceOnUse" id="clipPath93">
        <path d="M566 678 L834 678 L834 694 L566 694 L566 678 Z" />
      </clipPath>
      <clipPath clipPathUnits="userSpaceOnUse" id="clipPath94">
        <path d="M566 692 L847 692 L847 708 L566 708 L566 692 Z" />
      </clipPath>
      <clipPath clipPathUnits="userSpaceOnUse" id="clipPath95">
        <path d="M566 706 L829 706 L829 722 L566 722 L566 706 Z" />
      </clipPath>
      <clipPath clipPathUnits="userSpaceOnUse" id="clipPath96">
        <path d="M566 720 L842 720 L842 736 L566 736 L566 720 Z" />
      </clipPath>
      <clipPath clipPathUnits="userSpaceOnUse" id="clipPath97">
        <path d="M530 68 L543 68 L543 126 L530 126 L530 68 Z" />
      </clipPath>
      <clipPath clipPathUnits="userSpaceOnUse" id="clipPath98">
        <path d="M530 68 L543 68 L543 85 L530 85 L530 68 Z" />
      </clipPath>
      <clipPath clipPathUnits="userSpaceOnUse" id="clipPath99">
        <path d="M251 356 L395 356 L395 454 L251 454 L251 356 Z" />
      </clipPath>
      <clipPath clipPathUnits="userSpaceOnUse" id="clipPath100">
        <path d="M378 356 L395 356 L395 371 L378 371 L378 356 Z" />
      </clipPath>
      <clipPath clipPathUnits="userSpaceOnUse" id="clipPath101">
        <path d="M530 397 L543 397 L543 454 L530 454 L530 397 Z" />
      </clipPath>
      <clipPath clipPathUnits="userSpaceOnUse" id="clipPath102">
        <path d="M530 397 L543 397 L543 414 L530 414 L530 397 Z" />
      </clipPath>
      <clipPath clipPathUnits="userSpaceOnUse" id="clipPath103">
        <path d="M616 50 L843 50 L843 125 L616 125 L616 50 Z" />
      </clipPath>
      <clipPath clipPathUnits="userSpaceOnUse" id="clipPath104">
        <path d="M616 50 L634 50 L634 63 L616 63 L616 50 Z" />
      </clipPath>
      <clipPath clipPathUnits="userSpaceOnUse" id="clipPath105">
        <path d="M171 48 L457 48 L457 114 L171 114 L171 48 Z" />
      </clipPath>
      <clipPath clipPathUnits="userSpaceOnUse" id="clipPath106">
        <path d="M439 48 L457 48 L457 60 L439 60 L439 48 Z" />
      </clipPath>
      <clipPath clipPathUnits="userSpaceOnUse" id="clipPath107">
        <path d="M437 543 L488 543 L488 591 L437 591 L437 543 Z" />
      </clipPath>
      <clipPath clipPathUnits="userSpaceOnUse" id="clipPath108">
        <path d="M471 543 L488 543 L488 559 L471 559 L471 543 Z" />
      </clipPath>
      <clipPath clipPathUnits="userSpaceOnUse" id="clipPath109">
        <path d="M582 543 L632 543 L632 591 L582 591 L582 543 Z" />
      </clipPath>
      <clipPath clipPathUnits="userSpaceOnUse" id="clipPath110">
        <path d="M582 543 L599 543 L599 559 L582 559 L582 543 Z" />
      </clipPath>
    </defs>
    <g font-size="11" fill="white" font-family="&apos;Tahoma&apos;" stroke-linejoin="round" stroke="white" stroke-miterlimit="0">
      <rect width="973" x="0" height="742" y="0" stroke="none" />
      <rect x="393" y="124" clip-path="url(#clipPath1)" width="285" height="44" stroke="none" />
      <rect x="393" y="124" clip-path="url(#clipPath1)" fill="none" width="285" height="44" stroke="black" />
      <text x="489" y="136" clip-path="url(#clipPath2)" fill="black" font-family="&apos;Arial&apos;" stroke="none" xml:space="preserve">&lt;&lt;Java Interface&gt;&gt;</text>
    </g>
    <g stroke-miterlimit="0" font-weight="bold" font-family="&apos;Arial&apos;" stroke-linejoin="round">
      <text xml:space="preserve" x="480" y="151" clip-path="url(#clipPath3)" stroke="none">IPropertyDescriptor</text>
      <text font-size="9" x="458" y="163" clip-path="url(#clipPath4)" stroke="none" font-weight="normal" xml:space="preserve">com.d2s.framework.model.descriptor</text>
    </g>
    <g font-size="11" fill="white" font-family="&apos;Tahoma&apos;" stroke-linejoin="round" stroke="white" stroke-miterlimit="0">
      <rect x="393" y="168" clip-path="url(#clipPath5)" width="285" height="3" stroke="none" />
      <rect x="393" y="167" clip-path="url(#clipPath5)" fill="none" width="285" height="4" stroke="black" />
      <rect x="393" y="171" clip-path="url(#clipPath6)" width="285" height="227" stroke="none" />
      <rect x="393" y="170" clip-path="url(#clipPath6)" fill="none" width="285" height="228" stroke="black" />
      <text x="397" y="183" clip-path="url(#clipPath7)" fill="black" font-family="&apos;Arial&apos;" stroke="none" xml:space="preserve">+clone(): IPropertyDescriptor</text>
      <text x="397" y="197" clip-path="url(#clipPath8)" fill="black" font-family="&apos;Arial&apos;" stroke="none" xml:space="preserve">+getDelegateClass(): Class&lt;?&gt;</text>
      <text x="397" y="211" clip-path="url(#clipPath9)" fill="black" font-family="&apos;Arial&apos;" stroke="none" xml:space="preserve">+getDelegateClassName(): String</text>
      <text x="397" y="225" clip-path="url(#clipPath10)" fill="black" font-family="&apos;Arial&apos;" stroke="none" xml:space="preserve">+getIntegrityProcessors(): List&lt;IPropertyProcessor&lt;?,?&gt;&gt;</text>
      <text x="397" y="239" clip-path="url(#clipPath11)" fill="black" font-family="&apos;Arial&apos;" stroke="none" xml:space="preserve">+getReadabilityGates(): Collection&lt;IGate&gt;</text>
      <text x="397" y="253" clip-path="url(#clipPath12)" fill="black" font-family="&apos;Arial&apos;" stroke="none" xml:space="preserve">+getUnicityScope(): String</text>
      <text x="397" y="267" clip-path="url(#clipPath13)" fill="black" font-family="&apos;Arial&apos;" stroke="none" xml:space="preserve">+getWritabilityGates(): Collection&lt;IGate&gt;</text>
      <text x="397" y="281" clip-path="url(#clipPath14)" fill="black" font-family="&apos;Arial&apos;" stroke="none" xml:space="preserve">+isMandatory(): boolean</text>
      <text x="397" y="295" clip-path="url(#clipPath15)" fill="black" font-family="&apos;Arial&apos;" stroke="none" xml:space="preserve">+isModifiable(): boolean</text>
      <text x="397" y="309" clip-path="url(#clipPath16)" fill="black" font-family="&apos;Arial&apos;" stroke="none" xml:space="preserve">+isOverload(): boolean</text>
      <text x="397" y="323" clip-path="url(#clipPath17)" fill="black" font-family="&apos;Arial&apos;" stroke="none" xml:space="preserve">+isQueryable(): boolean</text>
      <text x="397" y="337" clip-path="url(#clipPath18)" fill="black" font-family="&apos;Arial&apos;" stroke="none" xml:space="preserve">+isReadOnly(): boolean</text>
      <text x="397" y="351" clip-path="url(#clipPath19)" fill="black" font-family="&apos;Arial&apos;" stroke="none" xml:space="preserve">+postprocessSetter(Object,Object,Object): void</text>
      <text x="397" y="365" clip-path="url(#clipPath20)" fill="black" font-family="&apos;Arial&apos;" stroke="none" xml:space="preserve">+preprocessSetter(Object,Object): void</text>
      <text x="397" y="379" clip-path="url(#clipPath21)" fill="black" font-family="&apos;Arial&apos;" stroke="none" xml:space="preserve">+interceptSetter(Object,Object): Object</text>
      <text x="397" y="393" clip-path="url(#clipPath22)" fill="black" font-family="&apos;Arial&apos;" stroke="none" xml:space="preserve">+createQueryDescriptor(): IPropertyDescriptor</text>
      <rect x="455" y="5" clip-path="url(#clipPath23)" width="162" height="44" stroke="none" />
      <rect x="455" y="5" clip-path="url(#clipPath23)" fill="none" width="162" height="44" stroke="black" />
      <text x="490" y="17" clip-path="url(#clipPath24)" fill="black" font-family="&apos;Arial&apos;" stroke="none" xml:space="preserve">&lt;&lt;Java Interface&gt;&gt;</text>
    </g>
    <g stroke-miterlimit="0" font-weight="bold" font-family="&apos;Arial&apos;" stroke-linejoin="round">
      <text xml:space="preserve" x="488" y="32" clip-path="url(#clipPath25)" stroke="none">IModelDescriptor</text>
      <text font-size="9" x="459" y="44" clip-path="url(#clipPath26)" stroke="none" font-weight="normal" xml:space="preserve">com.d2s.framework.model.descriptor</text>
    </g>
    <g font-size="11" fill="white" font-family="&apos;Tahoma&apos;" stroke-linejoin="round" stroke="white" stroke-miterlimit="0">
      <rect x="455" y="49" clip-path="url(#clipPath27)" width="162" height="3" stroke="none" />
      <rect x="455" y="48" clip-path="url(#clipPath27)" fill="none" width="162" height="4" stroke="black" />
      <rect x="455" y="52" clip-path="url(#clipPath28)" width="162" height="17" stroke="none" />
      <rect x="455" y="51" clip-path="url(#clipPath28)" fill="none" width="162" height="18" stroke="black" />
      <text x="459" y="64" clip-path="url(#clipPath29)" fill="black" font-family="&apos;Arial&apos;" stroke="none" xml:space="preserve">+getModelType(): Class&lt;?&gt;</text>
      <rect x="715" y="123" clip-path="url(#clipPath30)" width="253" height="44" stroke="none" />
      <rect x="715" y="123" clip-path="url(#clipPath30)" fill="none" width="253" height="44" stroke="black" />
      <text x="795" y="135" clip-path="url(#clipPath31)" fill="black" font-family="&apos;Arial&apos;" stroke="none" xml:space="preserve">&lt;&lt;Java Interface&gt;&gt;</text>
    </g>
    <g stroke-miterlimit="0" font-weight="bold" font-family="&apos;Arial&apos;" stroke-linejoin="round">
      <text xml:space="preserve" x="772" y="150" clip-path="url(#clipPath32)" stroke="none">ICollectionDescriptor&lt;E&gt;</text>
      <text font-size="9" x="764" y="162" clip-path="url(#clipPath33)" stroke="none" font-weight="normal" xml:space="preserve">com.d2s.framework.model.descriptor</text>
    </g>
    <g font-size="11" fill="white" font-family="&apos;Tahoma&apos;" stroke-linejoin="round" stroke="white" stroke-miterlimit="0">
      <rect x="715" y="167" clip-path="url(#clipPath34)" width="253" height="3" stroke="none" />
      <rect x="715" y="166" clip-path="url(#clipPath34)" fill="none" width="253" height="4" stroke="black" />
      <rect x="715" y="170" clip-path="url(#clipPath35)" width="253" height="31" stroke="none" />
      <rect x="715" y="169" clip-path="url(#clipPath35)" fill="none" width="253" height="32" stroke="black" />
      <text x="719" y="182" clip-path="url(#clipPath36)" fill="black" font-family="&apos;Arial&apos;" stroke="none" xml:space="preserve">+getCollectionInterface(): Class&lt;?&gt;</text>
      <text x="719" y="196" clip-path="url(#clipPath37)" fill="black" font-family="&apos;Arial&apos;" stroke="none" xml:space="preserve">+getElementDescriptor(): IComponentDescriptor&lt;E&gt;</text>
      <rect x="5" y="112" clip-path="url(#clipPath38)" width="333" height="44" stroke="none" />
      <rect x="5" y="112" clip-path="url(#clipPath38)" fill="none" width="333" height="44" stroke="black" />
      <text x="125" y="124" clip-path="url(#clipPath39)" fill="black" font-family="&apos;Arial&apos;" stroke="none" xml:space="preserve">&lt;&lt;Java Interface&gt;&gt;</text>
    </g>
    <g stroke-miterlimit="0" font-weight="bold" font-family="&apos;Arial&apos;" stroke-linejoin="round">
      <text xml:space="preserve" x="97" y="139" clip-path="url(#clipPath40)" stroke="none">IComponentDescriptor&lt;E&gt;</text>
      <text font-size="9" x="94" y="151" clip-path="url(#clipPath41)" stroke="none" font-weight="normal" xml:space="preserve">com.d2s.framework.model.descriptor</text>
    </g>
    <g font-size="11" fill="white" font-family="&apos;Tahoma&apos;" stroke-linejoin="round" stroke="white" stroke-miterlimit="0">
      <rect x="5" y="156" clip-path="url(#clipPath42)" width="333" height="3" stroke="none" />
      <rect x="5" y="155" clip-path="url(#clipPath42)" fill="none" width="333" height="4" stroke="black" />
      <rect x="5" y="159" clip-path="url(#clipPath43)" width="333" height="227" stroke="none" />
      <rect x="5" y="158" clip-path="url(#clipPath43)" fill="none" width="333" height="228" stroke="black" />
      <text x="9" y="171" clip-path="url(#clipPath44)" fill="black" font-family="&apos;Arial&apos;" stroke="none" xml:space="preserve">+getComponentContract(): Class&lt;? extends E&gt;</text>
      <text x="9" y="185" clip-path="url(#clipPath45)" fill="black" font-family="&apos;Arial&apos;" stroke="none" xml:space="preserve">+getDeclaredPropertyDescriptors(): Collection&lt;IPropertyDescriptor&gt;</text>
      <text x="9" y="199" clip-path="url(#clipPath46)" fill="black" font-family="&apos;Arial&apos;" stroke="none" xml:space="preserve">+getLifecycleInterceptors(): List&lt;ILifecycleInterceptor&lt;?&gt;&gt;</text>
      <text x="9" y="213" clip-path="url(#clipPath47)" fill="black" font-family="&apos;Arial&apos;" stroke="none" xml:space="preserve">+getOrderingProperties(): List&lt;String&gt;</text>
      <text x="9" y="227" clip-path="url(#clipPath48)" fill="black" font-family="&apos;Arial&apos;" stroke="none" xml:space="preserve">+getPropertyDescriptor(String): IPropertyDescriptor</text>
      <text x="9" y="241" clip-path="url(#clipPath49)" fill="black" font-family="&apos;Arial&apos;" stroke="none" xml:space="preserve">+getPropertyDescriptors(): Collection&lt;IPropertyDescriptor&gt;</text>
      <text x="9" y="255" clip-path="url(#clipPath50)" fill="black" font-family="&apos;Arial&apos;" stroke="none" xml:space="preserve">+getQueryableProperties(): List&lt;String&gt;</text>
      <text x="9" y="269" clip-path="url(#clipPath51)" fill="black" font-family="&apos;Arial&apos;" stroke="none" xml:space="preserve">+getRenderedProperties(): List&lt;String&gt;</text>
      <text x="9" y="283" clip-path="url(#clipPath52)" fill="black" font-family="&apos;Arial&apos;" stroke="none" xml:space="preserve">+getServiceContracts(): Collection&lt;Class&lt;?&gt;&gt;</text>
      <text x="9" y="297" clip-path="url(#clipPath53)" fill="black" font-family="&apos;Arial&apos;" stroke="none" xml:space="preserve">+getServiceDelegate(Method): IComponentService</text>
      <text x="9" y="311" clip-path="url(#clipPath54)" fill="black" font-family="&apos;Arial&apos;" stroke="none" xml:space="preserve">+getToStringProperty(): String</text>
      <text x="9" y="325" clip-path="url(#clipPath55)" fill="black" font-family="&apos;Arial&apos;" stroke="none" xml:space="preserve">+getUnclonedProperties(): Collection&lt;String&gt;</text>
      <text x="9" y="339" clip-path="url(#clipPath56)" fill="black" font-family="&apos;Arial&apos;" stroke="none" xml:space="preserve">+isComputed(): boolean</text>
      <text x="9" y="353" clip-path="url(#clipPath57)" fill="black" font-family="&apos;Arial&apos;" stroke="none" xml:space="preserve">+isEntity(): boolean</text>
      <text x="9" y="367" clip-path="url(#clipPath58)" fill="black" font-family="&apos;Arial&apos;" stroke="none" xml:space="preserve">+isPurelyAbstract(): boolean</text>
      <text x="9" y="381" clip-path="url(#clipPath59)" fill="black" font-family="&apos;Arial&apos;" stroke="none" xml:space="preserve">+getQueryComponentContract(): Class&lt;?&gt;</text>
      <rect x="124" y="452" clip-path="url(#clipPath60)" width="162" height="44" stroke="none" />
      <rect x="124" y="452" clip-path="url(#clipPath60)" fill="none" width="162" height="44" stroke="black" />
      <text x="159" y="464" clip-path="url(#clipPath61)" fill="black" font-family="&apos;Arial&apos;" stroke="none" xml:space="preserve">&lt;&lt;Java Interface&gt;&gt;</text>
    </g>
    <g stroke-miterlimit="0" font-weight="bold" font-family="&apos;Arial&apos;" stroke-linejoin="round">
      <text xml:space="preserve" x="131" y="479" clip-path="url(#clipPath62)" stroke="none">IScalarPropertyDescriptor</text>
      <text font-size="9" x="128" y="491" clip-path="url(#clipPath63)" stroke="none" font-weight="normal" xml:space="preserve">com.d2s.framework.model.descriptor</text>
    </g>
    <g font-size="11" fill="white" font-family="&apos;Tahoma&apos;" stroke-linejoin="round" stroke="white" stroke-miterlimit="0">
      <rect x="124" y="496" clip-path="url(#clipPath64)" width="162" height="3" stroke="none" />
      <rect x="124" y="495" clip-path="url(#clipPath64)" fill="none" width="162" height="4" stroke="black" />
      <rect x="124" y="499" clip-path="url(#clipPath65)" width="162" height="17" stroke="none" />
      <rect x="124" y="498" clip-path="url(#clipPath65)" fill="none" width="162" height="18" stroke="black" />
      <text x="128" y="511" clip-path="url(#clipPath66)" fill="black" font-family="&apos;Arial&apos;" stroke="none" xml:space="preserve">+getDefaultValue(): Object</text>
      <rect x="372" y="452" clip-path="url(#clipPath67)" width="328" height="44" stroke="none" />
      <rect x="372" y="452" clip-path="url(#clipPath67)" fill="none" width="328" height="44" stroke="black" />
      <text x="490" y="464" clip-path="url(#clipPath68)" fill="black" font-family="&apos;Arial&apos;" stroke="none" xml:space="preserve">&lt;&lt;Java Interface&gt;&gt;</text>
    </g>
    <g stroke-miterlimit="0" font-weight="bold" font-family="&apos;Arial&apos;" stroke-linejoin="round">
      <text xml:space="preserve" x="435" y="479" clip-path="url(#clipPath69)" stroke="none">IRelationshipEndPropertyDescriptor</text>
      <text font-size="9" x="459" y="491" clip-path="url(#clipPath70)" stroke="none" font-weight="normal" xml:space="preserve">com.d2s.framework.model.descriptor</text>
    </g>
    <g font-size="11" fill="white" font-family="&apos;Tahoma&apos;" stroke-linejoin="round" stroke="white" stroke-miterlimit="0">
      <rect x="372" y="496" clip-path="url(#clipPath71)" width="328" height="3" stroke="none" />
      <rect x="372" y="495" clip-path="url(#clipPath71)" fill="none" width="328" height="4" stroke="black" />
      <rect x="372" y="499" clip-path="url(#clipPath72)" width="328" height="45" stroke="none" />
      <rect x="372" y="498" clip-path="url(#clipPath72)" fill="none" width="328" height="46" stroke="black" />
      <text x="376" y="511" clip-path="url(#clipPath73)" fill="black" font-family="&apos;Arial&apos;" stroke="none" xml:space="preserve">+getReverseRelationEnd(): IRelationshipEndPropertyDescriptor</text>
      <text x="376" y="525" clip-path="url(#clipPath74)" fill="black" font-family="&apos;Arial&apos;" stroke="none" xml:space="preserve">+isComposition(): boolean</text>
      <text x="376" y="539" clip-path="url(#clipPath75)" fill="black" font-family="&apos;Arial&apos;" stroke="none" xml:space="preserve">+setReverseRelationEnd(IRelationshipEndPropertyDescriptor): void</text>
      <rect x="259" y="589" clip-path="url(#clipPath76)" width="273" height="44" stroke="none" />
      <rect x="259" y="589" clip-path="url(#clipPath76)" fill="none" width="273" height="44" stroke="black" />
      <text x="349" y="601" clip-path="url(#clipPath77)" fill="black" font-family="&apos;Arial&apos;" stroke="none" xml:space="preserve">&lt;&lt;Java Interface&gt;&gt;</text>
    </g>
    <g stroke-miterlimit="0" font-weight="bold" font-family="&apos;Arial&apos;" stroke-linejoin="round">
      <text xml:space="preserve" x="300" y="616" clip-path="url(#clipPath78)" stroke="none">IReferencePropertyDescriptor&lt;E&gt;</text>
      <text font-size="9" x="318" y="628" clip-path="url(#clipPath79)" stroke="none" font-weight="normal" xml:space="preserve">com.d2s.framework.model.descriptor</text>
    </g>
    <g font-size="11" fill="white" font-family="&apos;Tahoma&apos;" stroke-linejoin="round" stroke="white" stroke-miterlimit="0">
      <rect x="259" y="633" clip-path="url(#clipPath80)" width="273" height="3" stroke="none" />
      <rect x="259" y="632" clip-path="url(#clipPath80)" fill="none" width="273" height="4" stroke="black" />
      <rect x="259" y="636" clip-path="url(#clipPath81)" width="273" height="31" stroke="none" />
      <rect x="259" y="635" clip-path="url(#clipPath81)" fill="none" width="273" height="32" stroke="black" />
      <text x="263" y="648" clip-path="url(#clipPath82)" fill="black" font-family="&apos;Arial&apos;" stroke="none" xml:space="preserve">+getInitializationMapping(): Map&lt;String,String&gt;</text>
      <text x="263" y="662" clip-path="url(#clipPath83)" fill="black" font-family="&apos;Arial&apos;" stroke="none" xml:space="preserve">+getReferencedDescriptor(): IComponentDescriptor&lt;E&gt;</text>
      <rect x="565" y="589" clip-path="url(#clipPath84)" width="283" height="44" stroke="none" />
      <rect x="565" y="589" clip-path="url(#clipPath84)" fill="none" width="283" height="44" stroke="black" />
      <text x="660" y="601" clip-path="url(#clipPath85)" fill="black" font-family="&apos;Arial&apos;" stroke="none" xml:space="preserve">&lt;&lt;Java Interface&gt;&gt;</text>
    </g>
    <g stroke-miterlimit="0" font-weight="bold" font-family="&apos;Arial&apos;" stroke-linejoin="round">
      <text xml:space="preserve" x="612" y="616" clip-path="url(#clipPath86)" stroke="none">ICollectionPropertyDescriptor&lt;E&gt;</text>
      <text font-size="9" x="629" y="628" clip-path="url(#clipPath87)" stroke="none" font-weight="normal" xml:space="preserve">com.d2s.framework.model.descriptor</text>
    </g>
    <g font-size="11" fill="white" font-family="&apos;Tahoma&apos;" stroke-linejoin="round" stroke="white" stroke-miterlimit="0">
      <rect x="565" y="633" clip-path="url(#clipPath88)" width="283" height="3" stroke="none" />
      <rect x="565" y="632" clip-path="url(#clipPath88)" fill="none" width="283" height="4" stroke="black" />
      <rect x="565" y="636" clip-path="url(#clipPath89)" width="283" height="101" stroke="none" />
      <rect x="565" y="635" clip-path="url(#clipPath89)" fill="none" width="283" height="102" stroke="black" />
      <text x="569" y="648" clip-path="url(#clipPath90)" fill="black" font-family="&apos;Arial&apos;" stroke="none" xml:space="preserve">+getOrderingProperties(): List&lt;String&gt;</text>
      <text x="569" y="662" clip-path="url(#clipPath91)" fill="black" font-family="&apos;Arial&apos;" stroke="none" xml:space="preserve">+getReferencedDescriptor(): ICollectionDescriptor&lt;E&gt;</text>
      <text x="569" y="676" clip-path="url(#clipPath92)" fill="black" font-family="&apos;Arial&apos;" stroke="none" xml:space="preserve">+isManyToMany(): boolean</text>
      <text x="569" y="690" clip-path="url(#clipPath93)" fill="black" font-family="&apos;Arial&apos;" stroke="none" xml:space="preserve">+postprocessAdder(Object,Collection&lt;?&gt;,Object): void</text>
      <text x="569" y="704" clip-path="url(#clipPath94)" fill="black" font-family="&apos;Arial&apos;" stroke="none" xml:space="preserve">+postprocessRemover(Object,Collection&lt;?&gt;,Object): void</text>
      <text x="569" y="718" clip-path="url(#clipPath95)" fill="black" font-family="&apos;Arial&apos;" stroke="none" xml:space="preserve">+preprocessAdder(Object,Collection&lt;?&gt;,Object): void</text>
      <text x="569" y="732" clip-path="url(#clipPath96)" fill="black" font-family="&apos;Arial&apos;" stroke="none" xml:space="preserve">+preprocessRemover(Object,Collection&lt;?&gt;,Object): void</text>
      <line clip-path="url(#clipPath97)" fill="none" x1="536" x2="536" y1="124" y2="69" stroke="black" />
      <polygon clip-path="url(#clipPath98)" points=" 536 69 541 83 531 83" stroke="none" />
      <polygon fill="none" clip-path="url(#clipPath98)" points=" 536 69 541 83 531 83" stroke="black" />
      <line clip-path="url(#clipPath99)" fill="none" x1="252" x2="393" y1="452" y2="357" stroke="black" />
      <polygon clip-path="url(#clipPath100)" points=" 393 357 384 369 379 361" stroke="none" />
      <polygon fill="none" clip-path="url(#clipPath100)" points=" 393 357 384 369 379 361" stroke="black" />
      <line clip-path="url(#clipPath101)" fill="none" x1="536" x2="536" y1="452" y2="398" stroke="black" />
      <polygon clip-path="url(#clipPath102)" points=" 536 398 541 412 531 412" stroke="none" />
      <polygon fill="none" clip-path="url(#clipPath102)" points=" 536 398 541 412 531 412" stroke="black" />
      <line clip-path="url(#clipPath103)" fill="none" x1="841" x2="841" y1="123" y2="98" stroke="black" />
      <line clip-path="url(#clipPath103)" fill="none" x1="841" x2="617" y1="98" y2="53" stroke="black" />
      <polygon clip-path="url(#clipPath104)" points=" 617 53 632 51 630 61" stroke="none" />
      <polygon fill="none" clip-path="url(#clipPath104)" points=" 617 53 632 51 630 61" stroke="black" />
      <line clip-path="url(#clipPath105)" fill="none" x1="172" x2="172" y1="112" y2="102" stroke="black" />
      <line clip-path="url(#clipPath105)" fill="none" x1="172" x2="455" y1="102" y2="51" stroke="black" />
      <polygon clip-path="url(#clipPath106)" points=" 455 51 442 58 440 49" stroke="none" />
      <polygon fill="none" clip-path="url(#clipPath106)" points=" 455 51 442 58 440 49" stroke="black" />
      <line clip-path="url(#clipPath107)" fill="none" x1="438" x2="486" y1="589" y2="544" stroke="black" />
      <polygon clip-path="url(#clipPath108)" points=" 486 544 479 557 472 550" stroke="none" />
      <polygon fill="none" clip-path="url(#clipPath108)" points=" 486 544 479 557 472 550" stroke="black" />
      <line clip-path="url(#clipPath109)" fill="none" x1="630" x2="583" y1="589" y2="544" stroke="black" />
      <polygon clip-path="url(#clipPath110)" points=" 583 544 597 550 590 557" stroke="none" />
      <polygon fill="none" clip-path="url(#clipPath110)" points=" 583 544 597 550 590 557" stroke="black" />
    </g>
  </g>
</svg>
