<?xml version="1.0" encoding="UTF-8" standalone="no"?>
<!-- Created with Bouml (http://bouml.free.fr/) -->
<!DOCTYPE svg PUBLIC "-//W3C//DTD SVG 1.1//EN" "http://www.w3.org/Graphics/SVG/1.1/DTD/svg11.dtd">
<svg width="438" height="286" version="1.1" xmlns="http://www.w3.org/2000/svg">
<g>
	<line stroke-dasharray="4,4" stroke="black" stroke-opacity="1" x1="255" y1="161" x2="310" y2="97" />
	<line stroke="black" stroke-opacity="1" x1="314" y1="93" x2="305" y2="93" />
	<line stroke="black" stroke-opacity="1" x1="314" y1="93" x2="314" y2="101" />
	<line stroke="black" stroke-opacity="1" x1="305" y1="93" x2="314" y2="101" />
</g>
<g>
	<line stroke-dasharray="4,4" stroke="black" stroke-opacity="1" x1="218" y1="137" x2="218" y2="81" />
	<line stroke="black" stroke-opacity="1" x1="218" y1="75" x2="212" y2="81" />
	<line stroke="black" stroke-opacity="1" x1="218" y1="75" x2="224" y2="81" />
	<line stroke="black" stroke-opacity="1" x1="212" y1="81" x2="224" y2="81" />
</g>
<g>
	<line stroke-dasharray="4,4" stroke="black" stroke-opacity="1" x1="372" y1="179" x2="361" y2="98" />
	<line stroke="black" stroke-opacity="1" x1="361" y1="93" x2="355" y2="99" />
	<line stroke="black" stroke-opacity="1" x1="361" y1="93" x2="367" y2="98" />
	<line stroke="black" stroke-opacity="1" x1="355" y1="99" x2="367" y2="98" />
</g>
<g>
	<line stroke="black" stroke-opacity="1" x1="352" y1="206" x2="346" y2="200" />
	<line stroke="black" stroke-opacity="1" x1="352" y1="206" x2="346" y2="212" />
	<line stroke="black" stroke-opacity="1" x1="255" y1="206" x2="352" y2="206" />
	<polygon fill="white" stroke="black" stroke-opacity="1" points="255,206 261,200 267,206 261,212" />
</g>
<g>
	<line stroke="black" stroke-opacity="1" x1="109" y1="206" x2="115" y2="212" />
	<line stroke="black" stroke-opacity="1" x1="109" y1="206" x2="115" y2="200" />
	<line stroke="black" stroke-opacity="1" x1="180" y1="206" x2="109" y2="206" />
	<polygon fill="black" stroke="black" stroke-opacity="1" points="180,206 174,212 168,206 174,200" />
</g>
<g>
	<rect fill="#808080" stroke="none" stroke-opacity="1" x="251" y="142" width="3" height="131" />
	<rect fill="#808080" stroke="none" stroke-opacity="1" x="185" y="270" width="69" height="3" />
	<rect fill="#ffffc0" stroke="black" stroke-width="1" stroke-opacity="1" x="181" y="138" width="70" height="132" />
	<text font-family="Helvetica" font-size="12" fill="black" font-weight="bold" text-anchor="middle" x="216" y="153">Employee</text>
	<line stroke="black" stroke-opacity="1" x1="181" y1="158" x2="251" y2="158" />
	<text font-family="Helvetica" font-size="12" fill="black" x="185" y="173">firstName</text>
	<text font-family="Helvetica" font-size="12" fill="black" x="185" y="191">ssn</text>
	<text font-family="Helvetica" font-size="12" fill="black" x="185" y="209">birthDate</text>
	<text font-family="Helvetica" font-size="12" fill="black" x="185" y="227">hireDate</text>
	<text font-family="Helvetica" font-size="12" fill="black" x="185" y="245">gender</text>
	<line stroke="black" stroke-opacity="1" x1="181" y1="250" x2="251" y2="250" />
	<text font-family="Helvetica" font-size="12" fill="black" x="185" y="265">getAge()</text>
</g>
<g>
	<rect fill="#808080" stroke="none" stroke-opacity="1" x="422" y="7" width="3" height="85" />
	<rect fill="#808080" stroke="none" stroke-opacity="1" x="292" y="89" width="133" height="3" />
	<rect fill="#ffffc0" stroke="black" stroke-width="1" stroke-opacity="1" x="288" y="3" width="134" height="86" />
	<text font-family="Helvetica" font-size="12" fill="black" text-anchor="middle" x="355" y="18">&lt;&lt;interface&gt;&gt;</text>
	<text font-family="Helvetica" font-size="12" fill="black" font-weight="bold" text-anchor="middle" x="355" y="38">Traceable</text>
	<line stroke="black" stroke-opacity="1" x1="288" y1="43" x2="422" y2="43" />
	<text font-family="Helvetica" font-size="12" fill="black" x="292" y="58">createTimestamp</text>
	<text font-family="Helvetica" font-size="12" fill="black" x="292" y="76">lastUpdateTimestamp</text>
	<line stroke="black" stroke-opacity="1" x1="288" y1="81" x2="422" y2="81" />
</g>
<g>
	<rect fill="#808080" stroke="none" stroke-opacity="1" x="260" y="7" width="3" height="67" />
	<rect fill="#808080" stroke="none" stroke-opacity="1" x="176" y="71" width="87" height="3" />
	<rect fill="#ffffc0" stroke="black" stroke-width="1" stroke-opacity="1" x="172" y="3" width="88" height="68" />
	<text font-family="Helvetica" font-size="12" fill="black" text-anchor="middle" x="216" y="18">&lt;&lt;interface&gt;&gt;</text>
	<text font-family="Helvetica" font-size="12" fill="black" font-weight="bold" text-anchor="middle" x="216" y="38">Nameable</text>
	<line stroke="black" stroke-opacity="1" x1="172" y1="43" x2="260" y2="43" />
	<text font-family="Helvetica" font-size="12" fill="black" x="176" y="58">name</text>
	<line stroke="black" stroke-opacity="1" x1="172" y1="63" x2="260" y2="63" />
</g>
<g>
	<rect fill="#808080" stroke="none" stroke-opacity="1" x="105" y="156" width="3" height="103" />
	<rect fill="#808080" stroke="none" stroke-opacity="1" x="5" y="256" width="103" height="3" />
	<rect fill="#ffffc0" stroke="black" stroke-width="1" stroke-opacity="1" x="1" y="152" width="104" height="104" />
	<text font-family="Helvetica" font-size="12" fill="black" text-anchor="middle" x="53" y="167">&lt;&lt;component&gt;&gt;</text>
	<text font-family="Helvetica" font-size="12" fill="black" font-weight="bold" text-anchor="middle" x="53" y="187">ContactInfo</text>
	<line stroke="black" stroke-opacity="1" x1="1" y1="192" x2="105" y2="192" />
	<text font-family="Helvetica" font-size="12" fill="black" x="5" y="207">address</text>
	<text font-family="Helvetica" font-size="12" fill="black" x="5" y="225">phone</text>
	<text font-family="Helvetica" font-size="12" fill="black" x="5" y="243">email</text>
	<line stroke="black" stroke-opacity="1" x1="1" y1="248" x2="105" y2="248" />
</g>
<g>
	<rect fill="#808080" stroke="none" stroke-opacity="1" x="395" y="184" width="3" height="47" />
	<rect fill="#808080" stroke="none" stroke-opacity="1" x="357" y="228" width="41" height="3" />
	<rect fill="#ffffc0" stroke="black" stroke-width="1" stroke-opacity="1" x="353" y="180" width="42" height="48" />
	<text font-family="Helvetica" font-size="12" fill="black" font-weight="bold" text-anchor="middle" x="374" y="195">Event</text>
	<line stroke="black" stroke-opacity="1" x1="353" y1="200" x2="395" y2="200" />
	<text font-family="Helvetica" font-size="12" fill="black" x="357" y="215">text</text>
	<line stroke="black" stroke-opacity="1" x1="353" y1="220" x2="395" y2="220" />
</g>
<g>
	<text font-family="Helvetica" font-size="12" fill="black" x="305" y="198">events</text>
</g>
<g>
	<text font-family="Helvetica" font-size="12" fill="black" x="279" y="219">&lt;&lt;list&gt;&gt;</text>
</g>
<g>
	<text font-family="Helvetica" font-size="12" fill="black" x="337" y="227">*</text>
</g>
<g>
	<text font-family="Helvetica" font-size="12" fill="black" x="119" y="198">contact</text>
</g>
<g>
	<text font-family="Helvetica" font-size="12" fill="black" x="119" y="227">1</text>
</g>
</svg>
