<?xml version="1.0" encoding="UTF-8" standalone="no"?>
<!-- Created with Bouml (http://bouml.free.fr/) -->
<!DOCTYPE svg PUBLIC "-//W3C//DTD SVG 1.1//EN" "http://www.w3.org/Graphics/SVG/1.1/DTD/svg11.dtd">
<svg width="760" height="416" version="1.1" xmlns="http://www.w3.org/2000/svg">
<g>
	<rect fill="none" stroke="black" stroke-width="1" stroke-opacity="1" x="2" y="2" width="246" height="401" />
	<text font-family="Helvetica" font-size="12" fill="black" text-anchor="middle" x="31" y="20">Frontend</text>
	<line stroke="black" stroke-opacity="1" x1="2" y1="25" x2="60" y2="25" />
	<line stroke="black" stroke-opacity="1" x1="60" y1="25" x2="72" y2="13" />
	<line stroke="black" stroke-opacity="1" x1="72" y1="13" x2="72" y2="2" />
</g>
<g>
	<rect fill="none" stroke="black" stroke-width="1" stroke-opacity="1" x="279" y="2" width="224" height="402" />
	<text font-family="Helvetica" font-size="12" fill="black" text-anchor="middle" x="307" y="20">backend</text>
	<line stroke="black" stroke-opacity="1" x1="279" y1="25" x2="335" y2="25" />
	<line stroke="black" stroke-opacity="1" x1="335" y1="25" x2="347" y2="13" />
	<line stroke="black" stroke-opacity="1" x1="347" y1="13" x2="347" y2="2" />
</g>
<g>
	<rect fill="none" stroke="black" stroke-width="1" stroke-opacity="1" x="518" y="2" width="230" height="402" />
	<text font-family="Helvetica" font-size="12" fill="black" text-anchor="middle" x="539" y="20">Model</text>
	<line stroke="black" stroke-opacity="1" x1="518" y1="25" x2="560" y2="25" />
	<line stroke="black" stroke-opacity="1" x1="560" y1="25" x2="572" y2="13" />
	<line stroke="black" stroke-opacity="1" x1="572" y1="13" x2="572" y2="2" />
</g>
<g>
	<line stroke="black" stroke-opacity="1" x1="316" y1="63" x2="310" y2="57" />
	<line stroke="black" stroke-opacity="1" x1="316" y1="63" x2="310" y2="69" />
	<line stroke-dasharray="4,4" stroke="black" stroke-opacity="1" x1="201" y1="63" x2="316" y2="63" />
</g>
<g>
	<line stroke="black" stroke-opacity="1" x1="118" y1="130" x2="124" y2="124" />
	<line stroke="black" stroke-opacity="1" x1="118" y1="130" x2="112" y2="124" />
	<line stroke-dasharray="4,4" stroke="black" stroke-opacity="1" x1="118" y1="91" x2="118" y2="130" />
</g>
<g>
	<rect fill="#808080" stroke="none" stroke-opacity="1" x="197" y="39" width="3" height="51" />
	<rect fill="#808080" stroke="none" stroke-opacity="1" x="39" y="87" width="161" height="3" />
	<rect fill="#c0ffc0" stroke="black" stroke-width="1" stroke-opacity="1" x="35" y="35" width="162" height="52" />
	<text font-family="Helvetica" font-size="12" fill="black" text-anchor="middle" x="116" y="57">&lt;&lt;component&gt;&gt;</text>
	<text font-family="Helvetica" font-size="12" fill="black" font-weight="bold" text-anchor="middle" x="116" y="83">Frontend Controller</text>
	<rect fill="none" stroke="black" stroke-width="1" stroke-opacity="1" x="179" y="39" width="14" height="23" />
	<rect fill="#c0ffc0" stroke="black" stroke-width="1" stroke-opacity="1" x="174" y="44" width="9" height="4" />
	<rect fill="#c0ffc0" stroke="black" stroke-width="1" stroke-opacity="1" x="174" y="54" width="9" height="4" />
</g>
<g>
	<line stroke="black" stroke-opacity="1" x1="118" y1="320" x2="124" y2="314" />
	<line stroke="black" stroke-opacity="1" x1="118" y1="320" x2="112" y2="314" />
	<line stroke-dasharray="4,4" stroke="black" stroke-opacity="1" x1="118" y1="273" x2="118" y2="320" />
</g>
<g>
	<line stroke="black" stroke-opacity="1" x1="118" y1="216" x2="124" y2="210" />
	<line stroke="black" stroke-opacity="1" x1="118" y1="216" x2="112" y2="210" />
	<line stroke-dasharray="4,4" stroke="black" stroke-opacity="1" x1="118" y1="187" x2="118" y2="216" />
</g>
<g>
	<line stroke="black" stroke-opacity="1" x1="316" y1="349" x2="310" y2="343" />
	<line stroke="black" stroke-opacity="1" x1="316" y1="349" x2="310" y2="355" />
	<line stroke-dasharray="4,4" stroke="black" stroke-opacity="1" x1="201" y1="349" x2="316" y2="349" />
</g>
<g>
	<line stroke="black" stroke-opacity="1" x1="316" y1="159" x2="310" y2="153" />
	<line stroke="black" stroke-opacity="1" x1="316" y1="159" x2="310" y2="165" />
	<line stroke-dasharray="4,4" stroke="black" stroke-opacity="1" x1="201" y1="159" x2="316" y2="159" />
</g>
<g>
	<line stroke="black" stroke-opacity="1" x1="400" y1="130" x2="406" y2="124" />
	<line stroke="black" stroke-opacity="1" x1="400" y1="130" x2="394" y2="124" />
	<line stroke-dasharray="4,4" stroke="black" stroke-opacity="1" x1="400" y1="91" x2="400" y2="130" />
</g>
<g>
	<line stroke="black" stroke-opacity="1" x1="571" y1="245" x2="565" y2="239" />
	<line stroke="black" stroke-opacity="1" x1="571" y1="245" x2="565" y2="251" />
	<line stroke-dasharray="4,4" stroke="black" stroke-opacity="1" x1="201" y1="245" x2="571" y2="245" />
</g>
<g>
	<line stroke-dasharray="4,4" stroke="black" stroke-opacity="1" x1="483" y1="349" x2="655" y2="349" />
</g>
<g>
	<line stroke="black" stroke-opacity="1" x1="655" y1="273" x2="649" y2="279" />
	<line stroke="black" stroke-opacity="1" x1="655" y1="273" x2="661" y2="279" />
	<line stroke-dasharray="4,4" stroke="black" stroke-opacity="1" x1="655" y1="349" x2="655" y2="273" />
</g>
<g>
	<rect fill="#808080" stroke="none" stroke-opacity="1" x="479" y="39" width="3" height="51" />
	<rect fill="#808080" stroke="none" stroke-opacity="1" x="321" y="87" width="161" height="3" />
	<rect fill="#c0ffc0" stroke="black" stroke-width="1" stroke-opacity="1" x="317" y="35" width="162" height="52" />
	<text font-family="Helvetica" font-size="12" fill="black" text-anchor="middle" x="398" y="57">&lt;&lt;component&gt;&gt;</text>
	<text font-family="Helvetica" font-size="12" fill="black" font-weight="bold" text-anchor="middle" x="398" y="83">Backend Controller</text>
	<rect fill="none" stroke="black" stroke-width="1" stroke-opacity="1" x="461" y="39" width="14" height="23" />
	<rect fill="#c0ffc0" stroke="black" stroke-width="1" stroke-opacity="1" x="456" y="44" width="9" height="4" />
	<rect fill="#c0ffc0" stroke="black" stroke-width="1" stroke-opacity="1" x="456" y="54" width="9" height="4" />
</g>
<g>
	<rect fill="#808080" stroke="none" stroke-opacity="1" x="734" y="221" width="3" height="51" />
	<rect fill="#808080" stroke="none" stroke-opacity="1" x="576" y="269" width="161" height="3" />
	<rect fill="#c0ffc0" stroke="black" stroke-width="1" stroke-opacity="1" x="572" y="217" width="162" height="52" />
	<text font-family="Helvetica" font-size="12" fill="black" text-anchor="middle" x="653" y="239">&lt;&lt;component&gt;&gt;</text>
	<text font-family="Helvetica" font-size="12" fill="black" font-weight="bold" text-anchor="middle" x="653" y="265">Domain Model</text>
	<rect fill="none" stroke="black" stroke-width="1" stroke-opacity="1" x="716" y="221" width="14" height="23" />
	<rect fill="#c0ffc0" stroke="black" stroke-width="1" stroke-opacity="1" x="711" y="226" width="9" height="4" />
	<rect fill="#c0ffc0" stroke="black" stroke-width="1" stroke-opacity="1" x="711" y="236" width="9" height="4" />
</g>
<g>
	<rect fill="#808080" stroke="none" stroke-opacity="1" x="197" y="221" width="3" height="51" />
	<rect fill="#808080" stroke="none" stroke-opacity="1" x="39" y="269" width="161" height="3" />
	<rect fill="#c0ffc0" stroke="black" stroke-width="1" stroke-opacity="1" x="35" y="217" width="162" height="52" />
	<text font-family="Helvetica" font-size="12" fill="black" text-anchor="middle" x="116" y="239">&lt;&lt;component&gt;&gt;</text>
	<text font-family="Helvetica" font-size="12" fill="black" font-weight="bold" text-anchor="middle" x="116" y="265">View</text>
	<rect fill="none" stroke="black" stroke-width="1" stroke-opacity="1" x="179" y="221" width="14" height="23" />
	<rect fill="#c0ffc0" stroke="black" stroke-width="1" stroke-opacity="1" x="174" y="226" width="9" height="4" />
	<rect fill="#c0ffc0" stroke="black" stroke-width="1" stroke-opacity="1" x="174" y="236" width="9" height="4" />
</g>
<g>
	<rect fill="#808080" stroke="none" stroke-opacity="1" x="197" y="325" width="3" height="51" />
	<rect fill="#808080" stroke="none" stroke-opacity="1" x="39" y="373" width="161" height="3" />
	<rect fill="#c0ffc0" stroke="black" stroke-width="1" stroke-opacity="1" x="35" y="321" width="162" height="52" />
	<text font-family="Helvetica" font-size="12" fill="black" text-anchor="middle" x="116" y="343">&lt;&lt;component&gt;&gt;</text>
	<text font-family="Helvetica" font-size="12" fill="black" font-weight="bold" text-anchor="middle" x="116" y="369">Frontend Action</text>
	<rect fill="none" stroke="black" stroke-width="1" stroke-opacity="1" x="179" y="325" width="14" height="23" />
	<rect fill="#c0ffc0" stroke="black" stroke-width="1" stroke-opacity="1" x="174" y="330" width="9" height="4" />
	<rect fill="#c0ffc0" stroke="black" stroke-width="1" stroke-opacity="1" x="174" y="340" width="9" height="4" />
</g>
<g>
	<rect fill="#808080" stroke="none" stroke-opacity="1" x="479" y="325" width="3" height="51" />
	<rect fill="#808080" stroke="none" stroke-opacity="1" x="321" y="373" width="161" height="3" />
	<rect fill="#c0ffc0" stroke="black" stroke-width="1" stroke-opacity="1" x="317" y="321" width="162" height="52" />
	<text font-family="Helvetica" font-size="12" fill="black" text-anchor="middle" x="398" y="343">&lt;&lt;component&gt;&gt;</text>
	<text font-family="Helvetica" font-size="12" fill="black" font-weight="bold" text-anchor="middle" x="398" y="369">Backend Action</text>
	<rect fill="none" stroke="black" stroke-width="1" stroke-opacity="1" x="461" y="325" width="14" height="23" />
	<rect fill="#c0ffc0" stroke="black" stroke-width="1" stroke-opacity="1" x="456" y="330" width="9" height="4" />
	<rect fill="#c0ffc0" stroke="black" stroke-width="1" stroke-opacity="1" x="456" y="340" width="9" height="4" />
</g>
<g>
	<rect fill="#808080" stroke="none" stroke-opacity="1" x="197" y="135" width="3" height="51" />
	<rect fill="#808080" stroke="none" stroke-opacity="1" x="39" y="183" width="161" height="3" />
	<rect fill="#c0ffc0" stroke="black" stroke-width="1" stroke-opacity="1" x="35" y="131" width="162" height="52" />
	<text font-family="Helvetica" font-size="12" fill="black" text-anchor="middle" x="116" y="153">&lt;&lt;component&gt;&gt;</text>
	<text font-family="Helvetica" font-size="12" fill="black" font-weight="bold" text-anchor="middle" x="116" y="179">Frontend module</text>
	<rect fill="none" stroke="black" stroke-width="1" stroke-opacity="1" x="179" y="135" width="14" height="23" />
	<rect fill="#c0ffc0" stroke="black" stroke-width="1" stroke-opacity="1" x="174" y="140" width="9" height="4" />
	<rect fill="#c0ffc0" stroke="black" stroke-width="1" stroke-opacity="1" x="174" y="150" width="9" height="4" />
</g>
<g>
	<rect fill="#808080" stroke="none" stroke-opacity="1" x="479" y="135" width="3" height="51" />
	<rect fill="#808080" stroke="none" stroke-opacity="1" x="321" y="183" width="161" height="3" />
	<rect fill="#c0ffc0" stroke="black" stroke-width="1" stroke-opacity="1" x="317" y="131" width="162" height="52" />
	<text font-family="Helvetica" font-size="12" fill="black" text-anchor="middle" x="398" y="153">&lt;&lt;component&gt;&gt;</text>
	<text font-family="Helvetica" font-size="12" fill="black" font-weight="bold" text-anchor="middle" x="398" y="179">Backend Module</text>
	<rect fill="none" stroke="black" stroke-width="1" stroke-opacity="1" x="461" y="135" width="14" height="23" />
	<rect fill="#c0ffc0" stroke="black" stroke-width="1" stroke-opacity="1" x="456" y="140" width="9" height="4" />
	<rect fill="#c0ffc0" stroke="black" stroke-width="1" stroke-opacity="1" x="456" y="150" width="9" height="4" />
</g>
</svg>
