<?xml version="1.0"?>

<!DOCTYPE svg PUBLIC '-//W3C//DTD SVG 1.0//EN' 'http://www.w3.org/TR/2001/REC-SVG-20010904/DTD/svg10.dtd'>
<svg stroke-dasharray="none" shape-rendering="auto" xmlns="http://www.w3.org/2000/svg" font-family="&apos;Dialog&apos;" width="826" text-rendering="auto" fill-opacity="1" contentScriptType="text/ecmascript" color-interpolation="auto" color-rendering="auto" preserveAspectRatio="xMidYMid meet" font-size="12" fill="black" xmlns:xlink="http://www.w3.org/1999/xlink" stroke="black" image-rendering="auto" stroke-miterlimit="10" zoomAndPan="magnify" version="1.0" stroke-linecap="square" stroke-linejoin="miter" contentStyleType="text/css" font-style="normal" height="837" stroke-width="1" stroke-dashoffset="0" font-weight="normal" stroke-opacity="1">
  <!--Generated by the Batik Graphics2D SVG Generator-->
  <defs id="genericDefs" />
  <g>
    <defs id="defs1">
      <clipPath clipPathUnits="userSpaceOnUse" id="clipPath1">
        <path d="M4 81 L286 81 L286 127 L4 127 L4 81 Z" />
      </clipPath>
      <clipPath clipPathUnits="userSpaceOnUse" id="clipPath2">
        <path d="M104 82 L186 82 L186 98 L104 98 L104 82 Z" />
      </clipPath>
      <clipPath clipPathUnits="userSpaceOnUse" id="clipPath3">
        <path d="M109 96 L180 96 L180 113 L109 113 L109 96 Z" />
      </clipPath>
      <clipPath clipPathUnits="userSpaceOnUse" id="clipPath4">
        <path d="M63 111 L226 111 L226 125 L63 125 L63 111 Z" />
      </clipPath>
      <clipPath clipPathUnits="userSpaceOnUse" id="clipPath5">
        <path d="M4 125 L286 125 L286 396 L4 396 L4 125 Z" />
      </clipPath>
      <clipPath clipPathUnits="userSpaceOnUse" id="clipPath6">
        <path d="M6 126 L132 126 L132 142 L6 142 L6 126 Z" />
      </clipPath>
      <clipPath clipPathUnits="userSpaceOnUse" id="clipPath7">
        <path d="M6 140 L128 140 L128 156 L6 156 L6 140 Z" />
      </clipPath>
      <clipPath clipPathUnits="userSpaceOnUse" id="clipPath8">
        <path d="M6 154 L198 154 L198 170 L6 170 L6 154 Z" />
      </clipPath>
      <clipPath clipPathUnits="userSpaceOnUse" id="clipPath9">
        <path d="M6 168 L148 168 L148 184 L6 184 L6 168 Z" />
      </clipPath>
      <clipPath clipPathUnits="userSpaceOnUse" id="clipPath10">
        <path d="M6 182 L121 182 L121 198 L6 198 L6 182 Z" />
      </clipPath>
      <clipPath clipPathUnits="userSpaceOnUse" id="clipPath11">
        <path d="M6 196 L142 196 L142 212 L6 212 L6 196 Z" />
      </clipPath>
      <clipPath clipPathUnits="userSpaceOnUse" id="clipPath12">
        <path d="M6 210 L149 210 L149 226 L6 226 L6 210 Z" />
      </clipPath>
      <clipPath clipPathUnits="userSpaceOnUse" id="clipPath13">
        <path d="M6 224 L101 224 L101 240 L6 240 L6 224 Z" />
      </clipPath>
      <clipPath clipPathUnits="userSpaceOnUse" id="clipPath14">
        <path d="M6 238 L200 238 L200 254 L6 254 L6 238 Z" />
      </clipPath>
      <clipPath clipPathUnits="userSpaceOnUse" id="clipPath15">
        <path d="M6 252 L91 252 L91 268 L6 268 L6 252 Z" />
      </clipPath>
      <clipPath clipPathUnits="userSpaceOnUse" id="clipPath16">
        <path d="M6 266 L148 266 L148 282 L6 282 L6 266 Z" />
      </clipPath>
      <clipPath clipPathUnits="userSpaceOnUse" id="clipPath17">
        <path d="M6 280 L218 280 L218 296 L6 296 L6 280 Z" />
      </clipPath>
      <clipPath clipPathUnits="userSpaceOnUse" id="clipPath18">
        <path d="M6 294 L168 294 L168 310 L6 310 L6 294 Z" />
      </clipPath>
      <clipPath clipPathUnits="userSpaceOnUse" id="clipPath19">
        <path d="M6 308 L141 308 L141 324 L6 324 L6 308 Z" />
      </clipPath>
      <clipPath clipPathUnits="userSpaceOnUse" id="clipPath20">
        <path d="M6 322 L162 322 L162 338 L6 338 L6 322 Z" />
      </clipPath>
      <clipPath clipPathUnits="userSpaceOnUse" id="clipPath21">
        <path d="M6 336 L284 336 L284 352 L6 352 L6 336 Z" />
      </clipPath>
      <clipPath clipPathUnits="userSpaceOnUse" id="clipPath22">
        <path d="M6 350 L169 350 L169 366 L6 366 L6 350 Z" />
      </clipPath>
      <clipPath clipPathUnits="userSpaceOnUse" id="clipPath23">
        <path d="M6 364 L121 364 L121 380 L6 380 L6 364 Z" />
      </clipPath>
      <clipPath clipPathUnits="userSpaceOnUse" id="clipPath24">
        <path d="M6 378 L96 378 L96 394 L6 394 L6 378 Z" />
      </clipPath>
      <clipPath clipPathUnits="userSpaceOnUse" id="clipPath25">
        <path d="M366 4 L754 4 L754 50 L366 50 L366 4 Z" />
      </clipPath>
      <clipPath clipPathUnits="userSpaceOnUse" id="clipPath26">
        <path d="M519 5 L601 5 L601 21 L519 21 L519 5 Z" />
      </clipPath>
      <clipPath clipPathUnits="userSpaceOnUse" id="clipPath27">
        <path d="M537 19 L583 19 L583 36 L537 36 L537 19 Z" />
      </clipPath>
      <clipPath clipPathUnits="userSpaceOnUse" id="clipPath28">
        <path d="M478 34 L641 34 L641 48 L478 48 L478 34 Z" />
      </clipPath>
      <clipPath clipPathUnits="userSpaceOnUse" id="clipPath29">
        <path d="M366 48 L754 48 L754 473 L366 473 L366 48 Z" />
      </clipPath>
      <clipPath clipPathUnits="userSpaceOnUse" id="clipPath30">
        <path d="M368 49 L421 49 L421 65 L368 65 L368 49 Z" />
      </clipPath>
      <clipPath clipPathUnits="userSpaceOnUse" id="clipPath31">
        <path d="M368 63 L536 63 L536 79 L368 79 L368 63 Z" />
      </clipPath>
      <clipPath clipPathUnits="userSpaceOnUse" id="clipPath32">
        <path d="M368 77 L651 77 L651 93 L368 93 L368 77 Z" />
      </clipPath>
      <clipPath clipPathUnits="userSpaceOnUse" id="clipPath33">
        <path d="M368 91 L490 91 L490 107 L368 107 L368 91 Z" />
      </clipPath>
      <clipPath clipPathUnits="userSpaceOnUse" id="clipPath34">
        <path d="M368 105 L560 105 L560 121 L368 121 L368 105 Z" />
      </clipPath>
      <clipPath clipPathUnits="userSpaceOnUse" id="clipPath35">
        <path d="M368 119 L510 119 L510 135 L368 135 L368 119 Z" />
      </clipPath>
      <clipPath clipPathUnits="userSpaceOnUse" id="clipPath36">
        <path d="M368 133 L483 133 L483 149 L368 149 L368 133 Z" />
      </clipPath>
      <clipPath clipPathUnits="userSpaceOnUse" id="clipPath37">
        <path d="M368 147 L504 147 L504 163 L368 163 L368 147 Z" />
      </clipPath>
      <clipPath clipPathUnits="userSpaceOnUse" id="clipPath38">
        <path d="M368 161 L463 161 L463 177 L368 177 L368 161 Z" />
      </clipPath>
      <clipPath clipPathUnits="userSpaceOnUse" id="clipPath39">
        <path d="M368 175 L473 175 L473 191 L368 191 L368 175 Z" />
      </clipPath>
      <clipPath clipPathUnits="userSpaceOnUse" id="clipPath40">
        <path d="M368 189 L607 189 L607 205 L368 205 L368 189 Z" />
      </clipPath>
      <clipPath clipPathUnits="userSpaceOnUse" id="clipPath41">
        <path d="M368 203 L507 203 L507 219 L368 219 L368 203 Z" />
      </clipPath>
      <clipPath clipPathUnits="userSpaceOnUse" id="clipPath42">
        <path d="M368 217 L530 217 L530 233 L368 233 L368 217 Z" />
      </clipPath>
      <clipPath clipPathUnits="userSpaceOnUse" id="clipPath43">
        <path d="M368 231 L453 231 L453 247 L368 247 L368 231 Z" />
      </clipPath>
      <clipPath clipPathUnits="userSpaceOnUse" id="clipPath44">
        <path d="M368 245 L474 245 L474 261 L368 261 L368 245 Z" />
      </clipPath>
      <clipPath clipPathUnits="userSpaceOnUse" id="clipPath45">
        <path d="M368 259 L554 259 L554 275 L368 275 L368 259 Z" />
      </clipPath>
      <clipPath clipPathUnits="userSpaceOnUse" id="clipPath46">
        <path d="M368 273 L618 273 L618 289 L368 289 L368 273 Z" />
      </clipPath>
      <clipPath clipPathUnits="userSpaceOnUse" id="clipPath47">
        <path d="M368 287 L510 287 L510 303 L368 303 L368 287 Z" />
      </clipPath>
      <clipPath clipPathUnits="userSpaceOnUse" id="clipPath48">
        <path d="M368 301 L580 301 L580 317 L368 317 L368 301 Z" />
      </clipPath>
      <clipPath clipPathUnits="userSpaceOnUse" id="clipPath49">
        <path d="M368 315 L530 315 L530 331 L368 331 L368 315 Z" />
      </clipPath>
      <clipPath clipPathUnits="userSpaceOnUse" id="clipPath50">
        <path d="M368 329 L503 329 L503 345 L368 345 L368 329 Z" />
      </clipPath>
      <clipPath clipPathUnits="userSpaceOnUse" id="clipPath51">
        <path d="M368 343 L524 343 L524 359 L368 359 L368 343 Z" />
      </clipPath>
      <clipPath clipPathUnits="userSpaceOnUse" id="clipPath52">
        <path d="M368 357 L483 357 L483 373 L368 373 L368 357 Z" />
      </clipPath>
      <clipPath clipPathUnits="userSpaceOnUse" id="clipPath53">
        <path d="M368 371 L493 371 L493 387 L368 387 L368 371 Z" />
      </clipPath>
      <clipPath clipPathUnits="userSpaceOnUse" id="clipPath54">
        <path d="M368 385 L627 385 L627 401 L368 401 L368 385 Z" />
      </clipPath>
      <clipPath clipPathUnits="userSpaceOnUse" id="clipPath55">
        <path d="M368 399 L501 399 L501 415 L368 415 L368 399 Z" />
      </clipPath>
      <clipPath clipPathUnits="userSpaceOnUse" id="clipPath56">
        <path d="M368 413 L527 413 L527 429 L368 429 L368 413 Z" />
      </clipPath>
      <clipPath clipPathUnits="userSpaceOnUse" id="clipPath57">
        <path d="M368 427 L550 427 L550 443 L368 443 L368 427 Z" />
      </clipPath>
      <clipPath clipPathUnits="userSpaceOnUse" id="clipPath58">
        <path d="M368 441 L458 441 L458 457 L368 457 L368 441 Z" />
      </clipPath>
      <clipPath clipPathUnits="userSpaceOnUse" id="clipPath59">
        <path d="M368 455 L752 455 L752 471 L368 471 L368 455 Z" />
      </clipPath>
      <clipPath clipPathUnits="userSpaceOnUse" id="clipPath60">
        <path d="M4 508 L321 508 L321 554 L4 554 L4 508 Z" />
      </clipPath>
      <clipPath clipPathUnits="userSpaceOnUse" id="clipPath61">
        <path d="M121 509 L203 509 L203 525 L121 525 L121 509 Z" />
      </clipPath>
      <clipPath clipPathUnits="userSpaceOnUse" id="clipPath62">
        <path d="M125 523 L200 523 L200 540 L125 540 L125 523 Z" />
      </clipPath>
      <clipPath clipPathUnits="userSpaceOnUse" id="clipPath63">
        <path d="M81 538 L244 538 L244 552 L81 552 L81 538 Z" />
      </clipPath>
      <clipPath clipPathUnits="userSpaceOnUse" id="clipPath64">
        <path d="M4 552 L321 552 L321 655 L4 655 L4 552 Z" />
      </clipPath>
      <clipPath clipPathUnits="userSpaceOnUse" id="clipPath65">
        <path d="M6 553 L132 553 L132 569 L6 569 L6 553 Z" />
      </clipPath>
      <clipPath clipPathUnits="userSpaceOnUse" id="clipPath66">
        <path d="M6 567 L299 567 L299 583 L6 583 L6 567 Z" />
      </clipPath>
      <clipPath clipPathUnits="userSpaceOnUse" id="clipPath67">
        <path d="M6 581 L142 581 L142 597 L6 597 L6 581 Z" />
      </clipPath>
      <clipPath clipPathUnits="userSpaceOnUse" id="clipPath68">
        <path d="M6 595 L91 595 L91 611 L6 611 L6 595 Z" />
      </clipPath>
      <clipPath clipPathUnits="userSpaceOnUse" id="clipPath69">
        <path d="M6 609 L234 609 L234 625 L6 625 L6 609 Z" />
      </clipPath>
      <clipPath clipPathUnits="userSpaceOnUse" id="clipPath70">
        <path d="M6 623 L319 623 L319 639 L6 639 L6 623 Z" />
      </clipPath>
      <clipPath clipPathUnits="userSpaceOnUse" id="clipPath71">
        <path d="M6 637 L162 637 L162 653 L6 653 L6 637 Z" />
      </clipPath>
      <clipPath clipPathUnits="userSpaceOnUse" id="clipPath72">
        <path d="M383 508 L737 508 L737 554 L383 554 L383 508 Z" />
      </clipPath>
      <clipPath clipPathUnits="userSpaceOnUse" id="clipPath73">
        <path d="M519 509 L601 509 L601 525 L519 525 L519 509 Z" />
      </clipPath>
      <clipPath clipPathUnits="userSpaceOnUse" id="clipPath74">
        <path d="M494 523 L625 523 L625 540 L494 540 L494 523 Z" />
      </clipPath>
      <clipPath clipPathUnits="userSpaceOnUse" id="clipPath75">
        <path d="M478 538 L641 538 L641 552 L478 552 L478 538 Z" />
      </clipPath>
      <clipPath clipPathUnits="userSpaceOnUse" id="clipPath76">
        <path d="M383 552 L737 552 L737 669 L383 669 L383 552 Z" />
      </clipPath>
      <clipPath clipPathUnits="userSpaceOnUse" id="clipPath77">
        <path d="M385 553 L511 553 L511 569 L385 569 L385 553 Z" />
      </clipPath>
      <clipPath clipPathUnits="userSpaceOnUse" id="clipPath78">
        <path d="M385 567 L715 567 L715 583 L385 583 L385 567 Z" />
      </clipPath>
      <clipPath clipPathUnits="userSpaceOnUse" id="clipPath79">
        <path d="M385 581 L616 581 L616 597 L385 597 L385 581 Z" />
      </clipPath>
      <clipPath clipPathUnits="userSpaceOnUse" id="clipPath80">
        <path d="M385 595 L560 595 L560 611 L385 611 L385 595 Z" />
      </clipPath>
      <clipPath clipPathUnits="userSpaceOnUse" id="clipPath81">
        <path d="M385 609 L470 609 L470 625 L385 625 L385 609 Z" />
      </clipPath>
      <clipPath clipPathUnits="userSpaceOnUse" id="clipPath82">
        <path d="M385 623 L735 623 L735 639 L385 639 L385 623 Z" />
      </clipPath>
      <clipPath clipPathUnits="userSpaceOnUse" id="clipPath83">
        <path d="M385 637 L636 637 L636 653 L385 653 L385 637 Z" />
      </clipPath>
      <clipPath clipPathUnits="userSpaceOnUse" id="clipPath84">
        <path d="M385 651 L580 651 L580 667 L385 667 L385 651 Z" />
      </clipPath>
      <clipPath clipPathUnits="userSpaceOnUse" id="clipPath85">
        <path d="M390 700 L730 700 L730 746 L390 746 L390 700 Z" />
      </clipPath>
      <clipPath clipPathUnits="userSpaceOnUse" id="clipPath86">
        <path d="M519 701 L601 701 L601 717 L519 717 L519 701 Z" />
      </clipPath>
      <clipPath clipPathUnits="userSpaceOnUse" id="clipPath87">
        <path d="M468 715 L651 715 L651 732 L468 732 L468 715 Z" />
      </clipPath>
      <clipPath clipPathUnits="userSpaceOnUse" id="clipPath88">
        <path d="M478 730 L641 730 L641 744 L478 744 L478 730 Z" />
      </clipPath>
      <clipPath clipPathUnits="userSpaceOnUse" id="clipPath89">
        <path d="M390 744 L730 744 L730 833 L390 833 L390 744 Z" />
      </clipPath>
      <clipPath clipPathUnits="userSpaceOnUse" id="clipPath90">
        <path d="M392 745 L486 745 L486 761 L392 761 L392 745 Z" />
      </clipPath>
      <clipPath clipPathUnits="userSpaceOnUse" id="clipPath91">
        <path d="M392 759 L708 759 L708 775 L392 775 L392 759 Z" />
      </clipPath>
      <clipPath clipPathUnits="userSpaceOnUse" id="clipPath92">
        <path d="M392 773 L609 773 L609 789 L392 789 L392 773 Z" />
      </clipPath>
      <clipPath clipPathUnits="userSpaceOnUse" id="clipPath93">
        <path d="M392 787 L506 787 L506 803 L392 803 L392 787 Z" />
      </clipPath>
      <clipPath clipPathUnits="userSpaceOnUse" id="clipPath94">
        <path d="M392 801 L728 801 L728 817 L392 817 L392 801 Z" />
      </clipPath>
      <clipPath clipPathUnits="userSpaceOnUse" id="clipPath95">
        <path d="M392 815 L629 815 L629 831 L392 831 L392 815 Z" />
      </clipPath>
      <clipPath clipPathUnits="userSpaceOnUse" id="clipPath96">
        <path d="M733 442 L827 442 L827 485 L733 485 L733 442 Z" />
      </clipPath>
      <clipPath clipPathUnits="userSpaceOnUse" id="clipPath97">
        <path d="M763 442 L827 442 L827 458 L763 458 L763 442 Z" />
      </clipPath>
      <clipPath clipPathUnits="userSpaceOnUse" id="clipPath98">
        <path d="M763 462 L785 462 L785 477 L763 477 L763 462 Z" />
      </clipPath>
      <clipPath clipPathUnits="userSpaceOnUse" id="clipPath99">
        <path d="M752 448 L764 448 L764 460 L752 460 L752 448 Z" />
      </clipPath>
      <clipPath clipPathUnits="userSpaceOnUse" id="clipPath100">
        <path d="M715 421 L800 421 L800 496 L715 496 L715 421 Z" />
      </clipPath>
      <clipPath clipPathUnits="userSpaceOnUse" id="clipPath101">
        <path d="M763 421 L800 421 L800 437 L763 437 L763 421 Z" />
      </clipPath>
      <clipPath clipPathUnits="userSpaceOnUse" id="clipPath102">
        <path d="M763 441 L785 441 L785 456 L763 456 L763 441 Z" />
      </clipPath>
      <clipPath clipPathUnits="userSpaceOnUse" id="clipPath103">
        <path d="M752 427 L764 427 L764 439 L752 439 L752 427 Z" />
      </clipPath>
      <clipPath clipPathUnits="userSpaceOnUse" id="clipPath104">
        <path d="M284 220 L369 220 L369 255 L284 255 L284 220 Z" />
      </clipPath>
      <clipPath clipPathUnits="userSpaceOnUse" id="clipPath105">
        <path d="M311 220 L357 220 L357 236 L311 236 L311 220 Z" />
      </clipPath>
      <clipPath clipPathUnits="userSpaceOnUse" id="clipPath106">
        <path d="M335 240 L357 240 L357 255 L335 255 L335 240 Z" />
      </clipPath>
      <clipPath clipPathUnits="userSpaceOnUse" id="clipPath107">
        <path d="M358 233 L369 233 L369 244 L358 244 L358 233 Z" />
      </clipPath>
      <clipPath clipPathUnits="userSpaceOnUse" id="clipPath108">
        <path d="M245 404 L369 404 L369 511 L245 511 L245 404 Z" />
      </clipPath>
      <clipPath clipPathUnits="userSpaceOnUse" id="clipPath109">
        <path d="M352 404 L369 404 L369 420 L352 420 L352 404 Z" />
      </clipPath>
      <clipPath clipPathUnits="userSpaceOnUse" id="clipPath110">
        <path d="M554 471 L567 471 L567 511 L554 511 L554 471 Z" />
      </clipPath>
      <clipPath clipPathUnits="userSpaceOnUse" id="clipPath111">
        <path d="M554 471 L567 471 L567 488 L554 488 L554 471 Z" />
      </clipPath>
      <clipPath clipPathUnits="userSpaceOnUse" id="clipPath112">
        <path d="M554 667 L567 667 L567 703 L554 703 L554 667 Z" />
      </clipPath>
      <clipPath clipPathUnits="userSpaceOnUse" id="clipPath113">
        <path d="M554 667 L567 667 L567 684 L554 684 L554 667 Z" />
      </clipPath>
    </defs>
    <g font-size="11" fill="white" font-family="&apos;Tahoma&apos;" stroke-linejoin="round" stroke="white" stroke-miterlimit="0">
      <rect width="936" x="-1" height="837" y="0" stroke="none" />
      <rect x="5" y="82" clip-path="url(#clipPath1)" width="280" height="44" stroke="none" />
      <rect x="5" y="82" clip-path="url(#clipPath1)" fill="none" width="280" height="44" stroke="black" />
      <text x="107" y="94" clip-path="url(#clipPath2)" fill="black" font-family="&apos;Arial&apos;" stroke="none" xml:space="preserve">&lt;&lt;Java Class&gt;&gt;</text>
    </g>
    <g stroke-miterlimit="0" font-weight="bold" font-family="&apos;Arial&apos;" stroke-linejoin="round">
      <text xml:space="preserve" x="112" y="109" clip-path="url(#clipPath3)" stroke="none">Workspace</text>
      <text font-size="9" x="66" y="121" clip-path="url(#clipPath4)" stroke="none" font-weight="normal" xml:space="preserve">com.d2s.framework.application.model</text>
    </g>
    <g font-size="11" fill="white" font-family="&apos;Tahoma&apos;" stroke-linejoin="round" stroke="white" stroke-miterlimit="0">
      <rect x="5" y="126" clip-path="url(#clipPath5)" width="280" height="269" stroke="none" />
      <rect x="5" y="125" clip-path="url(#clipPath5)" fill="none" width="280" height="270" stroke="black" />
      <text x="9" y="138" clip-path="url(#clipPath6)" fill="black" font-family="&apos;Arial&apos;" stroke="none" xml:space="preserve">+equals(Object): boolean</text>
      <text x="9" y="152" clip-path="url(#clipPath7)" fill="black" font-family="&apos;Arial&apos;" stroke="none" xml:space="preserve">+getDescription(): String</text>
      <text x="9" y="166" clip-path="url(#clipPath8)" fill="black" font-family="&apos;Arial&apos;" stroke="none" xml:space="preserve">+getGrantedRoles(): Collection&lt;String&gt;</text>
      <text x="9" y="180" clip-path="url(#clipPath9)" fill="black" font-family="&apos;Arial&apos;" stroke="none" xml:space="preserve">+getI18nDescription(): String</text>
      <text x="9" y="194" clip-path="url(#clipPath10)" fill="black" font-family="&apos;Arial&apos;" stroke="none" xml:space="preserve">+getI18nName(): String</text>
      <text x="9" y="208" clip-path="url(#clipPath11)" fill="black" font-family="&apos;Arial&apos;" stroke="none" xml:space="preserve">+getIconImageURL(): String</text>
      <text x="9" y="222" clip-path="url(#clipPath12)" fill="black" font-family="&apos;Arial&apos;" stroke="none" xml:space="preserve">+getModules(): List&lt;Module&gt;</text>
      <text x="9" y="236" clip-path="url(#clipPath13)" fill="black" font-family="&apos;Arial&apos;" stroke="none" xml:space="preserve">+getName(): String</text>
      <text x="9" y="250" clip-path="url(#clipPath14)" fill="black" font-family="&apos;Arial&apos;" stroke="none" xml:space="preserve">+getViewDescriptor(): IViewDescriptor</text>
      <text x="9" y="264" clip-path="url(#clipPath15)" fill="black" font-family="&apos;Arial&apos;" stroke="none" xml:space="preserve">+hashCode(): int</text>
      <text x="9" y="278" clip-path="url(#clipPath16)" fill="black" font-family="&apos;Arial&apos;" stroke="none" xml:space="preserve">+setDescription(String): void</text>
      <text x="9" y="292" clip-path="url(#clipPath17)" fill="black" font-family="&apos;Arial&apos;" stroke="none" xml:space="preserve">+setGrantedRoles(Collection&lt;String&gt;): void</text>
      <text x="9" y="306" clip-path="url(#clipPath18)" fill="black" font-family="&apos;Arial&apos;" stroke="none" xml:space="preserve">+setI18nDescription(String): void</text>
      <text x="9" y="320" clip-path="url(#clipPath19)" fill="black" font-family="&apos;Arial&apos;" stroke="none" xml:space="preserve">+setI18nName(String): void</text>
      <text x="9" y="334" clip-path="url(#clipPath20)" fill="black" font-family="&apos;Arial&apos;" stroke="none" xml:space="preserve">+setIconImageURL(String): void</text>
      <text x="9" y="348" clip-path="url(#clipPath21)" fill="black" font-family="&apos;Arial&apos;" stroke="none" xml:space="preserve">+setIconImageURLProvider(IIconImageURLProvider): void</text>
      <text x="9" y="362" clip-path="url(#clipPath22)" fill="black" font-family="&apos;Arial&apos;" stroke="none" xml:space="preserve">+setModules(List&lt;Module&gt;): void</text>
      <text x="9" y="376" clip-path="url(#clipPath23)" fill="black" font-family="&apos;Arial&apos;" stroke="none" xml:space="preserve">+setName(String): void</text>
      <text x="9" y="390" clip-path="url(#clipPath24)" fill="black" font-family="&apos;Arial&apos;" stroke="none" xml:space="preserve">+toString(): String</text>
      <rect x="367" y="5" clip-path="url(#clipPath25)" width="386" height="44" stroke="none" />
      <rect x="367" y="5" clip-path="url(#clipPath25)" fill="none" width="386" height="44" stroke="black" />
      <text x="522" y="17" clip-path="url(#clipPath26)" fill="black" font-family="&apos;Arial&apos;" stroke="none" xml:space="preserve">&lt;&lt;Java Class&gt;&gt;</text>
    </g>
    <g stroke-miterlimit="0" font-weight="bold" font-family="&apos;Arial&apos;" stroke-linejoin="round">
      <text xml:space="preserve" x="540" y="32" clip-path="url(#clipPath27)" stroke="none">Module</text>
      <text font-size="9" x="481" y="44" clip-path="url(#clipPath28)" stroke="none" font-weight="normal" xml:space="preserve">com.d2s.framework.application.model</text>
    </g>
    <g font-size="11" fill="white" font-family="&apos;Tahoma&apos;" stroke-linejoin="round" stroke="white" stroke-miterlimit="0">
      <rect x="367" y="49" clip-path="url(#clipPath29)" width="386" height="423" stroke="none" />
      <rect x="367" y="48" clip-path="url(#clipPath29)" fill="none" width="386" height="424" stroke="black" />
      <text x="371" y="61" clip-path="url(#clipPath30)" fill="black" font-family="&apos;Arial&apos;" stroke="none" xml:space="preserve">+Module()</text>
      <text x="371" y="75" clip-path="url(#clipPath31)" fill="black" font-family="&apos;Arial&apos;" stroke="none" xml:space="preserve">+addSubModule(Module): boolean</text>
      <text x="371" y="89" clip-path="url(#clipPath32)" fill="black" font-family="&apos;Arial&apos;" stroke="none" xml:space="preserve">+addSubModules(Collection&lt;? extends Module&gt;): boolean</text>
      <text x="371" y="103" clip-path="url(#clipPath33)" fill="black" font-family="&apos;Arial&apos;" stroke="none" xml:space="preserve">+getDescription(): String</text>
      <text x="371" y="117" clip-path="url(#clipPath34)" fill="black" font-family="&apos;Arial&apos;" stroke="none" xml:space="preserve">+getGrantedRoles(): Collection&lt;String&gt;</text>
      <text x="371" y="131" clip-path="url(#clipPath35)" fill="black" font-family="&apos;Arial&apos;" stroke="none" xml:space="preserve">+getI18nDescription(): String</text>
      <text x="371" y="145" clip-path="url(#clipPath36)" fill="black" font-family="&apos;Arial&apos;" stroke="none" xml:space="preserve">+getI18nName(): String</text>
      <text x="371" y="159" clip-path="url(#clipPath37)" fill="black" font-family="&apos;Arial&apos;" stroke="none" xml:space="preserve">+getIconImageURL(): String</text>
      <text x="371" y="173" clip-path="url(#clipPath38)" fill="black" font-family="&apos;Arial&apos;" stroke="none" xml:space="preserve">+getName(): String</text>
      <text x="371" y="187" clip-path="url(#clipPath39)" fill="black" font-family="&apos;Arial&apos;" stroke="none" xml:space="preserve">+getParent(): Module</text>
      <text x="371" y="201" clip-path="url(#clipPath40)" fill="black" font-family="&apos;Arial&apos;" stroke="none" xml:space="preserve">+getProjectedViewDescriptor(): IViewDescriptor</text>
      <text x="371" y="215" clip-path="url(#clipPath41)" fill="black" font-family="&apos;Arial&apos;" stroke="none" xml:space="preserve">+getStartupAction(): IAction</text>
      <text x="371" y="229" clip-path="url(#clipPath42)" fill="black" font-family="&apos;Arial&apos;" stroke="none" xml:space="preserve">+getSubModules(): List&lt;Module&gt;</text>
      <text x="371" y="243" clip-path="url(#clipPath43)" fill="black" font-family="&apos;Arial&apos;" stroke="none" xml:space="preserve">+hashCode(): int</text>
      <text x="371" y="257" clip-path="url(#clipPath44)" fill="black" font-family="&apos;Arial&apos;" stroke="none" xml:space="preserve">+isStarted(): boolean</text>
      <text x="371" y="271" clip-path="url(#clipPath45)" fill="black" font-family="&apos;Arial&apos;" stroke="none" xml:space="preserve">+removeSubModule(Module): boolean</text>
      <text x="371" y="285" clip-path="url(#clipPath46)" fill="black" font-family="&apos;Arial&apos;" stroke="none" xml:space="preserve">+removeSubModules(Collection&lt;Module&gt;): boolean</text>
      <text x="371" y="299" clip-path="url(#clipPath47)" fill="black" font-family="&apos;Arial&apos;" stroke="none" xml:space="preserve">+setDescription(String): void</text>
      <text x="371" y="313" clip-path="url(#clipPath48)" fill="black" font-family="&apos;Arial&apos;" stroke="none" xml:space="preserve">+setGrantedRoles(Collection&lt;String&gt;): void</text>
      <text x="371" y="327" clip-path="url(#clipPath49)" fill="black" font-family="&apos;Arial&apos;" stroke="none" xml:space="preserve">+setI18nDescription(String): void</text>
      <text x="371" y="341" clip-path="url(#clipPath50)" fill="black" font-family="&apos;Arial&apos;" stroke="none" xml:space="preserve">+setI18nName(String): void</text>
      <text x="371" y="355" clip-path="url(#clipPath51)" fill="black" font-family="&apos;Arial&apos;" stroke="none" xml:space="preserve">+setIconImageURL(String): void</text>
      <text x="371" y="369" clip-path="url(#clipPath52)" fill="black" font-family="&apos;Arial&apos;" stroke="none" xml:space="preserve">+setName(String): void</text>
      <text x="371" y="383" clip-path="url(#clipPath53)" fill="black" font-family="&apos;Arial&apos;" stroke="none" xml:space="preserve">+setParent(Module): void</text>
      <text x="371" y="397" clip-path="url(#clipPath54)" fill="black" font-family="&apos;Arial&apos;" stroke="none" xml:space="preserve">+setProjectedViewDescriptor(IViewDescriptor): void</text>
      <text x="371" y="411" clip-path="url(#clipPath55)" fill="black" font-family="&apos;Arial&apos;" stroke="none" xml:space="preserve">+setStarted(boolean): void</text>
      <text x="371" y="425" clip-path="url(#clipPath56)" fill="black" font-family="&apos;Arial&apos;" stroke="none" xml:space="preserve">+setStartupAction(IAction): void</text>
      <text x="371" y="439" clip-path="url(#clipPath57)" fill="black" font-family="&apos;Arial&apos;" stroke="none" xml:space="preserve">+setSubModules(List&lt;Module&gt;): void</text>
      <text x="371" y="453" clip-path="url(#clipPath58)" fill="black" font-family="&apos;Arial&apos;" stroke="none" xml:space="preserve">+toString(): String</text>
      <text x="371" y="467" clip-path="url(#clipPath59)" fill="black" font-family="&apos;Arial&apos;" stroke="none" xml:space="preserve">#updateParentsAndFireSubModulesChanged(List&lt;Module&gt;,List&lt;Module&gt;): void</text>
      <rect x="5" y="509" clip-path="url(#clipPath60)" width="315" height="44" stroke="none" />
      <rect x="5" y="509" clip-path="url(#clipPath60)" fill="none" width="315" height="44" stroke="black" />
      <text x="124" y="521" clip-path="url(#clipPath61)" fill="black" font-family="&apos;Arial&apos;" stroke="none" xml:space="preserve">&lt;&lt;Java Class&gt;&gt;</text>
    </g>
    <g stroke-miterlimit="0" font-weight="bold" font-family="&apos;Arial&apos;" stroke-linejoin="round">
      <text xml:space="preserve" x="128" y="536" clip-path="url(#clipPath62)" stroke="none">BeanModule</text>
      <text font-size="9" x="84" y="548" clip-path="url(#clipPath63)" stroke="none" font-weight="normal" xml:space="preserve">com.d2s.framework.application.model</text>
    </g>
    <g font-size="11" fill="white" font-family="&apos;Tahoma&apos;" stroke-linejoin="round" stroke="white" stroke-miterlimit="0">
      <rect x="5" y="553" clip-path="url(#clipPath64)" width="315" height="101" stroke="none" />
      <rect x="5" y="552" clip-path="url(#clipPath64)" fill="none" width="315" height="102" stroke="black" />
      <text x="9" y="565" clip-path="url(#clipPath65)" fill="black" font-family="&apos;Arial&apos;" stroke="none" xml:space="preserve">+equals(Object): boolean</text>
      <text x="9" y="579" clip-path="url(#clipPath66)" fill="black" font-family="&apos;Arial&apos;" stroke="none" xml:space="preserve">+getComponentDescriptor(): IComponentDescriptor&lt;Object&gt;</text>
      <text x="9" y="593" clip-path="url(#clipPath67)" fill="black" font-family="&apos;Arial&apos;" stroke="none" xml:space="preserve">+getModuleObject(): Object</text>
      <text x="9" y="607" clip-path="url(#clipPath68)" fill="black" font-family="&apos;Arial&apos;" stroke="none" xml:space="preserve">+hashCode(): int</text>
      <text x="9" y="621" clip-path="url(#clipPath69)" fill="black" font-family="&apos;Arial&apos;" stroke="none" xml:space="preserve">+propertyChange(PropertyChangeEvent): void</text>
      <text x="9" y="635" clip-path="url(#clipPath70)" fill="black" font-family="&apos;Arial&apos;" stroke="none" xml:space="preserve">+setComponentDescriptor(IComponentDescriptor&lt;Object&gt;): void</text>
      <text x="9" y="649" clip-path="url(#clipPath71)" fill="black" font-family="&apos;Arial&apos;" stroke="none" xml:space="preserve">+setModuleObject(Object): void</text>
      <rect x="384" y="509" clip-path="url(#clipPath72)" width="352" height="44" stroke="none" />
      <rect x="384" y="509" clip-path="url(#clipPath72)" fill="none" width="352" height="44" stroke="black" />
      <text x="522" y="521" clip-path="url(#clipPath73)" fill="black" font-family="&apos;Arial&apos;" stroke="none" xml:space="preserve">&lt;&lt;Java Class&gt;&gt;</text>
    </g>
    <g stroke-miterlimit="0" font-weight="bold" font-family="&apos;Arial&apos;" stroke-linejoin="round">
      <text xml:space="preserve" x="497" y="536" clip-path="url(#clipPath74)" stroke="none">BeanCollectionModule</text>
      <text font-size="9" x="481" y="548" clip-path="url(#clipPath75)" stroke="none" font-weight="normal" xml:space="preserve">com.d2s.framework.application.model</text>
    </g>
    <g font-size="11" fill="white" font-family="&apos;Tahoma&apos;" stroke-linejoin="round" stroke="white" stroke-miterlimit="0">
      <rect x="384" y="553" clip-path="url(#clipPath76)" width="352" height="115" stroke="none" />
      <rect x="384" y="552" clip-path="url(#clipPath76)" fill="none" width="352" height="116" stroke="black" />
      <text x="388" y="565" clip-path="url(#clipPath77)" fill="black" font-family="&apos;Arial&apos;" stroke="none" xml:space="preserve">+equals(Object): boolean</text>
      <text x="388" y="579" clip-path="url(#clipPath78)" fill="black" font-family="&apos;Arial&apos;" stroke="none" xml:space="preserve">+getElementComponentDescriptor(): IComponentDescriptor&lt;Object&gt;</text>
      <text x="388" y="593" clip-path="url(#clipPath79)" fill="black" font-family="&apos;Arial&apos;" stroke="none" xml:space="preserve">+getElementViewDescriptor(): IViewDescriptor</text>
      <text x="388" y="607" clip-path="url(#clipPath80)" fill="black" font-family="&apos;Arial&apos;" stroke="none" xml:space="preserve">+getModuleObjects(): Collection&lt;?&gt;</text>
      <text x="388" y="621" clip-path="url(#clipPath81)" fill="black" font-family="&apos;Arial&apos;" stroke="none" xml:space="preserve">+hashCode(): int</text>
      <text x="388" y="635" clip-path="url(#clipPath82)" fill="black" font-family="&apos;Arial&apos;" stroke="none" xml:space="preserve">+setElementComponentDescriptor(IComponentDescriptor&lt;Object&gt;): void</text>
      <text x="388" y="649" clip-path="url(#clipPath83)" fill="black" font-family="&apos;Arial&apos;" stroke="none" xml:space="preserve">+setElementViewDescriptor(IViewDescriptor): void</text>
      <text x="388" y="663" clip-path="url(#clipPath84)" fill="black" font-family="&apos;Arial&apos;" stroke="none" xml:space="preserve">+setModuleObjects(Collection&lt;?&gt;): void</text>
      <rect x="391" y="701" clip-path="url(#clipPath85)" width="338" height="44" stroke="none" />
      <rect x="391" y="701" clip-path="url(#clipPath85)" fill="none" width="338" height="44" stroke="black" />
      <text x="522" y="713" clip-path="url(#clipPath86)" fill="black" font-family="&apos;Arial&apos;" stroke="none" xml:space="preserve">&lt;&lt;Java Class&gt;&gt;</text>
    </g>
    <g stroke-miterlimit="0" font-weight="bold" font-family="&apos;Arial&apos;" stroke-linejoin="round">
      <text xml:space="preserve" x="471" y="728" clip-path="url(#clipPath87)" stroke="none">FilterableBeanCollectionModule</text>
      <text font-size="9" x="481" y="740" clip-path="url(#clipPath88)" stroke="none" font-weight="normal" xml:space="preserve">com.d2s.framework.application.model</text>
    </g>
    <g font-size="11" fill="white" font-family="&apos;Tahoma&apos;" stroke-linejoin="round" stroke="white" stroke-miterlimit="0">
      <rect x="391" y="745" clip-path="url(#clipPath89)" width="338" height="87" stroke="none" />
      <rect x="391" y="744" clip-path="url(#clipPath89)" fill="none" width="338" height="88" stroke="black" />
      <text x="395" y="757" clip-path="url(#clipPath90)" fill="black" font-family="&apos;Arial&apos;" stroke="none" xml:space="preserve">+getFilter(): Object</text>
      <text x="395" y="771" clip-path="url(#clipPath91)" fill="black" font-family="&apos;Arial&apos;" stroke="none" xml:space="preserve">+getFilterComponentDescriptor(): IComponentDescriptor&lt;Object&gt;</text>
      <text x="395" y="785" clip-path="url(#clipPath92)" fill="black" font-family="&apos;Arial&apos;" stroke="none" xml:space="preserve">+getFilterViewDescriptor(): IViewDescriptor</text>
      <text x="395" y="799" clip-path="url(#clipPath93)" fill="black" font-family="&apos;Arial&apos;" stroke="none" xml:space="preserve">+setFilter(Object): void</text>
      <text x="395" y="813" clip-path="url(#clipPath94)" fill="black" font-family="&apos;Arial&apos;" stroke="none" xml:space="preserve">+setFilterComponentDescriptor(IComponentDescriptor&lt;Object&gt;): void</text>
      <text x="395" y="827" clip-path="url(#clipPath95)" fill="black" font-family="&apos;Arial&apos;" stroke="none" xml:space="preserve">+setFilterViewDescriptor(IViewDescriptor): void</text>
      <line clip-path="url(#clipPath96)" fill="none" x1="734" x2="742" y1="472" y2="483" stroke="black" />
      <line clip-path="url(#clipPath96)" fill="none" x1="742" x2="764" y1="483" y2="483" stroke="black" />
      <line clip-path="url(#clipPath96)" fill="none" x1="764" x2="764" y1="483" y2="461" stroke="black" />
      <line clip-path="url(#clipPath96)" fill="none" x1="764" x2="753" y1="461" y2="449" stroke="black" />
      <text x="764" y="454" clip-path="url(#clipPath97)" fill="black" font-family="&apos;Arial&apos;" stroke="none" xml:space="preserve">-subModules</text>
      <text x="764" y="474" clip-path="url(#clipPath98)" fill="black" stroke="none" xml:space="preserve">0..*</text>
      <line clip-path="url(#clipPath99)" fill="none" x1="762" x2="753" y1="452" y2="449" stroke="black" />
      <line clip-path="url(#clipPath99)" fill="none" x1="753" x2="756" y1="449" y2="458" stroke="black" />
      <line clip-path="url(#clipPath100)" fill="none" x1="716" x2="731" y1="472" y2="494" stroke="black" />
      <line clip-path="url(#clipPath100)" fill="none" x1="731" x2="775" y1="494" y2="494" stroke="black" />
      <line clip-path="url(#clipPath100)" fill="none" x1="775" x2="775" y1="494" y2="450" stroke="black" />
      <line clip-path="url(#clipPath100)" fill="none" x1="775" x2="753" y1="450" y2="428" stroke="black" />
      <text x="764" y="433" clip-path="url(#clipPath101)" fill="black" font-family="&apos;Arial&apos;" stroke="none" xml:space="preserve">-parent</text>
      <text x="764" y="453" clip-path="url(#clipPath102)" fill="black" stroke="none" xml:space="preserve">0..1</text>
      <line clip-path="url(#clipPath103)" fill="none" x1="762" x2="753" y1="431" y2="428" stroke="black" />
      <line clip-path="url(#clipPath103)" fill="none" x1="753" x2="756" y1="428" y2="437" stroke="black" />
      <line clip-path="url(#clipPath104)" fill="none" x1="285" x2="326" y1="238" y2="238" stroke="black" />
      <line clip-path="url(#clipPath104)" fill="none" x1="326" x2="367" y1="238" y2="238" stroke="black" />
      <text x="312" y="232" clip-path="url(#clipPath105)" fill="black" font-family="&apos;Arial&apos;" stroke="none" xml:space="preserve">-modules</text>
      <text x="336" y="252" clip-path="url(#clipPath106)" fill="black" stroke="none" xml:space="preserve">0..*</text>
      <line clip-path="url(#clipPath107)" fill="none" x1="359" x2="367" y1="242" y2="238" stroke="black" />
      <line clip-path="url(#clipPath107)" fill="none" x1="367" x2="359" y1="238" y2="234" stroke="black" />
      <line clip-path="url(#clipPath108)" fill="none" x1="246" x2="306" y1="509" y2="457" stroke="black" />
      <line clip-path="url(#clipPath108)" fill="none" x1="306" x2="367" y1="457" y2="405" stroke="black" />
      <polygon clip-path="url(#clipPath109)" points=" 367 405 360 418 353 410" stroke="none" />
      <polygon fill="none" clip-path="url(#clipPath109)" points=" 367 405 360 418 353 410" stroke="black" />
      <line clip-path="url(#clipPath110)" fill="none" x1="560" x2="560" y1="509" y2="490" stroke="black" />
      <line clip-path="url(#clipPath110)" fill="none" x1="560" x2="560" y1="490" y2="472" stroke="black" />
      <polygon clip-path="url(#clipPath111)" points=" 560 472 565 486 555 486" stroke="none" />
      <polygon fill="none" clip-path="url(#clipPath111)" points=" 560 472 565 486 555 486" stroke="black" />
      <line clip-path="url(#clipPath112)" fill="none" x1="560" x2="560" y1="701" y2="684" stroke="black" />
      <line clip-path="url(#clipPath112)" fill="none" x1="560" x2="560" y1="684" y2="668" stroke="black" />
      <polygon clip-path="url(#clipPath113)" points=" 560 668 565 682 555 682" stroke="none" />
      <polygon fill="none" clip-path="url(#clipPath113)" points=" 560 668 565 682 555 682" stroke="black" />
    </g>
  </g>
</svg>
