<?xml version="1.0" encoding="UTF-8" standalone="no"?>
<!-- Created with Bouml (http://bouml.free.fr/) -->
<!DOCTYPE svg PUBLIC "-//W3C//DTD SVG 1.1//EN" "http://www.w3.org/Graphics/SVG/1.1/DTD/svg11.dtd">
<svg width="648" height="563" version="1.1" xmlns="http://www.w3.org/2000/svg">
<g>
	<line stroke="black" stroke-opacity="1" x1="291" y1="509" x2="291" y2="339" />
	<line stroke="black" stroke-opacity="1" x1="291" y1="333" x2="285" y2="339" />
	<line stroke="black" stroke-opacity="1" x1="291" y1="333" x2="297" y2="339" />
	<line stroke="black" stroke-opacity="1" x1="285" y1="339" x2="297" y2="339" />
</g>
<g>
	<line stroke-dasharray="4,4" stroke="black" stroke-opacity="1" x1="272" y1="280" x2="186" y2="154" />
	<line stroke="black" stroke-opacity="1" x1="183" y1="150" x2="181" y2="158" />
	<line stroke="black" stroke-opacity="1" x1="183" y1="150" x2="191" y2="151" />
	<line stroke="black" stroke-opacity="1" x1="181" y1="158" x2="191" y2="151" />
</g>
<g>
	<line stroke="black" stroke-opacity="1" x1="521" y1="475" x2="330" y2="336" />
	<line stroke="black" stroke-opacity="1" x1="326" y1="333" x2="327" y2="341" />
	<line stroke="black" stroke-opacity="1" x1="326" y1="333" x2="334" y2="331" />
	<line stroke="black" stroke-opacity="1" x1="327" y1="341" x2="334" y2="331" />
</g>
<g>
	<line stroke-dasharray="4,4" stroke="black" stroke-opacity="1" x1="291" y1="280" x2="291" y2="156" />
	<line stroke="black" stroke-opacity="1" x1="291" y1="150" x2="285" y2="156" />
	<line stroke="black" stroke-opacity="1" x1="291" y1="150" x2="297" y2="156" />
	<line stroke="black" stroke-opacity="1" x1="285" y1="156" x2="297" y2="156" />
</g>
<g>
	<line stroke="black" stroke-opacity="1" x1="38" y1="382" x2="38" y2="530" />
	<polygon fill="white" stroke="black" stroke-opacity="1" points="38,382 44,388 38,394 32,388" />
</g>
<g>
	<text font-family="Helvetica" font-size="12" fill="black" font-style="italic" x="46" y="526">companyDepartments</text>
</g>
<g>
	<line stroke="black" stroke-opacity="1" x1="38" y1="530" x2="247" y2="530" />
</g>
<g>
	<line stroke-dasharray="4,4" stroke="black" stroke-opacity="1" x1="306" y1="280" x2="385" y2="155" />
	<line stroke="black" stroke-opacity="1" x1="389" y1="150" x2="380" y2="151" />
	<line stroke="black" stroke-opacity="1" x1="389" y1="150" x2="390" y2="158" />
	<line stroke="black" stroke-opacity="1" x1="380" y1="151" x2="390" y2="158" />
</g>
<g>
	<text font-family="Helvetica" font-size="12" fill="black" font-style="italic" x="416" y="526">departmentTeams</text>
</g>
<g>
	<line stroke="black" stroke-opacity="1" x1="334" y1="530" x2="546" y2="530" />
	<polygon fill="white" stroke="black" stroke-opacity="1" points="334,530 340,524 346,530 340,536" />
</g>
<g>
	<line stroke="black" stroke-opacity="1" x1="546" y1="530" x2="546" y2="514" />
</g>
<g>
	<line stroke="black" stroke-opacity="1" x1="356" y1="307" x2="508" y2="307" />
</g>
<g>
	<line stroke="black" stroke-opacity="1" x1="546" y1="375" x2="546" y2="473" />
</g>
<g>
	<line stroke="black" stroke-opacity="1" x1="37" y1="341" x2="37" y2="20" />
	<polygon fill="white" stroke="black" stroke-opacity="1" points="37,341 31,335 37,329 43,335" />
</g>
<g>
	<line stroke="black" stroke-opacity="1" x1="37" y1="20" x2="545" y2="20" />
</g>
<g>
	<line stroke="black" stroke-opacity="1" x1="545" y1="20" x2="545" y2="238" />
</g>
<g>
	<line stroke-dasharray="4,4" stroke="black" stroke-opacity="1" x1="45" y1="341" x2="126" y2="155" />
	<line stroke="black" stroke-opacity="1" x1="129" y1="150" x2="121" y2="153" />
	<line stroke="black" stroke-opacity="1" x1="129" y1="150" x2="132" y2="157" />
	<line stroke="black" stroke-opacity="1" x1="121" y1="153" x2="132" y2="157" />
</g>
<g>
	<line stroke-dasharray="4,4" stroke="black" stroke-opacity="1" x1="57" y1="341" x2="245" y2="154" />
	<line stroke="black" stroke-opacity="1" x1="250" y1="150" x2="241" y2="149" />
	<line stroke="black" stroke-opacity="1" x1="250" y1="150" x2="249" y2="158" />
	<line stroke="black" stroke-opacity="1" x1="241" y1="149" x2="249" y2="158" />
</g>
<g>
	<line stroke-dasharray="4,4" stroke="black" stroke-opacity="1" x1="65" y1="341" x2="374" y2="129" />
	<line stroke="black" stroke-opacity="1" x1="379" y1="126" x2="370" y2="124" />
	<line stroke="black" stroke-opacity="1" x1="379" y1="126" x2="377" y2="134" />
	<line stroke="black" stroke-opacity="1" x1="370" y1="124" x2="377" y2="134" />
</g>
<g>
	<rect fill="#808080" stroke="none" stroke-opacity="1" x="70" y="346" width="3" height="35" />
	<rect fill="#808080" stroke="none" stroke-opacity="1" x="6" y="378" width="67" height="3" />
	<rect fill="#ffffc0" stroke="black" stroke-width="1" stroke-opacity="1" x="2" y="342" width="68" height="36" />
	<text font-family="Helvetica" font-size="12" fill="black" font-weight="bold" text-anchor="middle" x="36" y="357">Company</text>
	<line stroke="black" stroke-opacity="1" x1="2" y1="362" x2="70" y2="362" />
	<line stroke="black" stroke-opacity="1" x1="2" y1="370" x2="70" y2="370" />
</g>
<g>
	<rect fill="#808080" stroke="none" stroke-opacity="1" x="333" y="82" width="3" height="67" />
	<rect fill="#808080" stroke="none" stroke-opacity="1" x="249" y="146" width="87" height="3" />
	<rect fill="#ffffc0" stroke="black" stroke-width="1" stroke-opacity="1" x="245" y="78" width="88" height="68" />
	<text font-family="Helvetica" font-size="12" fill="black" text-anchor="middle" x="289" y="93">&lt;&lt;interface&gt;&gt;</text>
	<text font-family="Helvetica" font-size="12" fill="black" font-weight="bold" text-anchor="middle" x="289" y="113">Nameable</text>
	<line stroke="black" stroke-opacity="1" x1="245" y1="118" x2="333" y2="118" />
	<text font-family="Helvetica" font-size="12" fill="black" x="249" y="133">name</text>
	<line stroke="black" stroke-opacity="1" x1="245" y1="138" x2="333" y2="138" />
</g>
<g>
	<rect fill="#808080" stroke="none" stroke-opacity="1" x="330" y="514" width="3" height="35" />
	<rect fill="#808080" stroke="none" stroke-opacity="1" x="252" y="546" width="81" height="3" />
	<rect fill="#ffffc0" stroke="black" stroke-width="1" stroke-opacity="1" x="248" y="510" width="82" height="36" />
	<text font-family="Helvetica" font-size="12" fill="black" font-weight="bold" text-anchor="middle" x="289" y="525">Department</text>
	<line stroke="black" stroke-opacity="1" x1="248" y1="530" x2="330" y2="530" />
	<line stroke="black" stroke-opacity="1" x1="248" y1="538" x2="330" y2="538" />
</g>
<g>
	<rect fill="#808080" stroke="none" stroke-opacity="1" x="566" y="478" width="3" height="35" />
	<rect fill="#808080" stroke="none" stroke-opacity="1" x="526" y="510" width="43" height="3" />
	<rect fill="#ffffc0" stroke="black" stroke-width="1" stroke-opacity="1" x="522" y="474" width="44" height="36" />
	<text font-family="Helvetica" font-size="12" fill="black" font-weight="bold" text-anchor="middle" x="544" y="489">Team</text>
	<line stroke="black" stroke-opacity="1" x1="522" y1="494" x2="566" y2="494" />
	<line stroke="black" stroke-opacity="1" x1="522" y1="502" x2="566" y2="502" />
</g>
<g>
	<rect fill="#808080" stroke="none" stroke-opacity="1" x="217" y="64" width="3" height="85" />
	<rect fill="#808080" stroke="none" stroke-opacity="1" x="87" y="146" width="133" height="3" />
	<rect fill="#ffffc0" stroke="black" stroke-width="1" stroke-opacity="1" x="83" y="60" width="134" height="86" />
	<text font-family="Helvetica" font-size="12" fill="black" text-anchor="middle" x="150" y="75">&lt;&lt;interface&gt;&gt;</text>
	<text font-family="Helvetica" font-size="12" fill="black" font-weight="bold" text-anchor="middle" x="150" y="95">Traceable</text>
	<line stroke="black" stroke-opacity="1" x1="83" y1="100" x2="217" y2="100" />
	<text font-family="Helvetica" font-size="12" fill="black" x="87" y="115">createTimestamp</text>
	<text font-family="Helvetica" font-size="12" fill="black" x="87" y="133">lastUpdateTimestamp</text>
	<line stroke="black" stroke-opacity="1" x1="83" y1="138" x2="217" y2="138" />
</g>
<g>
	<rect fill="#808080" stroke="none" stroke-opacity="1" x="352" y="285" width="3" height="47" />
	<rect fill="#808080" stroke="none" stroke-opacity="1" x="230" y="329" width="125" height="3" />
	<rect fill="#ffffc0" stroke="black" stroke-width="1" stroke-opacity="1" x="226" y="281" width="126" height="48" />
	<text font-family="Helvetica" font-size="12" fill="black" font-weight="bold" text-anchor="middle" x="289" y="296">OrganizationalUnit</text>
	<line stroke="black" stroke-opacity="1" x1="226" y1="301" x2="352" y2="301" />
	<text font-family="Helvetica" font-size="12" fill="black" x="230" y="316">ouId</text>
	<line stroke="black" stroke-opacity="1" x1="226" y1="321" x2="352" y2="321" />
</g>
<g>
	<rect fill="#808080" stroke="none" stroke-opacity="1" x="468" y="46" width="3" height="103" />
	<rect fill="#808080" stroke="none" stroke-opacity="1" x="384" y="146" width="87" height="3" />
	<rect fill="#ffffc0" stroke="black" stroke-width="1" stroke-opacity="1" x="380" y="42" width="88" height="104" />
	<text font-family="Helvetica" font-size="12" fill="black" text-anchor="middle" x="424" y="57">&lt;&lt;interface&gt;&gt;</text>
	<text font-family="Helvetica" font-size="12" fill="black" font-weight="bold" text-anchor="middle" x="424" y="77">Localizable</text>
	<line stroke="black" stroke-opacity="1" x1="380" y1="82" x2="468" y2="82" />
	<text font-family="Helvetica" font-size="12" fill="black" x="384" y="97">address</text>
	<text font-family="Helvetica" font-size="12" fill="black" x="384" y="115">phone</text>
	<text font-family="Helvetica" font-size="12" fill="black" x="384" y="133">email</text>
	<line stroke="black" stroke-opacity="1" x1="380" y1="138" x2="468" y2="138" />
</g>
<g>
	<rect fill="#808080" stroke="none" stroke-opacity="1" x="579" y="243" width="3" height="131" />
	<rect fill="#808080" stroke="none" stroke-opacity="1" x="513" y="371" width="69" height="3" />
	<rect fill="#ffffc0" stroke="black" stroke-width="1" stroke-opacity="1" x="509" y="239" width="70" height="132" />
	<text font-family="Helvetica" font-size="12" fill="black" font-weight="bold" text-anchor="middle" x="544" y="254">Employee</text>
	<line stroke="black" stroke-opacity="1" x1="509" y1="259" x2="579" y2="259" />
	<text font-family="Helvetica" font-size="12" fill="black" x="513" y="274">firstName</text>
	<text font-family="Helvetica" font-size="12" fill="black" x="513" y="292">ssn</text>
	<text font-family="Helvetica" font-size="12" fill="black" x="513" y="310">birthDate</text>
	<text font-family="Helvetica" font-size="12" fill="black" x="513" y="328">hireDate</text>
	<text font-family="Helvetica" font-size="12" fill="black" x="513" y="346">gender</text>
	<line stroke="black" stroke-opacity="1" x1="509" y1="351" x2="579" y2="351" />
	<text font-family="Helvetica" font-size="12" fill="black" x="513" y="366">getAge()</text>
</g>
<g>
	<text font-family="Helvetica" font-size="12" fill="black" x="125" y="544">&lt;&lt;set&gt;&gt;</text>
</g>
<g>
	<text font-family="Helvetica" font-size="12" fill="black" x="165" y="522">departments</text>
</g>
<g>
	<text font-family="Helvetica" font-size="12" fill="black" x="48" y="403">company</text>
</g>
<g>
	<text font-family="Helvetica" font-size="12" fill="black" x="232" y="551">*</text>
</g>
<g>
	<text font-family="Helvetica" font-size="12" fill="black" x="21" y="403">1</text>
</g>
<g>
	<text font-family="Helvetica" font-size="12" fill="black" x="447" y="542">&lt;&lt;set&gt;&gt;</text>
</g>
<g>
	<text font-family="Helvetica" font-size="12" fill="black" x="551" y="528">teams</text>
</g>
<g>
	<text font-family="Helvetica" font-size="12" fill="black" x="344" y="522">department</text>
</g>
<g>
	<text font-family="Helvetica" font-size="12" fill="black" x="533" y="543">*</text>
</g>
<g>
	<text font-family="Helvetica" font-size="12" fill="black" x="344" y="551">1</text>
</g>
<g>
	<text font-family="Helvetica" font-size="12" fill="black" x="448" y="299">manager</text>
</g>
<g>
	<text font-family="Helvetica" font-size="12" fill="black" x="491" y="328">1</text>
</g>
<g>
	<text font-family="Helvetica" font-size="12" fill="black" x="521" y="434">&lt;&lt;set&gt;&gt;</text>
</g>
<g>
	<text font-family="Helvetica" font-size="12" fill="black" x="556" y="465">teams</text>
</g>
<g>
	<text font-family="Helvetica" font-size="12" fill="black" x="556" y="396">teamMembers</text>
</g>
<g>
	<text font-family="Helvetica" font-size="12" fill="black" x="531" y="465">*</text>
</g>
<g>
	<text font-family="Helvetica" font-size="12" fill="black" x="516" y="396">1..*</text>
</g>
<g>
	<text font-family="Helvetica" font-size="12" fill="black" x="386" y="-12">&lt;&lt;set&gt;&gt;</text>
</g>
<g>
	<text font-family="Helvetica" font-size="12" fill="black" x="555" y="230">employees</text>
</g>
<g>
	<text font-family="Helvetica" font-size="12" fill="black" x="47" y="333">company</text>
</g>
<g>
	<text font-family="Helvetica" font-size="12" fill="black" x="515" y="230">1..*</text>
</g>
<g>
	<text font-family="Helvetica" font-size="12" fill="black" x="20" y="333">1</text>
</g>
<g>
	<text font-family="Helvetica" font-size="12" fill="black" x="366" y="328">0..1</text>
</g>
<g>
	<text font-family="Helvetica" font-size="12" fill="black" x="366" y="299">managedOU</text>
</g>
</svg>
