<?xml version="1.0" encoding="UTF-8" standalone="no"?>
<!-- Created with Bouml (http://bouml.free.fr/) -->
<!DOCTYPE svg PUBLIC "-//W3C//DTD SVG 1.1//EN" "http://www.w3.org/Graphics/SVG/1.1/DTD/svg11.dtd">
<svg width="840" height="751" version="1.1" xmlns="http://www.w3.org/2000/svg">
<g>
	<line stroke="black" stroke-opacity="1" x1="542" y1="216" x2="381" y2="75" />
	<line stroke="black" stroke-opacity="1" x1="377" y1="72" x2="377" y2="80" />
	<line stroke="black" stroke-opacity="1" x1="377" y1="72" x2="385" y2="71" />
	<line stroke="black" stroke-opacity="1" x1="377" y1="80" x2="385" y2="71" />
</g>
<g>
	<line stroke="black" stroke-opacity="1" x1="614" y1="365" x2="544" y2="318" />
</g>
<g>
	<line stroke="black" stroke-opacity="1" x1="613" y1="239" x2="542" y2="216" />
</g>
<g>
	<line stroke="black" stroke-opacity="1" x1="613" y1="78" x2="428" y2="48" />
	<line stroke="black" stroke-opacity="1" x1="423" y1="48" x2="427" y2="54" />
	<line stroke="black" stroke-opacity="1" x1="423" y1="48" x2="429" y2="43" />
	<line stroke="black" stroke-opacity="1" x1="427" y1="54" x2="429" y2="43" />
</g>
<g>
	<line stroke="black" stroke-opacity="1" x1="315" y1="238" x2="330" y2="77" />
	<line stroke="black" stroke-opacity="1" x1="331" y1="72" x2="324" y2="77" />
	<line stroke="black" stroke-opacity="1" x1="331" y1="72" x2="336" y2="78" />
	<line stroke="black" stroke-opacity="1" x1="324" y1="77" x2="336" y2="78" />
</g>
<g>
	<line stroke="black" stroke-opacity="1" x1="497" y1="365" x2="355" y2="77" />
	<line stroke="black" stroke-opacity="1" x1="353" y1="72" x2="350" y2="80" />
	<line stroke="black" stroke-opacity="1" x1="353" y1="72" x2="361" y2="74" />
	<line stroke="black" stroke-opacity="1" x1="350" y1="80" x2="361" y2="74" />
</g>
<g>
	<line stroke="black" stroke-opacity="1" x1="427" y1="581" x2="487" y2="479" />
	<line stroke="black" stroke-opacity="1" x1="491" y1="474" x2="482" y2="476" />
	<line stroke="black" stroke-opacity="1" x1="491" y1="474" x2="493" y2="482" />
	<line stroke="black" stroke-opacity="1" x1="482" y1="476" x2="493" y2="482" />
</g>
<g>
	<line stroke="black" stroke-opacity="1" x1="614" y1="302" x2="544" y2="278" />
</g>
<g>
	<line stroke="black" stroke-opacity="1" x1="157" y1="238" x2="209" y2="219" />
</g>
<g>
	<line stroke="black" stroke-opacity="1" x1="544" y1="318" x2="365" y2="76" />
	<line stroke="black" stroke-opacity="1" x1="362" y1="72" x2="360" y2="80" />
	<line stroke="black" stroke-opacity="1" x1="362" y1="72" x2="370" y2="73" />
	<line stroke="black" stroke-opacity="1" x1="360" y1="80" x2="370" y2="73" />
</g>
<g>
	<line stroke="black" stroke-opacity="1" x1="544" y1="278" x2="370" y2="76" />
	<line stroke="black" stroke-opacity="1" x1="367" y1="72" x2="366" y2="80" />
	<line stroke="black" stroke-opacity="1" x1="367" y1="72" x2="375" y2="72" />
	<line stroke="black" stroke-opacity="1" x1="366" y1="80" x2="375" y2="72" />
</g>
<g>
	<line stroke="black" stroke-opacity="1" x1="209" y1="219" x2="305" y2="76" />
	<line stroke="black" stroke-opacity="1" x1="309" y1="72" x2="300" y2="73" />
	<line stroke="black" stroke-opacity="1" x1="309" y1="72" x2="310" y2="80" />
	<line stroke="black" stroke-opacity="1" x1="300" y1="73" x2="310" y2="80" />
</g>
<g>
	<line stroke="black" stroke-opacity="1" x1="91" y1="583" x2="91" y2="564" />
	<line stroke="black" stroke-opacity="1" x1="91" y1="558" x2="85" y2="564" />
	<line stroke="black" stroke-opacity="1" x1="91" y1="558" x2="97" y2="564" />
	<line stroke="black" stroke-opacity="1" x1="85" y1="564" x2="97" y2="564" />
</g>
<g>
	<line stroke="black" stroke-opacity="1" x1="589" y1="581" x2="548" y2="479" />
	<line stroke="black" stroke-opacity="1" x1="546" y1="474" x2="542" y2="481" />
	<line stroke="black" stroke-opacity="1" x1="546" y1="474" x2="553" y2="477" />
	<line stroke="black" stroke-opacity="1" x1="542" y1="481" x2="553" y2="477" />
</g>
<g>
	<line stroke="black" stroke-opacity="1" x1="188" y1="98" x2="242" y2="73" />
	<line stroke="black" stroke-opacity="1" x1="248" y1="71" x2="240" y2="67" />
	<line stroke="black" stroke-opacity="1" x1="248" y1="71" x2="244" y2="78" />
	<line stroke="black" stroke-opacity="1" x1="240" y1="67" x2="244" y2="78" />
</g>
<g>
	<line stroke="black" stroke-opacity="1" x1="313" y1="365" x2="313" y2="317" />
	<line stroke="black" stroke-opacity="1" x1="313" y1="311" x2="307" y2="317" />
	<line stroke="black" stroke-opacity="1" x1="313" y1="311" x2="319" y2="317" />
	<line stroke="black" stroke-opacity="1" x1="307" y1="317" x2="319" y2="317" />
</g>
<g>
	<line stroke="black" stroke-opacity="1" x1="169" y1="330" x2="311" y2="77" />
	<line stroke="black" stroke-opacity="1" x1="314" y1="72" x2="305" y2="74" />
	<line stroke="black" stroke-opacity="1" x1="314" y1="72" x2="316" y2="80" />
	<line stroke="black" stroke-opacity="1" x1="305" y1="74" x2="316" y2="80" />
</g>
<g>
	<line stroke="black" stroke-opacity="1" x1="92" y1="485" x2="92" y2="462" />
	<line stroke="black" stroke-opacity="1" x1="92" y1="456" x2="86" y2="462" />
	<line stroke="black" stroke-opacity="1" x1="92" y1="456" x2="98" y2="462" />
	<line stroke="black" stroke-opacity="1" x1="86" y1="462" x2="98" y2="462" />
</g>
<g>
	<line stroke="black" stroke-opacity="1" x1="133" y1="365" x2="169" y2="330" />
</g>
<g>
	<line stroke="black" stroke-opacity="1" x1="603" y1="666" x2="603" y2="648" />
	<line stroke="black" stroke-opacity="1" x1="603" y1="642" x2="597" y2="648" />
	<line stroke="black" stroke-opacity="1" x1="603" y1="642" x2="609" y2="648" />
	<line stroke="black" stroke-opacity="1" x1="597" y1="648" x2="609" y2="648" />
</g>
<g>
	<line stroke="black" stroke-opacity="1" x1="250" y1="485" x2="189" y2="455" />
	<line stroke="black" stroke-opacity="1" x1="184" y1="453" x2="186" y2="461" />
	<line stroke="black" stroke-opacity="1" x1="184" y1="453" x2="192" y2="450" />
	<line stroke="black" stroke-opacity="1" x1="186" y1="461" x2="192" y2="450" />
</g>
<g>
	<line stroke="black" stroke-opacity="1" x1="613" y1="149" x2="428" y2="73" />
	<line stroke="black" stroke-opacity="1" x1="423" y1="71" x2="426" y2="78" />
	<line stroke="black" stroke-opacity="1" x1="423" y1="71" x2="430" y2="67" />
	<line stroke="black" stroke-opacity="1" x1="426" y1="78" x2="430" y2="67" />
</g>
<g>
	<rect fill="#808080" stroke="none" stroke-opacity="1" x="419" y="4" width="3" height="67" />
	<rect fill="#808080" stroke="none" stroke-opacity="1" x="253" y="68" width="169" height="3" />
	<rect fill="#ffffc0" stroke="black" stroke-width="1" stroke-opacity="1" x="249" y="0" width="170" height="68" />
	<text font-family="Helvetica" font-size="12" fill="black" text-anchor="middle" x="334" y="15">&lt;&lt;interface&gt;&gt;</text>
	<text font-family="Helvetica" font-size="12" fill="black" font-weight="bold" text-anchor="middle" x="334" y="35">IScalarPropertyDescriptor</text>
	<line stroke="black" stroke-opacity="1" x1="249" y1="40" x2="419" y2="40" />
	<line stroke="black" stroke-opacity="1" x1="249" y1="48" x2="419" y2="48" />
	<text font-family="Helvetica" font-size="12" fill="black" x="253" y="63">getDefaultValue()</text>
</g>
<g>
	<rect fill="#808080" stroke="none" stroke-opacity="1" x="182" y="490" width="3" height="67" />
	<rect fill="#808080" stroke="none" stroke-opacity="1" x="4" y="554" width="181" height="3" />
	<rect fill="#ffffc0" stroke="black" stroke-width="1" stroke-opacity="1" x="0" y="486" width="182" height="68" />
	<text font-family="Helvetica" font-size="12" fill="black" text-anchor="middle" x="91" y="501">&lt;&lt;interface&gt;&gt;</text>
	<text font-family="Helvetica" font-size="12" fill="black" font-weight="bold" text-anchor="middle" x="91" y="521">IDecimalPropertyDescriptor</text>
	<line stroke="black" stroke-opacity="1" x1="0" y1="526" x2="182" y2="526" />
	<line stroke="black" stroke-opacity="1" x1="0" y1="534" x2="182" y2="534" />
	<text font-family="Helvetica" font-size="12" fill="black" x="4" y="549">getMaxFractionDigit()</text>
</g>
<g>
	<rect fill="#808080" stroke="none" stroke-opacity="1" x="705" y="671" width="3" height="67" />
	<rect fill="#808080" stroke="none" stroke-opacity="1" x="501" y="735" width="207" height="3" />
	<rect fill="#ffffc0" stroke="black" stroke-width="1" stroke-opacity="1" x="497" y="667" width="208" height="68" />
	<text font-family="Helvetica" font-size="12" fill="black" text-anchor="middle" x="601" y="682">&lt;&lt;interface&gt;&gt;</text>
	<text font-family="Helvetica" font-size="12" fill="black" font-weight="bold" text-anchor="middle" x="601" y="702">ISourceCodePropertyDescriptor</text>
	<line stroke="black" stroke-opacity="1" x1="497" y1="707" x2="705" y2="707" />
	<line stroke="black" stroke-opacity="1" x1="497" y1="715" x2="705" y2="715" />
	<text font-family="Helvetica" font-size="12" fill="black" x="501" y="730">getLanguage()</text>
</g>
<g>
	<rect fill="#808080" stroke="none" stroke-opacity="1" x="396" y="243" width="3" height="67" />
	<rect fill="#808080" stroke="none" stroke-opacity="1" x="230" y="307" width="169" height="3" />
	<rect fill="#ffffc0" stroke="black" stroke-width="1" stroke-opacity="1" x="226" y="239" width="170" height="68" />
	<text font-family="Helvetica" font-size="12" fill="black" text-anchor="middle" x="311" y="254">&lt;&lt;interface&gt;&gt;</text>
	<text font-family="Helvetica" font-size="12" fill="black" font-weight="bold" text-anchor="middle" x="311" y="274">IBinaryPropertyDescriptor</text>
	<line stroke="black" stroke-opacity="1" x1="226" y1="279" x2="396" y2="279" />
	<line stroke="black" stroke-opacity="1" x1="226" y1="287" x2="396" y2="287" />
	<text font-family="Helvetica" font-size="12" fill="black" x="230" y="302">getMaxLength()</text>
</g>
<g>
	<rect fill="#808080" stroke="none" stroke-opacity="1" x="178" y="588" width="3" height="55" />
	<rect fill="#808080" stroke="none" stroke-opacity="1" x="4" y="640" width="177" height="3" />
	<rect fill="#ffffc0" stroke="black" stroke-width="1" stroke-opacity="1" x="0" y="584" width="178" height="56" />
	<text font-family="Helvetica" font-size="12" fill="black" text-anchor="middle" x="89" y="599">&lt;&lt;interface&gt;&gt;</text>
	<text font-family="Helvetica" font-size="12" fill="black" font-weight="bold" text-anchor="middle" x="89" y="619">IPercentPropertyDescriptor</text>
	<line stroke="black" stroke-opacity="1" x1="0" y1="624" x2="178" y2="624" />
	<line stroke="black" stroke-opacity="1" x1="0" y1="632" x2="178" y2="632" />
</g>
<g>
	<rect fill="#808080" stroke="none" stroke-opacity="1" x="772" y="136" width="3" height="97" />
	<rect fill="#808080" stroke="none" stroke-opacity="1" x="618" y="230" width="157" height="3" />
	<rect fill="#ffffc0" stroke="black" stroke-width="1" stroke-opacity="1" x="614" y="132" width="158" height="98" />
	<text font-family="Helvetica" font-size="12" fill="black" text-anchor="middle" x="693" y="147">&lt;&lt;interface&gt;&gt;</text>
	<text font-family="Helvetica" font-size="12" fill="black" font-weight="bold" text-anchor="middle" x="693" y="167">IDatePropertyDescriptor</text>
	<line stroke="black" stroke-opacity="1" x1="614" y1="172" x2="772" y2="172" />
	<text font-family="Helvetica" font-size="12" fill="black" x="618" y="187">DATE_TIME_TYPE</text>
	<text font-family="Helvetica" font-size="12" fill="black" x="618" y="205">DATE_TYPE</text>
	<line stroke="black" stroke-opacity="1" x1="614" y1="210" x2="772" y2="210" />
	<text font-family="Helvetica" font-size="12" fill="black" x="618" y="225">getType()</text>
</g>
<g>
	<rect fill="#808080" stroke="none" stroke-opacity="1" x="776" y="307" width="3" height="55" />
	<rect fill="#808080" stroke="none" stroke-opacity="1" x="618" y="359" width="161" height="3" />
	<rect fill="#ffffc0" stroke="black" stroke-width="1" stroke-opacity="1" x="614" y="303" width="162" height="56" />
	<text font-family="Helvetica" font-size="12" fill="black" text-anchor="middle" x="695" y="318">&lt;&lt;interface&gt;&gt;</text>
	<text font-family="Helvetica" font-size="12" fill="black" font-weight="bold" text-anchor="middle" x="695" y="338">ITimePropertyDescriptor</text>
	<line stroke="black" stroke-opacity="1" x1="614" y1="343" x2="776" y2="343" />
	<line stroke="black" stroke-opacity="1" x1="614" y1="351" x2="776" y2="351" />
</g>
<g>
	<rect fill="#808080" stroke="none" stroke-opacity="1" x="180" y="370" width="3" height="85" />
	<rect fill="#808080" stroke="none" stroke-opacity="1" x="4" y="452" width="179" height="3" />
	<rect fill="#ffffc0" stroke="black" stroke-width="1" stroke-opacity="1" x="0" y="366" width="180" height="86" />
	<text font-family="Helvetica" font-size="12" fill="black" text-anchor="middle" x="90" y="381">&lt;&lt;interface&gt;&gt;</text>
	<text font-family="Helvetica" font-size="12" fill="black" font-weight="bold" text-anchor="middle" x="90" y="401">INumberPropertyDescriptor</text>
	<line stroke="black" stroke-opacity="1" x1="0" y1="406" x2="180" y2="406" />
	<line stroke="black" stroke-opacity="1" x1="0" y1="414" x2="180" y2="414" />
	<text font-family="Helvetica" font-size="12" fill="black" x="4" y="429">getMaxValue()</text>
	<text font-family="Helvetica" font-size="12" fill="black" x="4" y="447">getMinValue()</text>
</g>
<g>
	<rect fill="#808080" stroke="none" stroke-opacity="1" x="796" y="68" width="3" height="55" />
	<rect fill="#808080" stroke="none" stroke-opacity="1" x="618" y="120" width="181" height="3" />
	<rect fill="#ffffc0" stroke="black" stroke-width="1" stroke-opacity="1" x="614" y="64" width="182" height="56" />
	<text font-family="Helvetica" font-size="12" fill="black" text-anchor="middle" x="705" y="79">&lt;&lt;interface&gt;&gt;</text>
	<text font-family="Helvetica" font-size="12" fill="black" font-weight="bold" text-anchor="middle" x="705" y="99">IBooleanPropertyDescriptor</text>
	<line stroke="black" stroke-opacity="1" x1="614" y1="104" x2="796" y2="104" />
	<line stroke="black" stroke-opacity="1" x1="614" y1="112" x2="796" y2="112" />
</g>
<g>
	<rect fill="#808080" stroke="none" stroke-opacity="1" x="429" y="370" width="3" height="55" />
	<rect fill="#808080" stroke="none" stroke-opacity="1" x="197" y="422" width="235" height="3" />
	<rect fill="#ffffc0" stroke="black" stroke-width="1" stroke-opacity="1" x="193" y="366" width="236" height="56" />
	<text font-family="Helvetica" font-size="12" fill="black" text-anchor="middle" x="311" y="381">&lt;&lt;interface&gt;&gt;</text>
	<text font-family="Helvetica" font-size="12" fill="black" font-weight="bold" text-anchor="middle" x="311" y="401">IJavaSerializablePropertyDescriptor</text>
	<line stroke="black" stroke-opacity="1" x1="193" y1="406" x2="429" y2="406" />
	<line stroke="black" stroke-opacity="1" x1="193" y1="414" x2="429" y2="414" />
</g>
<g>
	<rect fill="#808080" stroke="none" stroke-opacity="1" x="824" y="370" width="3" height="139" />
	<rect fill="#808080" stroke="none" stroke-opacity="1" x="618" y="506" width="209" height="3" />
	<rect fill="#ffffc0" stroke="black" stroke-width="1" stroke-opacity="1" x="614" y="366" width="210" height="140" />
	<text font-family="Helvetica" font-size="12" fill="black" text-anchor="middle" x="719" y="381">&lt;&lt;interface&gt;&gt;</text>
	<text font-family="Helvetica" font-size="12" fill="black" font-weight="bold" text-anchor="middle" x="719" y="401">IEnumerationPropertyDescriptor</text>
	<line stroke="black" stroke-opacity="1" x1="614" y1="406" x2="824" y2="406" />
	<line stroke="black" stroke-opacity="1" x1="614" y1="414" x2="824" y2="414" />
	<text font-family="Helvetica" font-size="12" fill="black" x="618" y="429">getEnumerationName()</text>
	<text font-family="Helvetica" font-size="12" fill="black" x="618" y="447">getEnumerationValues()</text>
	<text font-family="Helvetica" font-size="12" fill="black" x="618" y="465">getIconImageURL()</text>
	<text font-family="Helvetica" font-size="12" fill="black" x="618" y="483">getMaxLength()</text>
	<text font-family="Helvetica" font-size="12" fill="black" x="618" y="501">isTranslated()</text>
</g>
<g>
	<rect fill="#808080" stroke="none" stroke-opacity="1" x="398" y="490" width="3" height="55" />
	<rect fill="#808080" stroke="none" stroke-opacity="1" x="228" y="542" width="173" height="3" />
	<rect fill="#ffffc0" stroke="black" stroke-width="1" stroke-opacity="1" x="224" y="486" width="174" height="56" />
	<text font-family="Helvetica" font-size="12" fill="black" text-anchor="middle" x="311" y="501">&lt;&lt;interface&gt;&gt;</text>
	<text font-family="Helvetica" font-size="12" fill="black" font-weight="bold" text-anchor="middle" x="311" y="521">IIntegerPropertyDescriptor</text>
	<line stroke="black" stroke-opacity="1" x1="224" y1="526" x2="398" y2="526" />
	<line stroke="black" stroke-opacity="1" x1="224" y1="534" x2="398" y2="534" />
</g>
<g>
	<rect fill="#808080" stroke="none" stroke-opacity="1" x="680" y="586" width="3" height="55" />
	<rect fill="#808080" stroke="none" stroke-opacity="1" x="526" y="638" width="157" height="3" />
	<rect fill="#ffffc0" stroke="black" stroke-width="1" stroke-opacity="1" x="522" y="582" width="158" height="56" />
	<text font-family="Helvetica" font-size="12" fill="black" text-anchor="middle" x="601" y="597">&lt;&lt;interface&gt;&gt;</text>
	<text font-family="Helvetica" font-size="12" fill="black" font-weight="bold" text-anchor="middle" x="601" y="617">ITextPropertyDescriptor</text>
	<line stroke="black" stroke-opacity="1" x1="522" y1="622" x2="680" y2="622" />
	<line stroke="black" stroke-opacity="1" x1="522" y1="630" x2="680" y2="630" />
</g>
<g>
	<rect fill="#808080" stroke="none" stroke-opacity="1" x="503" y="586" width="3" height="55" />
	<rect fill="#808080" stroke="none" stroke-opacity="1" x="317" y="638" width="189" height="3" />
	<rect fill="#ffffc0" stroke="black" stroke-width="1" stroke-opacity="1" x="313" y="582" width="190" height="56" />
	<text font-family="Helvetica" font-size="12" fill="black" text-anchor="middle" x="408" y="597">&lt;&lt;interface&gt;&gt;</text>
	<text font-family="Helvetica" font-size="12" fill="black" font-weight="bold" text-anchor="middle" x="408" y="617">IPasswordPropertyDescriptor</text>
	<line stroke="black" stroke-opacity="1" x1="313" y1="622" x2="503" y2="622" />
	<line stroke="black" stroke-opacity="1" x1="313" y1="630" x2="503" y2="630" />
</g>
<g>
	<rect fill="#808080" stroke="none" stroke-opacity="1" x="184" y="67" width="3" height="151" />
	<rect fill="#808080" stroke="none" stroke-opacity="1" x="4" y="215" width="183" height="3" />
	<rect fill="#ffffc0" stroke="black" stroke-width="1" stroke-opacity="1" x="0" y="63" width="184" height="152" />
	<text font-family="Helvetica" font-size="12" fill="black" text-anchor="middle" x="92" y="78">&lt;&lt;interface&gt;&gt;</text>
	<text font-family="Helvetica" font-size="12" fill="black" font-weight="bold" text-anchor="middle" x="92" y="98">IDurationPropertyDescriptor</text>
	<line stroke="black" stroke-opacity="1" x1="0" y1="103" x2="184" y2="103" />
	<text font-family="Helvetica" font-size="12" fill="black" x="4" y="118">ONE_DAY</text>
	<text font-family="Helvetica" font-size="12" fill="black" x="4" y="136">ONE_HOUR</text>
	<text font-family="Helvetica" font-size="12" fill="black" x="4" y="154">ONE_MINUTE</text>
	<text font-family="Helvetica" font-size="12" fill="black" x="4" y="172">ONE_SECOND</text>
	<text font-family="Helvetica" font-size="12" fill="black" x="4" y="190">ONE_WEEK</text>
	<line stroke="black" stroke-opacity="1" x1="0" y1="195" x2="184" y2="195" />
	<text font-family="Helvetica" font-size="12" fill="black" x="4" y="210">getMaxMillis()</text>
</g>
<g>
	<rect fill="#808080" stroke="none" stroke-opacity="1" x="778" y="243" width="3" height="55" />
	<rect fill="#808080" stroke="none" stroke-opacity="1" x="618" y="295" width="163" height="3" />
	<rect fill="#ffffc0" stroke="black" stroke-width="1" stroke-opacity="1" x="614" y="239" width="164" height="56" />
	<text font-family="Helvetica" font-size="12" fill="black" text-anchor="middle" x="696" y="254">&lt;&lt;interface&gt;&gt;</text>
	<text font-family="Helvetica" font-size="12" fill="black" font-weight="bold" text-anchor="middle" x="696" y="274">IColorPropertyDescriptor</text>
	<line stroke="black" stroke-opacity="1" x1="614" y1="279" x2="778" y2="279" />
	<line stroke="black" stroke-opacity="1" x1="614" y1="287" x2="778" y2="287" />
</g>
<g>
	<rect fill="#808080" stroke="none" stroke-opacity="1" x="607" y="370" width="3" height="103" />
	<rect fill="#808080" stroke="none" stroke-opacity="1" x="443" y="470" width="167" height="3" />
	<rect fill="#ffffc0" stroke="black" stroke-width="1" stroke-opacity="1" x="439" y="366" width="168" height="104" />
	<text font-family="Helvetica" font-size="12" fill="black" text-anchor="middle" x="523" y="381">&lt;&lt;interface&gt;&gt;</text>
	<text font-family="Helvetica" font-size="12" fill="black" font-weight="bold" text-anchor="middle" x="523" y="401">IStringPropertyDescriptor</text>
	<line stroke="black" stroke-opacity="1" x1="439" y1="406" x2="607" y2="406" />
	<line stroke="black" stroke-opacity="1" x1="439" y1="414" x2="607" y2="414" />
	<text font-family="Helvetica" font-size="12" fill="black" x="443" y="429">getMaxLength()</text>
	<text font-family="Helvetica" font-size="12" fill="black" x="443" y="447">getRegexpPattern()</text>
	<text font-family="Helvetica" font-size="12" fill="black" x="443" y="465">getRegexpPatternSample()</text>
</g>
<g>
	<rect fill="#808080" stroke="none" stroke-opacity="1" x="170" y="243" width="3" height="55" />
	<rect fill="#808080" stroke="none" stroke-opacity="1" x="4" y="295" width="169" height="3" />
	<rect fill="#ffffc0" stroke="black" stroke-width="1" stroke-opacity="1" x="0" y="239" width="170" height="56" />
	<text font-family="Helvetica" font-size="12" fill="black" text-anchor="middle" x="85" y="254">&lt;&lt;interface&gt;&gt;</text>
	<text font-family="Helvetica" font-size="12" fill="black" font-weight="bold" text-anchor="middle" x="85" y="274">IObjectPropertyDescriptor</text>
	<line stroke="black" stroke-opacity="1" x1="0" y1="279" x2="170" y2="279" />
	<line stroke="black" stroke-opacity="1" x1="0" y1="287" x2="170" y2="287" />
</g>
</svg>
