<?xml version="1.0"?>

<!DOCTYPE svg PUBLIC '-//W3C//DTD SVG 1.0//EN' 'http://www.w3.org/TR/2001/REC-SVG-20010904/DTD/svg10.dtd'>
<svg stroke-dasharray="none" shape-rendering="auto" xmlns="http://www.w3.org/2000/svg" font-family="&apos;Dialog&apos;" width="739" text-rendering="auto" fill-opacity="1" contentScriptType="text/ecmascript" color-interpolation="auto" color-rendering="auto" preserveAspectRatio="xMidYMid meet" font-size="12" fill="black" xmlns:xlink="http://www.w3.org/1999/xlink" stroke="black" image-rendering="auto" stroke-miterlimit="10" zoomAndPan="magnify" version="1.0" stroke-linecap="square" stroke-linejoin="miter" contentStyleType="text/css" font-style="normal" height="364" stroke-width="1" stroke-dashoffset="0" font-weight="normal" stroke-opacity="1">
  <!--Generated by the Batik Graphics2D SVG Generator-->
  <defs id="genericDefs" />
  <g>
    <defs id="defs1">
      <clipPath clipPathUnits="userSpaceOnUse" id="clipPath1">
        <path d="M4 241 L375 241 L375 287 L4 287 L4 241 Z" />
      </clipPath>
      <clipPath clipPathUnits="userSpaceOnUse" id="clipPath2">
        <path d="M148 242 L230 242 L230 258 L148 258 L148 242 Z" />
      </clipPath>
      <clipPath clipPathUnits="userSpaceOnUse" id="clipPath3">
        <path d="M137 256 L242 256 L242 273 L137 273 L137 256 Z" />
      </clipPath>
      <clipPath clipPathUnits="userSpaceOnUse" id="clipPath4">
        <path d="M101 271 L277 271 L277 285 L101 285 L101 271 Z" />
      </clipPath>
      <clipPath clipPathUnits="userSpaceOnUse" id="clipPath5">
        <path d="M4 285 L375 285 L375 332 L4 332 L4 285 Z" />
      </clipPath>
      <clipPath clipPathUnits="userSpaceOnUse" id="clipPath6">
        <path d="M6 286 L373 286 L373 302 L6 302 L6 286 Z" />
      </clipPath>
      <clipPath clipPathUnits="userSpaceOnUse" id="clipPath7">
        <path d="M6 300 L164 300 L164 316 L6 316 L6 300 Z" />
      </clipPath>
      <clipPath clipPathUnits="userSpaceOnUse" id="clipPath8">
        <path d="M6 314 L232 314 L232 330 L6 330 L6 314 Z" />
      </clipPath>
      <clipPath clipPathUnits="userSpaceOnUse" id="clipPath9">
        <path d="M4 4 L375 4 L375 50 L4 50 L4 4 Z" />
      </clipPath>
      <clipPath clipPathUnits="userSpaceOnUse" id="clipPath10">
        <path d="M148 5 L230 5 L230 21 L148 21 L148 5 Z" />
      </clipPath>
      <clipPath clipPathUnits="userSpaceOnUse" id="clipPath11">
        <path d="M128 19 L251 19 L251 36 L128 36 L128 19 Z" />
      </clipPath>
      <clipPath clipPathUnits="userSpaceOnUse" id="clipPath12">
        <path d="M131 34 L247 34 L247 48 L131 48 L131 34 Z" />
      </clipPath>
      <clipPath clipPathUnits="userSpaceOnUse" id="clipPath13">
        <path d="M4 48 L375 48 L375 193 L4 193 L4 48 Z" />
      </clipPath>
      <clipPath clipPathUnits="userSpaceOnUse" id="clipPath14">
        <path d="M6 49 L124 49 L124 65 L6 65 L6 49 Z" />
      </clipPath>
      <clipPath clipPathUnits="userSpaceOnUse" id="clipPath15">
        <path d="M6 63 L153 63 L153 79 L6 79 L6 63 Z" />
      </clipPath>
      <clipPath clipPathUnits="userSpaceOnUse" id="clipPath16">
        <path d="M6 77 L125 77 L125 93 L6 93 L6 77 Z" />
      </clipPath>
      <clipPath clipPathUnits="userSpaceOnUse" id="clipPath17">
        <path d="M6 91 L215 91 L215 107 L6 107 L6 91 Z" />
      </clipPath>
      <clipPath clipPathUnits="userSpaceOnUse" id="clipPath18">
        <path d="M6 105 L103 105 L103 121 L6 121 L6 105 Z" />
      </clipPath>
      <clipPath clipPathUnits="userSpaceOnUse" id="clipPath19">
        <path d="M6 119 L234 119 L234 135 L6 135 L6 119 Z" />
      </clipPath>
      <clipPath clipPathUnits="userSpaceOnUse" id="clipPath20">
        <path d="M6 133 L373 133 L373 149 L6 149 L6 133 Z" />
      </clipPath>
      <clipPath clipPathUnits="userSpaceOnUse" id="clipPath21">
        <path d="M6 147 L362 147 L362 163 L6 163 L6 147 Z" />
      </clipPath>
      <clipPath clipPathUnits="userSpaceOnUse" id="clipPath22">
        <path d="M6 161 L305 161 L305 177 L6 177 L6 161 Z" />
      </clipPath>
      <clipPath clipPathUnits="userSpaceOnUse" id="clipPath23">
        <path d="M6 175 L165 175 L165 191 L6 191 L6 175 Z" />
      </clipPath>
      <clipPath clipPathUnits="userSpaceOnUse" id="clipPath24">
        <path d="M389 241 L735 241 L735 287 L389 287 L389 241 Z" />
      </clipPath>
      <clipPath clipPathUnits="userSpaceOnUse" id="clipPath25">
        <path d="M521 242 L603 242 L603 258 L521 258 L521 242 Z" />
      </clipPath>
      <clipPath clipPathUnits="userSpaceOnUse" id="clipPath26">
        <path d="M486 256 L637 256 L637 273 L486 273 L486 256 Z" />
      </clipPath>
      <clipPath clipPathUnits="userSpaceOnUse" id="clipPath27">
        <path d="M474 271 L650 271 L650 285 L474 285 L474 271 Z" />
      </clipPath>
      <clipPath clipPathUnits="userSpaceOnUse" id="clipPath28">
        <path d="M389 285 L735 285 L735 360 L389 360 L389 285 Z" />
      </clipPath>
      <clipPath clipPathUnits="userSpaceOnUse" id="clipPath29">
        <path d="M391 286 L479 286 L479 302 L391 302 L391 286 Z" />
      </clipPath>
      <clipPath clipPathUnits="userSpaceOnUse" id="clipPath30">
        <path d="M391 300 L487 300 L487 316 L391 316 L391 300 Z" />
      </clipPath>
      <clipPath clipPathUnits="userSpaceOnUse" id="clipPath31">
        <path d="M391 314 L733 314 L733 330 L391 330 L391 314 Z" />
      </clipPath>
      <clipPath clipPathUnits="userSpaceOnUse" id="clipPath32">
        <path d="M391 328 L476 328 L476 344 L391 344 L391 328 Z" />
      </clipPath>
      <clipPath clipPathUnits="userSpaceOnUse" id="clipPath33">
        <path d="M391 342 L483 342 L483 358 L391 358 L391 342 Z" />
      </clipPath>
      <clipPath clipPathUnits="userSpaceOnUse" id="clipPath34">
        <path d="M183 191 L196 191 L196 244 L183 244 L183 191 Z" />
      </clipPath>
      <clipPath clipPathUnits="userSpaceOnUse" id="clipPath35">
        <path d="M183 191 L196 191 L196 208 L183 208 L183 191 Z" />
      </clipPath>
    </defs>
    <g font-size="11" fill="white" font-family="&apos;Tahoma&apos;" stroke-linejoin="round" stroke="white" stroke-miterlimit="0">
      <rect width="912" x="0" height="477" y="0" stroke="none" />
      <rect x="5" y="242" clip-path="url(#clipPath1)" width="369" height="44" stroke="none" />
      <rect x="5" y="242" clip-path="url(#clipPath1)" fill="none" width="369" height="44" stroke="black" />
      <text x="151" y="254" clip-path="url(#clipPath2)" fill="black" font-family="&apos;Arial&apos;" stroke="none" xml:space="preserve">&lt;&lt;Java Class&gt;&gt;</text>
    </g>
    <g stroke-miterlimit="0" font-weight="bold" font-family="&apos;Arial&apos;" stroke-linejoin="round">
      <text xml:space="preserve" x="140" y="269" clip-path="url(#clipPath3)" stroke="none">LdapLoginModule</text>
      <text font-size="9" x="104" y="281" clip-path="url(#clipPath4)" stroke="none" font-weight="normal" xml:space="preserve">org.jspresso.framework.security.auth.spi</text>
    </g>
    <g font-size="11" fill="white" font-family="&apos;Tahoma&apos;" stroke-linejoin="round" stroke="white" stroke-miterlimit="0">
      <rect x="5" y="286" clip-path="url(#clipPath5)" width="369" height="45" stroke="none" />
      <rect x="5" y="285" clip-path="url(#clipPath5)" fill="none" width="369" height="46" stroke="black" />
      <text x="9" y="298" clip-path="url(#clipPath6)" fill="black" font-family="&apos;Arial&apos;" stroke="none" xml:space="preserve">#bindDNAuthentication(InitialLdapContext,String,Object,String,String): String</text>
      <text x="9" y="312" clip-path="url(#clipPath7)" fill="black" font-family="&apos;Arial&apos;" stroke="none" xml:space="preserve">#createIdentity(String): Principal</text>
      <text x="9" y="326" clip-path="url(#clipPath8)" fill="black" font-family="&apos;Arial&apos;" stroke="none" xml:space="preserve">-extractSlice(String,NameParser,int,int): String</text>
      <rect x="5" y="5" clip-path="url(#clipPath9)" width="369" height="44" stroke="none" />
      <rect x="5" y="5" clip-path="url(#clipPath9)" fill="none" width="369" height="44" stroke="black" />
      <text x="151" y="17" clip-path="url(#clipPath10)" fill="black" font-family="&apos;Arial&apos;" stroke="none" xml:space="preserve">&lt;&lt;Java Class&gt;&gt;</text>
    </g>
    <g stroke-miterlimit="0" font-weight="bold" font-family="&apos;Arial&apos;" stroke-linejoin="round">
      <text xml:space="preserve" x="131" y="32" clip-path="url(#clipPath11)" stroke="none">LdapExtLoginModule</text>
      <text font-size="9" x="134" y="44" clip-path="url(#clipPath12)" stroke="none" font-weight="normal" xml:space="preserve">org.jboss.security.auth.spi</text>
    </g>
    <g font-size="11" fill="white" font-family="&apos;Tahoma&apos;" stroke-linejoin="round" stroke="white" stroke-miterlimit="0">
      <rect x="5" y="49" clip-path="url(#clipPath13)" width="369" height="143" stroke="none" />
      <rect x="5" y="48" clip-path="url(#clipPath13)" fill="none" width="369" height="144" stroke="black" />
      <text x="9" y="61" clip-path="url(#clipPath14)" fill="black" font-family="&apos;Arial&apos;" stroke="none" xml:space="preserve">+LdapExtLoginModule()</text>
      <text x="9" y="75" clip-path="url(#clipPath15)" fill="black" font-family="&apos;Arial&apos;" stroke="none" xml:space="preserve">#getUsersPassword(): String</text>
      <text x="9" y="89" clip-path="url(#clipPath16)" fill="black" font-family="&apos;Arial&apos;" stroke="none" xml:space="preserve">#getRoleSets(): Group[]</text>
      <text x="9" y="103" clip-path="url(#clipPath17)" fill="black" font-family="&apos;Arial&apos;" stroke="none" xml:space="preserve">#validatePassword(String,String): boolean</text>
      <text x="9" y="117" clip-path="url(#clipPath18)" fill="black" font-family="&apos;Arial&apos;" stroke="none" xml:space="preserve">-defaultRole(): void</text>
      <text x="9" y="131" clip-path="url(#clipPath19)" fill="black" font-family="&apos;Arial&apos;" stroke="none" xml:space="preserve">-createLdapInitContext(String,Object): boolean</text>
      <text x="9" y="145" clip-path="url(#clipPath20)" fill="black" font-family="&apos;Arial&apos;" stroke="none" xml:space="preserve">#bindDNAuthentication(InitialLdapContext,String,Object,String,String): String</text>
      <text x="9" y="159" clip-path="url(#clipPath21)" fill="black" font-family="&apos;Arial&apos;" stroke="none" xml:space="preserve">#rolesSearch(InitialLdapContext,SearchControls,String,String,int,int): void</text>
      <text x="9" y="173" clip-path="url(#clipPath22)" fill="black" font-family="&apos;Arial&apos;" stroke="none" xml:space="preserve">-constructInitialLdapContext(String,Object): InitialLdapContext</text>
      <text x="9" y="187" clip-path="url(#clipPath23)" fill="black" font-family="&apos;Arial&apos;" stroke="none" xml:space="preserve">-traceLdapEnv(Properties): void</text>
      <rect x="390" y="242" clip-path="url(#clipPath24)" width="344" height="44" stroke="none" />
      <rect x="390" y="242" clip-path="url(#clipPath24)" fill="none" width="344" height="44" stroke="black" />
      <text x="524" y="254" clip-path="url(#clipPath25)" fill="black" font-family="&apos;Arial&apos;" stroke="none" xml:space="preserve">&lt;&lt;Java Class&gt;&gt;</text>
    </g>
    <g stroke-miterlimit="0" font-weight="bold" font-family="&apos;Arial&apos;" stroke-linejoin="round">
      <text xml:space="preserve" x="489" y="269" clip-path="url(#clipPath26)" stroke="none">DevelopmentLoginModule</text>
      <text font-size="9" x="477" y="281" clip-path="url(#clipPath27)" stroke="none" font-weight="normal" xml:space="preserve">org.jspresso.framework.security.auth.spi</text>
    </g>
    <g font-size="11" fill="white" font-family="&apos;Tahoma&apos;" stroke-linejoin="round" stroke="white" stroke-miterlimit="0">
      <rect x="390" y="286" clip-path="url(#clipPath28)" width="344" height="73" stroke="none" />
      <rect x="390" y="285" clip-path="url(#clipPath28)" fill="none" width="344" height="74" stroke="black" />
      <text x="394" y="298" clip-path="url(#clipPath29)" fill="black" font-family="&apos;Arial&apos;" stroke="none" xml:space="preserve">+abort(): boolean</text>
      <text x="394" y="312" clip-path="url(#clipPath30)" fill="black" font-family="&apos;Arial&apos;" stroke="none" xml:space="preserve">+commit(): boolean</text>
      <text x="394" y="326" clip-path="url(#clipPath31)" fill="black" font-family="&apos;Arial&apos;" stroke="none" xml:space="preserve">+initialize(Subject,CallbackHandler,Map&lt;String,?&gt;,Map&lt;String,?&gt;): void</text>
      <text x="394" y="340" clip-path="url(#clipPath32)" fill="black" font-family="&apos;Arial&apos;" stroke="none" xml:space="preserve">+login(): boolean</text>
      <text x="394" y="354" clip-path="url(#clipPath33)" fill="black" font-family="&apos;Arial&apos;" stroke="none" xml:space="preserve">+logout(): boolean</text>
      <line clip-path="url(#clipPath34)" fill="none" x1="189" x2="189" y1="242" y2="192" stroke="black" />
      <polygon clip-path="url(#clipPath35)" points=" 189 192 194 206 184 206" stroke="none" />
      <polygon fill="none" clip-path="url(#clipPath35)" points=" 189 192 194 206 184 206" stroke="black" />
    </g>
  </g>
</svg>
