<?xml version="1.0"?>

<!DOCTYPE svg PUBLIC '-//W3C//DTD SVG 1.0//EN' 'http://www.w3.org/TR/2001/REC-SVG-20010904/DTD/svg10.dtd'>
<svg stroke-dasharray="none" shape-rendering="auto" xmlns="http://www.w3.org/2000/svg" font-family="&apos;Dialog&apos;" width="697" text-rendering="auto" fill-opacity="1" contentScriptType="text/ecmascript" color-interpolation="auto" color-rendering="auto" preserveAspectRatio="xMidYMid meet" font-size="12" fill="black" xmlns:xlink="http://www.w3.org/1999/xlink" stroke="black" image-rendering="auto" stroke-miterlimit="10" zoomAndPan="magnify" version="1.0" stroke-linecap="square" stroke-linejoin="miter" contentStyleType="text/css" font-style="normal" height="483" stroke-width="1" stroke-dashoffset="0" font-weight="normal" stroke-opacity="1">
  <!--Generated by the Batik Graphics2D SVG Generator-->
  <defs id="genericDefs" />
  <g>
    <defs id="defs1">
      <clipPath clipPathUnits="userSpaceOnUse" id="clipPath1">
        <path d="M251 4 L437 4 L437 50 L251 50 L251 4 Z" />
      </clipPath>
      <clipPath clipPathUnits="userSpaceOnUse" id="clipPath2">
        <path d="M295 5 L393 5 L393 21 L295 21 L295 5 Z" />
      </clipPath>
      <clipPath clipPathUnits="userSpaceOnUse" id="clipPath3">
        <path d="M319 19 L369 19 L369 36 L319 36 L319 19 Z" />
      </clipPath>
      <clipPath clipPathUnits="userSpaceOnUse" id="clipPath4">
        <path d="M253 34 L435 34 L435 48 L253 48 L253 34 Z" />
      </clipPath>
      <clipPath clipPathUnits="userSpaceOnUse" id="clipPath5">
        <path d="M251 48 L437 48 L437 53 L251 53 L251 48 Z" />
      </clipPath>
      <clipPath clipPathUnits="userSpaceOnUse" id="clipPath6">
        <path d="M251 51 L437 51 L437 70 L251 70 L251 51 Z" />
      </clipPath>
      <clipPath clipPathUnits="userSpaceOnUse" id="clipPath7">
        <path d="M253 52 L320 52 L320 68 L253 68 L253 52 Z" />
      </clipPath>
      <clipPath clipPathUnits="userSpaceOnUse" id="clipPath8">
        <path d="M214 135 L476 135 L476 181 L214 181 L214 135 Z" />
      </clipPath>
      <clipPath clipPathUnits="userSpaceOnUse" id="clipPath9">
        <path d="M304 136 L386 136 L386 152 L304 152 L304 136 Z" />
      </clipPath>
      <clipPath clipPathUnits="userSpaceOnUse" id="clipPath10">
        <path d="M274 150 L415 150 L415 167 L274 167 L274 150 Z" />
      </clipPath>
      <clipPath clipPathUnits="userSpaceOnUse" id="clipPath11">
        <path d="M254 165 L436 165 L436 179 L254 179 L254 165 Z" />
      </clipPath>
      <clipPath clipPathUnits="userSpaceOnUse" id="clipPath12">
        <path d="M214 179 L476 179 L476 226 L214 226 L214 179 Z" />
      </clipPath>
      <clipPath clipPathUnits="userSpaceOnUse" id="clipPath13">
        <path d="M216 180 L381 180 L381 196 L216 196 L216 180 Z" />
      </clipPath>
      <clipPath clipPathUnits="userSpaceOnUse" id="clipPath14">
        <path d="M216 194 L408 194 L408 210 L216 210 L216 194 Z" />
      </clipPath>
      <clipPath clipPathUnits="userSpaceOnUse" id="clipPath15">
        <path d="M216 208 L447 208 L447 224 L216 224 L216 208 Z" />
      </clipPath>
      <clipPath clipPathUnits="userSpaceOnUse" id="clipPath16">
        <path d="M214 224 L476 224 L476 313 L214 313 L214 224 Z" />
      </clipPath>
      <clipPath clipPathUnits="userSpaceOnUse" id="clipPath17">
        <path d="M216 225 L283 225 L283 241 L216 241 L216 225 Z" />
      </clipPath>
      <clipPath clipPathUnits="userSpaceOnUse" id="clipPath18">
        <path d="M216 239 L408 239 L408 255 L216 255 L216 239 Z" />
      </clipPath>
      <clipPath clipPathUnits="userSpaceOnUse" id="clipPath19">
        <path d="M216 253 L396 253 L396 269 L216 269 L216 253 Z" />
      </clipPath>
      <clipPath clipPathUnits="userSpaceOnUse" id="clipPath20">
        <path d="M216 267 L434 267 L434 283 L216 283 L216 267 Z" />
      </clipPath>
      <clipPath clipPathUnits="userSpaceOnUse" id="clipPath21">
        <path d="M216 281 L474 281 L474 297 L216 297 L216 281 Z" />
      </clipPath>
      <clipPath clipPathUnits="userSpaceOnUse" id="clipPath22">
        <path d="M216 295 L357 295 L357 311 L216 311 L216 295 Z" />
      </clipPath>
      <clipPath clipPathUnits="userSpaceOnUse" id="clipPath23">
        <path d="M4 357 L216 357 L216 403 L4 403 L4 357 Z" />
      </clipPath>
      <clipPath clipPathUnits="userSpaceOnUse" id="clipPath24">
        <path d="M69 358 L151 358 L151 374 L69 374 L69 358 Z" />
      </clipPath>
      <clipPath clipPathUnits="userSpaceOnUse" id="clipPath25">
        <path d="M69 372 L151 372 L151 389 L69 389 L69 372 Z" />
      </clipPath>
      <clipPath clipPathUnits="userSpaceOnUse" id="clipPath26">
        <path d="M6 387 L214 387 L214 401 L6 401 L6 387 Z" />
      </clipPath>
      <clipPath clipPathUnits="userSpaceOnUse" id="clipPath27">
        <path d="M4 401 L216 401 L216 406 L4 406 L4 401 Z" />
      </clipPath>
      <clipPath clipPathUnits="userSpaceOnUse" id="clipPath28">
        <path d="M4 404 L216 404 L216 423 L4 423 L4 404 Z" />
      </clipPath>
      <clipPath clipPathUnits="userSpaceOnUse" id="clipPath29">
        <path d="M6 405 L145 405 L145 421 L6 421 L6 405 Z" />
      </clipPath>
      <clipPath clipPathUnits="userSpaceOnUse" id="clipPath30">
        <path d="M245 357 L446 357 L446 403 L245 403 L245 357 Z" />
      </clipPath>
      <clipPath clipPathUnits="userSpaceOnUse" id="clipPath31">
        <path d="M304 358 L386 358 L386 374 L304 374 L304 358 Z" />
      </clipPath>
      <clipPath clipPathUnits="userSpaceOnUse" id="clipPath32">
        <path d="M312 372 L378 372 L378 389 L312 389 L312 372 Z" />
      </clipPath>
      <clipPath clipPathUnits="userSpaceOnUse" id="clipPath33">
        <path d="M247 387 L444 387 L444 401 L247 401 L247 387 Z" />
      </clipPath>
      <clipPath clipPathUnits="userSpaceOnUse" id="clipPath34">
        <path d="M245 401 L446 401 L446 406 L245 406 L245 401 Z" />
      </clipPath>
      <clipPath clipPathUnits="userSpaceOnUse" id="clipPath35">
        <path d="M245 404 L446 404 L446 479 L245 479 L245 404 Z" />
      </clipPath>
      <clipPath clipPathUnits="userSpaceOnUse" id="clipPath36">
        <path d="M247 405 L330 405 L330 421 L247 421 L247 405 Z" />
      </clipPath>
      <clipPath clipPathUnits="userSpaceOnUse" id="clipPath37">
        <path d="M247 419 L396 419 L396 435 L247 435 L247 419 Z" />
      </clipPath>
      <clipPath clipPathUnits="userSpaceOnUse" id="clipPath38">
        <path d="M247 433 L339 433 L339 449 L247 449 L247 433 Z" />
      </clipPath>
      <clipPath clipPathUnits="userSpaceOnUse" id="clipPath39">
        <path d="M247 447 L313 447 L313 463 L247 463 L247 447 Z" />
      </clipPath>
      <clipPath clipPathUnits="userSpaceOnUse" id="clipPath40">
        <path d="M247 461 L386 461 L386 477 L247 477 L247 461 Z" />
      </clipPath>
      <clipPath clipPathUnits="userSpaceOnUse" id="clipPath41">
        <path d="M481 357 L693 357 L693 403 L481 403 L481 357 Z" />
      </clipPath>
      <clipPath clipPathUnits="userSpaceOnUse" id="clipPath42">
        <path d="M546 358 L628 358 L628 374 L546 374 L546 358 Z" />
      </clipPath>
      <clipPath clipPathUnits="userSpaceOnUse" id="clipPath43">
        <path d="M545 372 L628 372 L628 389 L545 389 L545 372 Z" />
      </clipPath>
      <clipPath clipPathUnits="userSpaceOnUse" id="clipPath44">
        <path d="M483 387 L691 387 L691 401 L483 401 L483 387 Z" />
      </clipPath>
      <clipPath clipPathUnits="userSpaceOnUse" id="clipPath45">
        <path d="M481 401 L693 401 L693 406 L481 406 L481 401 Z" />
      </clipPath>
      <clipPath clipPathUnits="userSpaceOnUse" id="clipPath46">
        <path d="M481 404 L693 404 L693 437 L481 437 L481 404 Z" />
      </clipPath>
      <clipPath clipPathUnits="userSpaceOnUse" id="clipPath47">
        <path d="M483 405 L567 405 L567 421 L483 421 L483 405 Z" />
      </clipPath>
      <clipPath clipPathUnits="userSpaceOnUse" id="clipPath48">
        <path d="M483 419 L622 419 L622 435 L483 435 L483 419 Z" />
      </clipPath>
      <clipPath clipPathUnits="userSpaceOnUse" id="clipPath49">
        <path d="M338 68 L351 68 L351 138 L338 138 L338 68 Z" />
      </clipPath>
      <clipPath clipPathUnits="userSpaceOnUse" id="clipPath50">
        <path d="M338 68 L351 68 L351 85 L338 85 L338 68 Z" />
      </clipPath>
      <clipPath clipPathUnits="userSpaceOnUse" id="clipPath51">
        <path d="M467 311 L534 311 L534 360 L467 360 L467 311 Z" />
      </clipPath>
      <clipPath clipPathUnits="userSpaceOnUse" id="clipPath52">
        <path d="M467 311 L484 311 L484 326 L467 326 L467 311 Z" />
      </clipPath>
      <clipPath clipPathUnits="userSpaceOnUse" id="clipPath53">
        <path d="M339 311 L352 311 L352 360 L339 360 L339 311 Z" />
      </clipPath>
      <clipPath clipPathUnits="userSpaceOnUse" id="clipPath54">
        <path d="M339 311 L352 311 L352 328 L339 328 L339 311 Z" />
      </clipPath>
      <clipPath clipPathUnits="userSpaceOnUse" id="clipPath55">
        <path d="M154 311 L222 311 L222 360 L154 360 L154 311 Z" />
      </clipPath>
      <clipPath clipPathUnits="userSpaceOnUse" id="clipPath56">
        <path d="M205 311 L222 311 L222 326 L205 326 L205 311 Z" />
      </clipPath>
    </defs>
    <g font-size="11" fill="white" font-family="&apos;Tahoma&apos;" stroke-linejoin="round" stroke="white" stroke-miterlimit="0">
      <rect width="889" x="0" height="539" y="0" stroke="none" />
      <rect x="252" y="5" clip-path="url(#clipPath1)" width="184" height="44" stroke="none" />
      <rect x="252" y="5" clip-path="url(#clipPath1)" fill="none" width="184" height="44" stroke="black" />
      <text x="298" y="17" clip-path="url(#clipPath2)" fill="black" font-family="&apos;Arial&apos;" stroke="none" xml:space="preserve">&lt;&lt;Java Interface&gt;&gt;</text>
    </g>
    <g stroke-miterlimit="0" font-weight="bold" font-family="&apos;Arial&apos;" stroke-linejoin="round">
      <text xml:space="preserve" x="322" y="32" clip-path="url(#clipPath3)" stroke="none">IStartup</text>
      <text font-size="9" x="256" y="44" clip-path="url(#clipPath4)" stroke="none" font-weight="normal" xml:space="preserve">org.jspresso.framework.application.startup</text>
    </g>
    <g font-size="11" fill="white" font-family="&apos;Tahoma&apos;" stroke-linejoin="round" stroke="white" stroke-miterlimit="0">
      <rect x="252" y="49" clip-path="url(#clipPath5)" width="184" height="3" stroke="none" />
      <rect x="252" y="48" clip-path="url(#clipPath5)" fill="none" width="184" height="4" stroke="black" />
      <rect x="252" y="52" clip-path="url(#clipPath6)" width="184" height="17" stroke="none" />
      <rect x="252" y="51" clip-path="url(#clipPath6)" fill="none" width="184" height="18" stroke="black" />
      <text x="256" y="64" clip-path="url(#clipPath7)" fill="black" font-family="&apos;Arial&apos;" stroke="none" xml:space="preserve">+start(): void</text>
      <rect x="215" y="136" clip-path="url(#clipPath8)" width="260" height="44" stroke="none" />
      <rect x="215" y="136" clip-path="url(#clipPath8)" fill="none" width="260" height="44" stroke="black" />
      <text x="307" y="148" clip-path="url(#clipPath9)" fill="black" font-family="&apos;Arial&apos;" stroke="none" xml:space="preserve">&lt;&lt;Java Class&gt;&gt;</text>
    </g>
    <g font-style="italic" stroke-miterlimit="0" font-weight="bold" font-family="&apos;Arial&apos;" stroke-linejoin="round">
      <text xml:space="preserve" x="277" y="163" clip-path="url(#clipPath10)" stroke="none">AbstractStartup&lt;E,F,G&gt;</text>
      <text font-size="9" x="257" y="175" clip-path="url(#clipPath11)" font-style="normal" stroke="none" font-weight="normal" xml:space="preserve">org.jspresso.framework.application.startup</text>
    </g>
    <g font-size="11" fill="white" font-family="&apos;Tahoma&apos;" stroke-linejoin="round" stroke="white" stroke-miterlimit="0">
      <rect x="215" y="180" clip-path="url(#clipPath12)" width="260" height="45" stroke="none" />
      <rect x="215" y="179" clip-path="url(#clipPath12)" fill="none" width="260" height="46" stroke="black" />
      <text x="219" y="192" clip-path="url(#clipPath13)" fill="black" font-family="&apos;Arial&apos;" stroke="none" xml:space="preserve">-applicationContext: BeanFactory</text>
      <text x="219" y="206" clip-path="url(#clipPath14)" fill="black" font-family="&apos;Arial&apos;" stroke="none" xml:space="preserve">-backendController: IBackendController</text>
      <text x="219" y="220" clip-path="url(#clipPath15)" fill="black" font-family="&apos;Arial&apos;" stroke="none" xml:space="preserve">-frontendController: IFrontendController&lt;E,F,G&gt;</text>
      <rect x="215" y="225" clip-path="url(#clipPath16)" width="260" height="87" stroke="none" />
      <rect x="215" y="224" clip-path="url(#clipPath16)" fill="none" width="260" height="88" stroke="black" />
      <text x="219" y="237" clip-path="url(#clipPath17)" fill="black" font-family="&apos;Arial&apos;" stroke="none" xml:space="preserve">+start(): void</text>
      <text x="219" y="251" clip-path="url(#clipPath18)" fill="black" font-family="&apos;Arial&apos;" stroke="none" xml:space="preserve">#getApplicationContext(): BeanFactory</text>
    </g>
    <g font-style="italic" font-size="11" stroke-miterlimit="0" font-family="&apos;Arial&apos;" stroke-linejoin="round">
      <text xml:space="preserve" x="219" y="265" clip-path="url(#clipPath19)" stroke="none">#getApplicationContextKey(): String</text>
      <text x="219" y="279" clip-path="url(#clipPath20)" font-style="normal" stroke="none" xml:space="preserve">#getBackendController(): IBackendController</text>
      <text x="219" y="293" clip-path="url(#clipPath21)" font-style="normal" stroke="none" xml:space="preserve">#getFrontendController(): IFrontendController&lt;E,F,G&gt;</text>
      <text xml:space="preserve" x="219" y="307" clip-path="url(#clipPath22)" stroke="none">#getStartupLocale(): Locale</text>
    </g>
    <g font-size="11" fill="white" font-family="&apos;Tahoma&apos;" stroke-linejoin="round" stroke="white" stroke-miterlimit="0">
      <rect x="5" y="358" clip-path="url(#clipPath23)" width="210" height="44" stroke="none" />
      <rect x="5" y="358" clip-path="url(#clipPath23)" fill="none" width="210" height="44" stroke="black" />
      <text x="72" y="370" clip-path="url(#clipPath24)" fill="black" font-family="&apos;Arial&apos;" stroke="none" xml:space="preserve">&lt;&lt;Java Class&gt;&gt;</text>
    </g>
    <g font-style="italic" stroke-miterlimit="0" font-weight="bold" font-family="&apos;Arial&apos;" stroke-linejoin="round">
      <text xml:space="preserve" x="72" y="385" clip-path="url(#clipPath25)" stroke="none">SwingStartup</text>
      <text font-size="9" x="9" y="397" clip-path="url(#clipPath26)" font-style="normal" stroke="none" font-weight="normal" xml:space="preserve">org.jspresso.framework.application.startup.swing</text>
    </g>
    <g font-size="11" fill="white" font-family="&apos;Tahoma&apos;" stroke-linejoin="round" stroke="white" stroke-miterlimit="0">
      <rect x="5" y="402" clip-path="url(#clipPath27)" width="210" height="3" stroke="none" />
      <rect x="5" y="401" clip-path="url(#clipPath27)" fill="none" width="210" height="4" stroke="black" />
      <rect x="5" y="405" clip-path="url(#clipPath28)" width="210" height="17" stroke="none" />
      <rect x="5" y="404" clip-path="url(#clipPath28)" fill="none" width="210" height="18" stroke="black" />
      <text x="9" y="417" clip-path="url(#clipPath29)" fill="black" font-family="&apos;Arial&apos;" stroke="none" xml:space="preserve">#getStartupLocale(): Locale</text>
      <rect x="246" y="358" clip-path="url(#clipPath30)" width="199" height="44" stroke="none" />
      <rect x="246" y="358" clip-path="url(#clipPath30)" fill="none" width="199" height="44" stroke="black" />
      <text x="307" y="370" clip-path="url(#clipPath31)" fill="black" font-family="&apos;Arial&apos;" stroke="none" xml:space="preserve">&lt;&lt;Java Class&gt;&gt;</text>
    </g>
    <g font-style="italic" stroke-miterlimit="0" font-weight="bold" font-family="&apos;Arial&apos;" stroke-linejoin="round">
      <text xml:space="preserve" x="315" y="385" clip-path="url(#clipPath32)" stroke="none">UlcStartup</text>
      <text font-size="9" x="250" y="397" clip-path="url(#clipPath33)" font-style="normal" stroke="none" font-weight="normal" xml:space="preserve">org.jspresso.framework.application.startup.ulc</text>
    </g>
    <g font-size="11" fill="white" font-family="&apos;Tahoma&apos;" stroke-linejoin="round" stroke="white" stroke-miterlimit="0">
      <rect x="246" y="402" clip-path="url(#clipPath34)" width="199" height="3" stroke="none" />
      <rect x="246" y="401" clip-path="url(#clipPath34)" fill="none" width="199" height="4" stroke="black" />
      <rect x="246" y="405" clip-path="url(#clipPath35)" width="199" height="73" stroke="none" />
      <rect x="246" y="404" clip-path="url(#clipPath35)" fill="none" width="199" height="74" stroke="black" />
      <text x="250" y="417" clip-path="url(#clipPath36)" fill="black" font-family="&apos;Arial&apos;" stroke="none" xml:space="preserve">+activate(): void</text>
      <text x="250" y="431" clip-path="url(#clipPath37)" fill="black" font-family="&apos;Arial&apos;" stroke="none" xml:space="preserve">+handleMessage(String): void</text>
      <text x="250" y="445" clip-path="url(#clipPath38)" fill="black" font-family="&apos;Arial&apos;" stroke="none" xml:space="preserve">+passivate(): void</text>
      <text x="250" y="459" clip-path="url(#clipPath39)" fill="black" font-family="&apos;Arial&apos;" stroke="none" xml:space="preserve">+stop(): void</text>
      <text x="250" y="473" clip-path="url(#clipPath40)" fill="black" font-family="&apos;Arial&apos;" stroke="none" xml:space="preserve">#getStartupLocale(): Locale</text>
      <rect x="482" y="358" clip-path="url(#clipPath41)" width="210" height="44" stroke="none" />
      <rect x="482" y="358" clip-path="url(#clipPath41)" fill="none" width="210" height="44" stroke="black" />
      <text x="549" y="370" clip-path="url(#clipPath42)" fill="black" font-family="&apos;Arial&apos;" stroke="none" xml:space="preserve">&lt;&lt;Java Class&gt;&gt;</text>
    </g>
    <g font-style="italic" stroke-miterlimit="0" font-weight="bold" font-family="&apos;Arial&apos;" stroke-linejoin="round">
      <text xml:space="preserve" x="548" y="385" clip-path="url(#clipPath43)" stroke="none">WingsStartup</text>
      <text font-size="9" x="486" y="397" clip-path="url(#clipPath44)" font-style="normal" stroke="none" font-weight="normal" xml:space="preserve">org.jspresso.framework.application.startup.wings</text>
    </g>
    <g font-size="11" fill="white" font-family="&apos;Tahoma&apos;" stroke-linejoin="round" stroke="white" stroke-miterlimit="0">
      <rect x="482" y="402" clip-path="url(#clipPath45)" width="210" height="3" stroke="none" />
      <rect x="482" y="401" clip-path="url(#clipPath45)" fill="none" width="210" height="4" stroke="black" />
      <rect x="482" y="405" clip-path="url(#clipPath46)" width="210" height="31" stroke="none" />
      <rect x="482" y="404" clip-path="url(#clipPath46)" fill="none" width="210" height="32" stroke="black" />
      <text x="486" y="417" clip-path="url(#clipPath47)" fill="black" font-family="&apos;Arial&apos;" stroke="none" xml:space="preserve">+WingsStartup()</text>
      <text x="486" y="431" clip-path="url(#clipPath48)" fill="black" font-family="&apos;Arial&apos;" stroke="none" xml:space="preserve">#getStartupLocale(): Locale</text>
      <line clip-path="url(#clipPath49)" fill="none" x1="345" x2="344" y1="136" y2="69" stroke-dasharray="3,3" stroke="black" />
      <polygon clip-path="url(#clipPath50)" points=" 344 69 349 83 339 83" stroke="none" />
      <polygon fill="none" clip-path="url(#clipPath50)" points=" 344 69 349 83 339 83" stroke="black" />
      <line clip-path="url(#clipPath51)" fill="none" x1="532" x2="468" y1="358" y2="312" stroke="black" />
      <polygon clip-path="url(#clipPath52)" points=" 468 312 482 316 477 324" stroke="none" />
      <polygon fill="none" clip-path="url(#clipPath52)" points=" 468 312 482 316 477 324" stroke="black" />
      <line clip-path="url(#clipPath53)" fill="none" x1="345" x2="345" y1="358" y2="312" stroke="black" />
      <polygon clip-path="url(#clipPath54)" points=" 345 312 350 326 340 326" stroke="none" />
      <polygon fill="none" clip-path="url(#clipPath54)" points=" 345 312 350 326 340 326" stroke="black" />
      <line clip-path="url(#clipPath55)" fill="none" x1="155" x2="220" y1="358" y2="312" stroke="black" />
      <polygon clip-path="url(#clipPath56)" points=" 220 312 211 324 206 316" stroke="none" />
      <polygon fill="none" clip-path="url(#clipPath56)" points=" 220 312 211 324 206 316" stroke="black" />
    </g>
  </g>
</svg>
