<?xml version="1.0"?>

<!DOCTYPE svg PUBLIC '-//W3C//DTD SVG 1.0//EN' 'http://www.w3.org/TR/2001/REC-SVG-20010904/DTD/svg10.dtd'>
<svg stroke-dasharray="none" shape-rendering="auto" xmlns="http://www.w3.org/2000/svg" font-family="&apos;Dialog&apos;" width="682" text-rendering="auto" fill-opacity="1" contentScriptType="text/ecmascript" color-interpolation="auto" color-rendering="auto" preserveAspectRatio="xMidYMid meet" font-size="12" fill="black" xmlns:xlink="http://www.w3.org/1999/xlink" stroke="black" image-rendering="auto" stroke-miterlimit="10" zoomAndPan="magnify" version="1.0" stroke-linecap="square" stroke-linejoin="miter" contentStyleType="text/css" font-style="normal" height="483" stroke-width="1" stroke-dashoffset="0" font-weight="normal" stroke-opacity="1">
  <!--Generated by the Batik Graphics2D SVG Generator-->
  <defs id="genericDefs" />
  <g>
    <defs id="defs1">
      <clipPath clipPathUnits="userSpaceOnUse" id="clipPath1">
        <path d="M251 4 L422 4 L422 50 L251 50 L251 4 Z" />
      </clipPath>
      <clipPath clipPathUnits="userSpaceOnUse" id="clipPath2">
        <path d="M287 5 L385 5 L385 21 L287 21 L287 5 Z" />
      </clipPath>
      <clipPath clipPathUnits="userSpaceOnUse" id="clipPath3">
        <path d="M311 19 L361 19 L361 36 L311 36 L311 19 Z" />
      </clipPath>
      <clipPath clipPathUnits="userSpaceOnUse" id="clipPath4">
        <path d="M253 34 L420 34 L420 48 L253 48 L253 34 Z" />
      </clipPath>
      <clipPath clipPathUnits="userSpaceOnUse" id="clipPath5">
        <path d="M251 48 L422 48 L422 53 L251 53 L251 48 Z" />
      </clipPath>
      <clipPath clipPathUnits="userSpaceOnUse" id="clipPath6">
        <path d="M251 51 L422 51 L422 70 L251 70 L251 51 Z" />
      </clipPath>
      <clipPath clipPathUnits="userSpaceOnUse" id="clipPath7">
        <path d="M253 52 L320 52 L320 68 L253 68 L253 52 Z" />
      </clipPath>
      <clipPath clipPathUnits="userSpaceOnUse" id="clipPath8">
        <path d="M206 135 L468 135 L468 181 L206 181 L206 135 Z" />
      </clipPath>
      <clipPath clipPathUnits="userSpaceOnUse" id="clipPath9">
        <path d="M296 136 L378 136 L378 152 L296 152 L296 136 Z" />
      </clipPath>
      <clipPath clipPathUnits="userSpaceOnUse" id="clipPath10">
        <path d="M266 150 L407 150 L407 167 L266 167 L266 150 Z" />
      </clipPath>
      <clipPath clipPathUnits="userSpaceOnUse" id="clipPath11">
        <path d="M253 165 L420 165 L420 179 L253 179 L253 165 Z" />
      </clipPath>
      <clipPath clipPathUnits="userSpaceOnUse" id="clipPath12">
        <path d="M206 179 L468 179 L468 226 L206 226 L206 179 Z" />
      </clipPath>
      <clipPath clipPathUnits="userSpaceOnUse" id="clipPath13">
        <path d="M208 180 L373 180 L373 196 L208 196 L208 180 Z" />
      </clipPath>
      <clipPath clipPathUnits="userSpaceOnUse" id="clipPath14">
        <path d="M208 194 L400 194 L400 210 L208 210 L208 194 Z" />
      </clipPath>
      <clipPath clipPathUnits="userSpaceOnUse" id="clipPath15">
        <path d="M208 208 L439 208 L439 224 L208 224 L208 208 Z" />
      </clipPath>
      <clipPath clipPathUnits="userSpaceOnUse" id="clipPath16">
        <path d="M206 224 L468 224 L468 313 L206 313 L206 224 Z" />
      </clipPath>
      <clipPath clipPathUnits="userSpaceOnUse" id="clipPath17">
        <path d="M208 225 L275 225 L275 241 L208 241 L208 225 Z" />
      </clipPath>
      <clipPath clipPathUnits="userSpaceOnUse" id="clipPath18">
        <path d="M208 239 L400 239 L400 255 L208 255 L208 239 Z" />
      </clipPath>
      <clipPath clipPathUnits="userSpaceOnUse" id="clipPath19">
        <path d="M208 253 L388 253 L388 269 L208 269 L208 253 Z" />
      </clipPath>
      <clipPath clipPathUnits="userSpaceOnUse" id="clipPath20">
        <path d="M208 267 L426 267 L426 283 L208 283 L208 267 Z" />
      </clipPath>
      <clipPath clipPathUnits="userSpaceOnUse" id="clipPath21">
        <path d="M208 281 L466 281 L466 297 L208 297 L208 281 Z" />
      </clipPath>
      <clipPath clipPathUnits="userSpaceOnUse" id="clipPath22">
        <path d="M208 295 L349 295 L349 311 L208 311 L208 295 Z" />
      </clipPath>
      <clipPath clipPathUnits="userSpaceOnUse" id="clipPath23">
        <path d="M4 357 L201 357 L201 403 L4 403 L4 357 Z" />
      </clipPath>
      <clipPath clipPathUnits="userSpaceOnUse" id="clipPath24">
        <path d="M61 358 L143 358 L143 374 L61 374 L61 358 Z" />
      </clipPath>
      <clipPath clipPathUnits="userSpaceOnUse" id="clipPath25">
        <path d="M61 372 L143 372 L143 389 L61 389 L61 372 Z" />
      </clipPath>
      <clipPath clipPathUnits="userSpaceOnUse" id="clipPath26">
        <path d="M6 387 L199 387 L199 401 L6 401 L6 387 Z" />
      </clipPath>
      <clipPath clipPathUnits="userSpaceOnUse" id="clipPath27">
        <path d="M4 401 L201 401 L201 406 L4 406 L4 401 Z" />
      </clipPath>
      <clipPath clipPathUnits="userSpaceOnUse" id="clipPath28">
        <path d="M4 404 L201 404 L201 423 L4 423 L4 404 Z" />
      </clipPath>
      <clipPath clipPathUnits="userSpaceOnUse" id="clipPath29">
        <path d="M6 405 L145 405 L145 421 L6 421 L6 405 Z" />
      </clipPath>
      <clipPath clipPathUnits="userSpaceOnUse" id="clipPath30">
        <path d="M244 357 L430 357 L430 403 L244 403 L244 357 Z" />
      </clipPath>
      <clipPath clipPathUnits="userSpaceOnUse" id="clipPath31">
        <path d="M296 358 L378 358 L378 374 L296 374 L296 358 Z" />
      </clipPath>
      <clipPath clipPathUnits="userSpaceOnUse" id="clipPath32">
        <path d="M304 372 L370 372 L370 389 L304 389 L304 372 Z" />
      </clipPath>
      <clipPath clipPathUnits="userSpaceOnUse" id="clipPath33">
        <path d="M246 387 L428 387 L428 401 L246 401 L246 387 Z" />
      </clipPath>
      <clipPath clipPathUnits="userSpaceOnUse" id="clipPath34">
        <path d="M244 401 L430 401 L430 406 L244 406 L244 401 Z" />
      </clipPath>
      <clipPath clipPathUnits="userSpaceOnUse" id="clipPath35">
        <path d="M244 404 L430 404 L430 479 L244 479 L244 404 Z" />
      </clipPath>
      <clipPath clipPathUnits="userSpaceOnUse" id="clipPath36">
        <path d="M246 405 L329 405 L329 421 L246 421 L246 405 Z" />
      </clipPath>
      <clipPath clipPathUnits="userSpaceOnUse" id="clipPath37">
        <path d="M246 419 L395 419 L395 435 L246 435 L246 419 Z" />
      </clipPath>
      <clipPath clipPathUnits="userSpaceOnUse" id="clipPath38">
        <path d="M246 433 L338 433 L338 449 L246 449 L246 433 Z" />
      </clipPath>
      <clipPath clipPathUnits="userSpaceOnUse" id="clipPath39">
        <path d="M246 447 L312 447 L312 463 L246 463 L246 447 Z" />
      </clipPath>
      <clipPath clipPathUnits="userSpaceOnUse" id="clipPath40">
        <path d="M246 461 L385 461 L385 477 L246 477 L246 461 Z" />
      </clipPath>
      <clipPath clipPathUnits="userSpaceOnUse" id="clipPath41">
        <path d="M481 357 L678 357 L678 403 L481 403 L481 357 Z" />
      </clipPath>
      <clipPath clipPathUnits="userSpaceOnUse" id="clipPath42">
        <path d="M538 358 L620 358 L620 374 L538 374 L538 358 Z" />
      </clipPath>
      <clipPath clipPathUnits="userSpaceOnUse" id="clipPath43">
        <path d="M538 372 L621 372 L621 389 L538 389 L538 372 Z" />
      </clipPath>
      <clipPath clipPathUnits="userSpaceOnUse" id="clipPath44">
        <path d="M483 387 L676 387 L676 401 L483 401 L483 387 Z" />
      </clipPath>
      <clipPath clipPathUnits="userSpaceOnUse" id="clipPath45">
        <path d="M481 401 L678 401 L678 406 L481 406 L481 401 Z" />
      </clipPath>
      <clipPath clipPathUnits="userSpaceOnUse" id="clipPath46">
        <path d="M481 404 L678 404 L678 437 L481 437 L481 404 Z" />
      </clipPath>
      <clipPath clipPathUnits="userSpaceOnUse" id="clipPath47">
        <path d="M483 405 L567 405 L567 421 L483 421 L483 405 Z" />
      </clipPath>
      <clipPath clipPathUnits="userSpaceOnUse" id="clipPath48">
        <path d="M483 419 L622 419 L622 435 L483 435 L483 419 Z" />
      </clipPath>
      <clipPath clipPathUnits="userSpaceOnUse" id="clipPath49">
        <path d="M331 68 L344 68 L344 138 L331 138 L331 68 Z" />
      </clipPath>
      <clipPath clipPathUnits="userSpaceOnUse" id="clipPath50">
        <path d="M331 68 L344 68 L344 85 L331 85 L331 68 Z" />
      </clipPath>
      <clipPath clipPathUnits="userSpaceOnUse" id="clipPath51">
        <path d="M331 311 L344 311 L344 360 L331 360 L331 311 Z" />
      </clipPath>
      <clipPath clipPathUnits="userSpaceOnUse" id="clipPath52">
        <path d="M331 311 L344 311 L344 328 L331 328 L331 311 Z" />
      </clipPath>
      <clipPath clipPathUnits="userSpaceOnUse" id="clipPath53">
        <path d="M147 311 L214 311 L214 360 L147 360 L147 311 Z" />
      </clipPath>
      <clipPath clipPathUnits="userSpaceOnUse" id="clipPath54">
        <path d="M197 311 L214 311 L214 326 L197 326 L197 311 Z" />
      </clipPath>
      <clipPath clipPathUnits="userSpaceOnUse" id="clipPath55">
        <path d="M459 311 L527 311 L527 360 L459 360 L459 311 Z" />
      </clipPath>
      <clipPath clipPathUnits="userSpaceOnUse" id="clipPath56">
        <path d="M459 311 L476 311 L476 326 L459 326 L459 311 Z" />
      </clipPath>
    </defs>
    <g font-size="11" fill="white" font-family="&apos;Tahoma&apos;" stroke-linejoin="round" stroke="white" stroke-miterlimit="0">
      <rect width="764" x="0" height="490" y="0" stroke="none" />
      <rect x="252" y="5" clip-path="url(#clipPath1)" width="169" height="44" stroke="none" />
      <rect x="252" y="5" clip-path="url(#clipPath1)" fill="none" width="169" height="44" stroke="black" />
      <text x="290" y="17" clip-path="url(#clipPath2)" fill="black" font-family="&apos;Arial&apos;" stroke="none" xml:space="preserve">&lt;&lt;Java Interface&gt;&gt;</text>
    </g>
    <g stroke-miterlimit="0" font-weight="bold" font-family="&apos;Arial&apos;" stroke-linejoin="round">
      <text xml:space="preserve" x="314" y="32" clip-path="url(#clipPath3)" stroke="none">IStartup</text>
      <text font-size="9" x="256" y="44" clip-path="url(#clipPath4)" stroke="none" font-weight="normal" xml:space="preserve">com.d2s.framework.application.startup</text>
    </g>
    <g font-size="11" fill="white" font-family="&apos;Tahoma&apos;" stroke-linejoin="round" stroke="white" stroke-miterlimit="0">
      <rect x="252" y="49" clip-path="url(#clipPath5)" width="169" height="3" stroke="none" />
      <rect x="252" y="48" clip-path="url(#clipPath5)" fill="none" width="169" height="4" stroke="black" />
      <rect x="252" y="52" clip-path="url(#clipPath6)" width="169" height="17" stroke="none" />
      <rect x="252" y="51" clip-path="url(#clipPath6)" fill="none" width="169" height="18" stroke="black" />
      <text x="256" y="64" clip-path="url(#clipPath7)" fill="black" font-family="&apos;Arial&apos;" stroke="none" xml:space="preserve">+start(): void</text>
      <rect x="207" y="136" clip-path="url(#clipPath8)" width="260" height="44" stroke="none" />
      <rect x="207" y="136" clip-path="url(#clipPath8)" fill="none" width="260" height="44" stroke="black" />
      <text x="299" y="148" clip-path="url(#clipPath9)" fill="black" font-family="&apos;Arial&apos;" stroke="none" xml:space="preserve">&lt;&lt;Java Class&gt;&gt;</text>
    </g>
    <g font-style="italic" stroke-miterlimit="0" font-weight="bold" font-family="&apos;Arial&apos;" stroke-linejoin="round">
      <text xml:space="preserve" x="269" y="163" clip-path="url(#clipPath10)" stroke="none">AbstractStartup&lt;E,F,G&gt;</text>
      <text font-size="9" x="256" y="175" clip-path="url(#clipPath11)" font-style="normal" stroke="none" font-weight="normal" xml:space="preserve">com.d2s.framework.application.startup</text>
    </g>
    <g font-size="11" fill="white" font-family="&apos;Tahoma&apos;" stroke-linejoin="round" stroke="white" stroke-miterlimit="0">
      <rect x="207" y="180" clip-path="url(#clipPath12)" width="260" height="45" stroke="none" />
      <rect x="207" y="179" clip-path="url(#clipPath12)" fill="none" width="260" height="46" stroke="black" />
      <text x="211" y="192" clip-path="url(#clipPath13)" fill="black" font-family="&apos;Arial&apos;" stroke="none" xml:space="preserve">-applicationContext: BeanFactory</text>
      <text x="211" y="206" clip-path="url(#clipPath14)" fill="black" font-family="&apos;Arial&apos;" stroke="none" xml:space="preserve">-backendController: IBackendController</text>
      <text x="211" y="220" clip-path="url(#clipPath15)" fill="black" font-family="&apos;Arial&apos;" stroke="none" xml:space="preserve">-frontendController: IFrontendController&lt;E,F,G&gt;</text>
      <rect x="207" y="225" clip-path="url(#clipPath16)" width="260" height="87" stroke="none" />
      <rect x="207" y="224" clip-path="url(#clipPath16)" fill="none" width="260" height="88" stroke="black" />
      <text x="211" y="237" clip-path="url(#clipPath17)" fill="black" font-family="&apos;Arial&apos;" stroke="none" xml:space="preserve">+start(): void</text>
      <text x="211" y="251" clip-path="url(#clipPath18)" fill="black" font-family="&apos;Arial&apos;" stroke="none" xml:space="preserve">#getApplicationContext(): BeanFactory</text>
    </g>
    <g font-style="italic" font-size="11" stroke-miterlimit="0" font-family="&apos;Arial&apos;" stroke-linejoin="round">
      <text xml:space="preserve" x="211" y="265" clip-path="url(#clipPath19)" stroke="none">#getApplicationContextKey(): String</text>
      <text x="211" y="279" clip-path="url(#clipPath20)" font-style="normal" stroke="none" xml:space="preserve">#getBackendController(): IBackendController</text>
      <text x="211" y="293" clip-path="url(#clipPath21)" font-style="normal" stroke="none" xml:space="preserve">#getFrontendController(): IFrontendController&lt;E,F,G&gt;</text>
      <text xml:space="preserve" x="211" y="307" clip-path="url(#clipPath22)" stroke="none">#getStartupLocale(): Locale</text>
    </g>
    <g font-size="11" fill="white" font-family="&apos;Tahoma&apos;" stroke-linejoin="round" stroke="white" stroke-miterlimit="0">
      <rect x="5" y="358" clip-path="url(#clipPath23)" width="195" height="44" stroke="none" />
      <rect x="5" y="358" clip-path="url(#clipPath23)" fill="none" width="195" height="44" stroke="black" />
      <text x="64" y="370" clip-path="url(#clipPath24)" fill="black" font-family="&apos;Arial&apos;" stroke="none" xml:space="preserve">&lt;&lt;Java Class&gt;&gt;</text>
    </g>
    <g font-style="italic" stroke-miterlimit="0" font-weight="bold" font-family="&apos;Arial&apos;" stroke-linejoin="round">
      <text xml:space="preserve" x="64" y="385" clip-path="url(#clipPath25)" stroke="none">SwingStartup</text>
      <text font-size="9" x="9" y="397" clip-path="url(#clipPath26)" font-style="normal" stroke="none" font-weight="normal" xml:space="preserve">com.d2s.framework.application.startup.swing</text>
    </g>
    <g font-size="11" fill="white" font-family="&apos;Tahoma&apos;" stroke-linejoin="round" stroke="white" stroke-miterlimit="0">
      <rect x="5" y="402" clip-path="url(#clipPath27)" width="195" height="3" stroke="none" />
      <rect x="5" y="401" clip-path="url(#clipPath27)" fill="none" width="195" height="4" stroke="black" />
      <rect x="5" y="405" clip-path="url(#clipPath28)" width="195" height="17" stroke="none" />
      <rect x="5" y="404" clip-path="url(#clipPath28)" fill="none" width="195" height="18" stroke="black" />
      <text x="9" y="417" clip-path="url(#clipPath29)" fill="black" font-family="&apos;Arial&apos;" stroke="none" xml:space="preserve">#getStartupLocale(): Locale</text>
      <rect x="245" y="358" clip-path="url(#clipPath30)" width="184" height="44" stroke="none" />
      <rect x="245" y="358" clip-path="url(#clipPath30)" fill="none" width="184" height="44" stroke="black" />
      <text x="299" y="370" clip-path="url(#clipPath31)" fill="black" font-family="&apos;Arial&apos;" stroke="none" xml:space="preserve">&lt;&lt;Java Class&gt;&gt;</text>
    </g>
    <g font-style="italic" stroke-miterlimit="0" font-weight="bold" font-family="&apos;Arial&apos;" stroke-linejoin="round">
      <text xml:space="preserve" x="307" y="385" clip-path="url(#clipPath32)" stroke="none">UlcStartup</text>
      <text font-size="9" x="249" y="397" clip-path="url(#clipPath33)" font-style="normal" stroke="none" font-weight="normal" xml:space="preserve">com.d2s.framework.application.startup.ulc</text>
    </g>
    <g font-size="11" fill="white" font-family="&apos;Tahoma&apos;" stroke-linejoin="round" stroke="white" stroke-miterlimit="0">
      <rect x="245" y="402" clip-path="url(#clipPath34)" width="184" height="3" stroke="none" />
      <rect x="245" y="401" clip-path="url(#clipPath34)" fill="none" width="184" height="4" stroke="black" />
      <rect x="245" y="405" clip-path="url(#clipPath35)" width="184" height="73" stroke="none" />
      <rect x="245" y="404" clip-path="url(#clipPath35)" fill="none" width="184" height="74" stroke="black" />
      <text x="249" y="417" clip-path="url(#clipPath36)" fill="black" font-family="&apos;Arial&apos;" stroke="none" xml:space="preserve">+activate(): void</text>
      <text x="249" y="431" clip-path="url(#clipPath37)" fill="black" font-family="&apos;Arial&apos;" stroke="none" xml:space="preserve">+handleMessage(String): void</text>
      <text x="249" y="445" clip-path="url(#clipPath38)" fill="black" font-family="&apos;Arial&apos;" stroke="none" xml:space="preserve">+passivate(): void</text>
      <text x="249" y="459" clip-path="url(#clipPath39)" fill="black" font-family="&apos;Arial&apos;" stroke="none" xml:space="preserve">+stop(): void</text>
      <text x="249" y="473" clip-path="url(#clipPath40)" fill="black" font-family="&apos;Arial&apos;" stroke="none" xml:space="preserve">#getStartupLocale(): Locale</text>
      <rect x="482" y="358" clip-path="url(#clipPath41)" width="195" height="44" stroke="none" />
      <rect x="482" y="358" clip-path="url(#clipPath41)" fill="none" width="195" height="44" stroke="black" />
      <text x="541" y="370" clip-path="url(#clipPath42)" fill="black" font-family="&apos;Arial&apos;" stroke="none" xml:space="preserve">&lt;&lt;Java Class&gt;&gt;</text>
    </g>
    <g font-style="italic" stroke-miterlimit="0" font-weight="bold" font-family="&apos;Arial&apos;" stroke-linejoin="round">
      <text xml:space="preserve" x="541" y="385" clip-path="url(#clipPath43)" stroke="none">WingsStartup</text>
      <text font-size="9" x="486" y="397" clip-path="url(#clipPath44)" font-style="normal" stroke="none" font-weight="normal" xml:space="preserve">com.d2s.framework.application.startup.wings</text>
    </g>
    <g font-size="11" fill="white" font-family="&apos;Tahoma&apos;" stroke-linejoin="round" stroke="white" stroke-miterlimit="0">
      <rect x="482" y="402" clip-path="url(#clipPath45)" width="195" height="3" stroke="none" />
      <rect x="482" y="401" clip-path="url(#clipPath45)" fill="none" width="195" height="4" stroke="black" />
      <rect x="482" y="405" clip-path="url(#clipPath46)" width="195" height="31" stroke="none" />
      <rect x="482" y="404" clip-path="url(#clipPath46)" fill="none" width="195" height="32" stroke="black" />
      <text x="486" y="417" clip-path="url(#clipPath47)" fill="black" font-family="&apos;Arial&apos;" stroke="none" xml:space="preserve">+WingsStartup()</text>
      <text x="486" y="431" clip-path="url(#clipPath48)" fill="black" font-family="&apos;Arial&apos;" stroke="none" xml:space="preserve">#getStartupLocale(): Locale</text>
      <line clip-path="url(#clipPath49)" fill="none" x1="337" x2="337" y1="136" y2="69" stroke-dasharray="3,3" stroke="black" />
      <polygon clip-path="url(#clipPath50)" points=" 337 69 342 83 332 83" stroke="none" />
      <polygon fill="none" clip-path="url(#clipPath50)" points=" 337 69 342 83 332 83" stroke="black" />
      <line clip-path="url(#clipPath51)" fill="none" x1="337" x2="337" y1="358" y2="312" stroke="black" />
      <polygon clip-path="url(#clipPath52)" points=" 337 312 342 326 332 326" stroke="none" />
      <polygon fill="none" clip-path="url(#clipPath52)" points=" 337 312 342 326 332 326" stroke="black" />
      <line clip-path="url(#clipPath53)" fill="none" x1="148" x2="212" y1="358" y2="312" stroke="black" />
      <polygon clip-path="url(#clipPath54)" points=" 212 312 203 324 198 316" stroke="none" />
      <polygon fill="none" clip-path="url(#clipPath54)" points=" 212 312 203 324 198 316" stroke="black" />
      <line clip-path="url(#clipPath55)" fill="none" x1="525" x2="460" y1="358" y2="312" stroke="black" />
      <polygon clip-path="url(#clipPath56)" points=" 460 312 474 316 469 324" stroke="none" />
      <polygon fill="none" clip-path="url(#clipPath56)" points=" 460 312 474 316 469 324" stroke="black" />
    </g>
  </g>
</svg>
