<?xml version="1.0" encoding="UTF-8" standalone="no"?>
<!-- Created with Bouml (http://bouml.free.fr/) -->
<!DOCTYPE svg PUBLIC "-//W3C//DTD SVG 1.1//EN" "http://www.w3.org/Graphics/SVG/1.1/DTD/svg11.dtd">
<svg width="757" height="857" version="1.1" xmlns="http://www.w3.org/2000/svg">
<g>
	<line stroke="black" stroke-opacity="1" x1="234" y1="645" x2="274" y2="522" />
	<line stroke="black" stroke-opacity="1" x1="276" y1="517" x2="268" y2="520" />
	<line stroke="black" stroke-opacity="1" x1="276" y1="517" x2="279" y2="524" />
	<line stroke="black" stroke-opacity="1" x1="268" y1="520" x2="279" y2="524" />
</g>
<g>
	<line stroke="black" stroke-opacity="1" x1="291" y1="444" x2="291" y2="331" />
	<line stroke="black" stroke-opacity="1" x1="291" y1="325" x2="285" y2="331" />
	<line stroke="black" stroke-opacity="1" x1="291" y1="325" x2="297" y2="331" />
	<line stroke="black" stroke-opacity="1" x1="285" y1="331" x2="297" y2="331" />
</g>
<g>
	<line stroke="black" stroke-opacity="1" x1="375" y1="202" x2="353" y2="209" />
	<line stroke="black" stroke-opacity="1" x1="348" y1="212" x2="355" y2="215" />
	<line stroke="black" stroke-opacity="1" x1="348" y1="212" x2="351" y2="204" />
	<line stroke="black" stroke-opacity="1" x1="355" y1="215" x2="351" y2="204" />
</g>
<g>
	<line stroke="black" stroke-opacity="1" x1="408" y1="299" x2="375" y2="299" />
</g>
<g>
	<line stroke="black" stroke-opacity="1" x1="187" y1="191" x2="229" y2="209" />
	<line stroke="black" stroke-opacity="1" x1="235" y1="212" x2="231" y2="204" />
	<line stroke="black" stroke-opacity="1" x1="235" y1="212" x2="227" y2="215" />
	<line stroke="black" stroke-opacity="1" x1="231" y1="204" x2="227" y2="215" />
</g>
<g>
	<line stroke="black" stroke-opacity="1" x1="338" y1="706" x2="382" y2="634" />
	<line stroke="black" stroke-opacity="1" x1="386" y1="629" x2="377" y2="630" />
	<line stroke="black" stroke-opacity="1" x1="386" y1="629" x2="387" y2="637" />
	<line stroke="black" stroke-opacity="1" x1="377" y1="630" x2="387" y2="637" />
</g>
<g>
	<line stroke="black" stroke-opacity="1" x1="375" y1="299" x2="352" y2="282" />
	<line stroke="black" stroke-opacity="1" x1="348" y1="279" x2="349" y2="287" />
	<line stroke="black" stroke-opacity="1" x1="348" y1="279" x2="356" y2="277" />
	<line stroke="black" stroke-opacity="1" x1="349" y1="287" x2="356" y2="277" />
</g>
<g>
	<line stroke="black" stroke-opacity="1" x1="486" y1="444" x2="487" y2="432" />
	<line stroke="black" stroke-opacity="1" x1="488" y1="427" x2="481" y2="432" />
	<line stroke="black" stroke-opacity="1" x1="488" y1="427" x2="493" y2="433" />
	<line stroke="black" stroke-opacity="1" x1="481" y1="432" x2="493" y2="433" />
</g>
<g>
	<line stroke="black" stroke-opacity="1" x1="408" y1="202" x2="375" y2="202" />
</g>
<g>
	<line stroke="black" stroke-opacity="1" x1="371" y1="556" x2="334" y2="521" />
	<line stroke="black" stroke-opacity="1" x1="330" y1="517" x2="330" y2="525" />
	<line stroke="black" stroke-opacity="1" x1="330" y1="517" x2="338" y2="516" />
	<line stroke="black" stroke-opacity="1" x1="330" y1="525" x2="338" y2="516" />
</g>
<g>
	<line stroke="black" stroke-opacity="1" x1="408" y1="131" x2="375" y2="131" />
</g>
<g>
	<line stroke="black" stroke-opacity="1" x1="408" y1="396" x2="375" y2="396" />
</g>
<g>
	<line stroke="black" stroke-opacity="1" x1="169" y1="262" x2="229" y2="249" />
	<line stroke="black" stroke-opacity="1" x1="235" y1="248" x2="227" y2="243" />
	<line stroke="black" stroke-opacity="1" x1="235" y1="248" x2="230" y2="255" />
	<line stroke="black" stroke-opacity="1" x1="227" y1="243" x2="230" y2="255" />
</g>
<g>
	<line stroke="black" stroke-opacity="1" x1="375" y1="396" x2="339" y2="330" />
	<line stroke="black" stroke-opacity="1" x1="337" y1="325" x2="334" y2="333" />
	<line stroke="black" stroke-opacity="1" x1="337" y1="325" x2="345" y2="327" />
	<line stroke="black" stroke-opacity="1" x1="334" y1="333" x2="345" y2="327" />
</g>
<g>
	<line stroke="black" stroke-opacity="1" x1="175" y1="325" x2="230" y2="281" />
	<line stroke="black" stroke-opacity="1" x1="235" y1="278" x2="226" y2="276" />
	<line stroke="black" stroke-opacity="1" x1="235" y1="278" x2="233" y2="286" />
	<line stroke="black" stroke-opacity="1" x1="226" y1="276" x2="233" y2="286" />
</g>
<g>
	<line stroke="black" stroke-opacity="1" x1="491" y1="706" x2="440" y2="633" />
	<line stroke="black" stroke-opacity="1" x1="437" y1="629" x2="435" y2="637" />
	<line stroke="black" stroke-opacity="1" x1="437" y1="629" x2="445" y2="630" />
	<line stroke="black" stroke-opacity="1" x1="435" y1="637" x2="445" y2="630" />
</g>
<g>
	<line stroke="black" stroke-opacity="1" x1="375" y1="131" x2="352" y2="156" />
	<line stroke="black" stroke-opacity="1" x1="348" y1="161" x2="356" y2="160" />
	<line stroke="black" stroke-opacity="1" x1="348" y1="161" x2="347" y2="152" />
	<line stroke="black" stroke-opacity="1" x1="356" y1="160" x2="347" y2="152" />
</g>
<g>
	<line stroke="black" stroke-opacity="1" x1="169" y1="706" x2="234" y2="645" />
</g>
<g>
	<line stroke="black" stroke-opacity="1" x1="588" y1="444" x2="561" y2="429" />
	<line stroke="black" stroke-opacity="1" x1="556" y1="427" x2="558" y2="435" />
	<line stroke="black" stroke-opacity="1" x1="556" y1="427" x2="564" y2="424" />
	<line stroke="black" stroke-opacity="1" x1="558" y1="435" x2="564" y2="424" />
</g>
<g>
	<line stroke="black" stroke-opacity="1" x1="292" y1="150" x2="292" y2="133" />
	<line stroke="black" stroke-opacity="1" x1="292" y1="127" x2="286" y2="133" />
	<line stroke="black" stroke-opacity="1" x1="292" y1="127" x2="298" y2="133" />
	<line stroke="black" stroke-opacity="1" x1="286" y1="133" x2="298" y2="133" />
</g>
<g>
	<line stroke="black" stroke-opacity="1" x1="165" y1="568" x2="230" y2="520" />
	<line stroke="black" stroke-opacity="1" x1="235" y1="517" x2="226" y2="515" />
	<line stroke="black" stroke-opacity="1" x1="235" y1="517" x2="233" y2="525" />
	<line stroke="black" stroke-opacity="1" x1="226" y1="515" x2="233" y2="525" />
</g>
<g>
	<line stroke="black" stroke-opacity="1" x1="163" y1="501" x2="195" y2="495" />
	<line stroke="black" stroke-opacity="1" x1="201" y1="494" x2="194" y2="489" />
	<line stroke="black" stroke-opacity="1" x1="201" y1="494" x2="196" y2="500" />
	<line stroke="black" stroke-opacity="1" x1="194" y1="489" x2="196" y2="500" />
</g>
<g>
	<rect fill="#808080" stroke="none" stroke-opacity="1" x="344" y="155" width="3" height="169" />
	<rect fill="#808080" stroke="none" stroke-opacity="1" x="240" y="321" width="107" height="3" />
	<rect fill="#ffffc0" stroke="black" stroke-width="1" stroke-opacity="1" x="236" y="151" width="108" height="170" />
	<text font-family="Helvetica" font-size="12" fill="#000000" xml:space="preserve" text-anchor="middle" x="290" y="166">&lt;&lt;interface&gt;&gt;</text>
	<text font-family="Helvetica" font-size="12" fill="#000000" xml:space="preserve" font-weight="bold" text-anchor="middle" x="290" y="186">IViewDescriptor</text>
	<line stroke="black" stroke-opacity="1" x1="236" y1="191" x2="344" y2="191" />
	<text font-family="Helvetica" font-size="12" fill="#000000" xml:space="preserve" x="240" y="206">NONE</text>
	<text font-family="Helvetica" font-size="12" fill="#000000" xml:space="preserve" x="240" y="224">SIMPLE</text>
	<text font-family="Helvetica" font-size="12" fill="#000000" xml:space="preserve" x="240" y="242">TITLED</text>
	<line stroke="black" stroke-opacity="1" x1="236" y1="247" x2="344" y2="247" />
	<text font-family="Helvetica" font-size="12" fill="#000000" xml:space="preserve" x="240" y="262">getBackground()</text>
	<text font-family="Helvetica" font-size="12" fill="#000000" xml:space="preserve" x="240" y="280">getBorderType()</text>
	<text font-family="Helvetica" font-size="12" fill="#000000" xml:space="preserve" x="240" y="298">getFont()</text>
	<text font-family="Helvetica" font-size="12" fill="#000000" xml:space="preserve" x="240" y="316">getForeground()</text>
</g>
<g>
	<rect fill="#808080" stroke="none" stroke-opacity="1" x="161" y="561" width="3" height="139" />
	<rect fill="#808080" stroke="none" stroke-opacity="1" x="7" y="697" width="157" height="3" />
	<rect fill="#ffffc0" stroke="black" stroke-width="1" stroke-opacity="1" x="3" y="557" width="158" height="140" />
	<text font-family="Helvetica" font-size="12" fill="#000000" xml:space="preserve" text-anchor="middle" x="82" y="572">&lt;&lt;interface&gt;&gt;</text>
	<text font-family="Helvetica" font-size="12" fill="#000000" xml:space="preserve" font-weight="bold" text-anchor="middle" x="82" y="592">IBorderViewDescriptor</text>
	<line stroke="black" stroke-opacity="1" x1="3" y1="597" x2="161" y2="597" />
	<line stroke="black" stroke-opacity="1" x1="3" y1="605" x2="161" y2="605" />
	<text font-family="Helvetica" font-size="12" fill="#000000" xml:space="preserve" x="7" y="620">getCenterViewDescriptor()</text>
	<text font-family="Helvetica" font-size="12" fill="#000000" xml:space="preserve" x="7" y="638">getEastViewDescriptor()</text>
	<text font-family="Helvetica" font-size="12" fill="#000000" xml:space="preserve" x="7" y="656">getNorthViewDescriptor()</text>
	<text font-family="Helvetica" font-size="12" fill="#000000" xml:space="preserve" x="7" y="674">getSouthViewDescriptor()</text>
	<text font-family="Helvetica" font-size="12" fill="#000000" xml:space="preserve" x="7" y="692">getWestViewDescriptor()</text>
</g>
<g>
	<rect fill="#808080" stroke="none" stroke-opacity="1" x="621" y="711" width="3" height="67" />
	<rect fill="#808080" stroke="none" stroke-opacity="1" x="415" y="775" width="209" height="3" />
	<rect fill="#ffffc0" stroke="black" stroke-width="1" stroke-opacity="1" x="411" y="707" width="210" height="68" />
	<text font-family="Helvetica" font-size="12" fill="#000000" xml:space="preserve" text-anchor="middle" x="516" y="722">&lt;&lt;interface&gt;&gt;</text>
	<text font-family="Helvetica" font-size="12" fill="#000000" xml:space="preserve" font-weight="bold" text-anchor="middle" x="516" y="742">IConstrainedGridViewDescriptor</text>
	<line stroke="black" stroke-opacity="1" x1="411" y1="747" x2="621" y2="747" />
	<line stroke="black" stroke-opacity="1" x1="411" y1="755" x2="621" y2="755" />
	<text font-family="Helvetica" font-size="12" fill="#000000" xml:space="preserve" x="415" y="770">getViewConstraints()</text>
</g>
<g>
	<rect fill="#808080" stroke="none" stroke-opacity="1" x="563" y="244" width="3" height="115" />
	<rect fill="#808080" stroke="none" stroke-opacity="1" x="413" y="356" width="153" height="3" />
	<rect fill="#ffffc0" stroke="black" stroke-width="1" stroke-opacity="1" x="409" y="240" width="154" height="116" />
	<text font-family="Helvetica" font-size="12" fill="#000000" xml:space="preserve" text-anchor="middle" x="486" y="255">&lt;&lt;interface&gt;&gt;</text>
	<text font-family="Helvetica" font-size="12" fill="#000000" xml:space="preserve" font-weight="bold" text-anchor="middle" x="486" y="275">ICardViewDescriptor</text>
	<line stroke="black" stroke-opacity="1" x1="409" y1="280" x2="563" y2="280" />
	<text font-family="Helvetica" font-size="12" fill="#000000" xml:space="preserve" x="413" y="295">DEFAULT_CARD</text>
	<text font-family="Helvetica" font-size="12" fill="#000000" xml:space="preserve" x="413" y="313">SECURITY_CARD</text>
	<line stroke="black" stroke-opacity="1" x1="409" y1="318" x2="563" y2="318" />
	<text font-family="Helvetica" font-size="12" fill="#000000" xml:space="preserve" x="413" y="333">getCardNameForModel()</text>
	<text font-family="Helvetica" font-size="12" fill="#000000" xml:space="preserve" x="413" y="351">getCardViewDescriptors()</text>
</g>
<g>
	<rect fill="#808080" stroke="none" stroke-opacity="1" x="356" y="5" width="3" height="121" />
	<rect fill="#808080" stroke="none" stroke-opacity="1" x="228" y="123" width="131" height="3" />
	<rect fill="#ffffc0" stroke="black" stroke-width="1" stroke-opacity="1" x="224" y="1" width="132" height="122" />
	<text font-family="Helvetica" font-size="12" fill="#000000" xml:space="preserve" text-anchor="middle" x="290" y="16">&lt;&lt;interface&gt;&gt;</text>
	<text font-family="Helvetica" font-size="12" fill="#000000" xml:space="preserve" font-weight="bold" text-anchor="middle" x="290" y="36">ISubViewDescriptor</text>
	<line stroke="black" stroke-opacity="1" x1="224" y1="41" x2="356" y2="41" />
	<line stroke="black" stroke-opacity="1" x1="224" y1="49" x2="356" y2="49" />
	<text font-family="Helvetica" font-size="12" fill="#000000" xml:space="preserve" x="228" y="64">getModelDescriptor()</text>
	<text font-family="Helvetica" font-size="12" fill="#000000" xml:space="preserve" x="228" y="82">getReadabilityGates()</text>
	<text font-family="Helvetica" font-size="12" fill="#000000" xml:space="preserve" x="228" y="100">getWritabilityGates()</text>
	<text font-family="Helvetica" font-size="12" fill="#000000" xml:space="preserve" x="228" y="118">isReadOnly()</text>
</g>
<g>
	<rect fill="#808080" stroke="none" stroke-opacity="1" x="488" y="561" width="3" height="67" />
	<rect fill="#808080" stroke="none" stroke-opacity="1" x="336" y="625" width="155" height="3" />
	<rect fill="#ffffc0" stroke="black" stroke-width="1" stroke-opacity="1" x="332" y="557" width="156" height="68" />
	<text font-family="Helvetica" font-size="12" fill="#000000" xml:space="preserve" text-anchor="middle" x="410" y="572">&lt;&lt;interface&gt;&gt;</text>
	<text font-family="Helvetica" font-size="12" fill="#000000" xml:space="preserve" font-weight="bold" text-anchor="middle" x="410" y="592">IGridViewDescriptor</text>
	<line stroke="black" stroke-opacity="1" x1="332" y1="597" x2="488" y2="597" />
	<line stroke="black" stroke-opacity="1" x1="332" y1="605" x2="488" y2="605" />
	<text font-family="Helvetica" font-size="12" fill="#000000" xml:space="preserve" x="336" y="620">getChildViewDescriptors()</text>
</g>
<g>
	<rect fill="#808080" stroke="none" stroke-opacity="1" x="557" y="179" width="3" height="55" />
	<rect fill="#808080" stroke="none" stroke-opacity="1" x="413" y="231" width="147" height="3" />
	<rect fill="#ffffc0" stroke="black" stroke-width="1" stroke-opacity="1" x="409" y="175" width="148" height="56" />
	<text font-family="Helvetica" font-size="12" fill="#000000" xml:space="preserve" text-anchor="middle" x="483" y="190">&lt;&lt;interface&gt;&gt;</text>
	<text font-family="Helvetica" font-size="12" fill="#000000" xml:space="preserve" font-weight="bold" text-anchor="middle" x="483" y="210">IImageViewDescriptor</text>
	<line stroke="black" stroke-opacity="1" x1="409" y1="215" x2="557" y2="215" />
	<line stroke="black" stroke-opacity="1" x1="409" y1="223" x2="557" y2="223" />
</g>
<g>
	<rect fill="#808080" stroke="none" stroke-opacity="1" x="183" y="67" width="3" height="169" />
	<rect fill="#808080" stroke="none" stroke-opacity="1" x="7" y="233" width="179" height="3" />
	<rect fill="#ffffc0" stroke="black" stroke-width="1" stroke-opacity="1" x="3" y="63" width="180" height="170" />
	<text font-family="Helvetica" font-size="12" fill="#000000" xml:space="preserve" text-anchor="middle" x="93" y="78">&lt;&lt;interface&gt;&gt;</text>
	<text font-family="Helvetica" font-size="12" fill="#000000" xml:space="preserve" font-weight="bold" text-anchor="middle" x="93" y="98">IComponentViewDescriptor</text>
	<line stroke="black" stroke-opacity="1" x1="3" y1="103" x2="183" y2="103" />
	<text font-family="Helvetica" font-size="12" fill="#000000" xml:space="preserve" x="7" y="118">ABOVE</text>
	<text font-family="Helvetica" font-size="12" fill="#000000" xml:space="preserve" x="7" y="136">ASIDE</text>
	<line stroke="black" stroke-opacity="1" x1="3" y1="141" x2="183" y2="141" />
	<text font-family="Helvetica" font-size="12" fill="#000000" xml:space="preserve" x="7" y="156">getColumnCount()</text>
	<text font-family="Helvetica" font-size="12" fill="#000000" xml:space="preserve" x="7" y="174">getLabelsPosition()</text>
	<text font-family="Helvetica" font-size="12" fill="#000000" xml:space="preserve" x="7" y="192">getPropertyViewDescriptors()</text>
	<text font-family="Helvetica" font-size="12" fill="#000000" xml:space="preserve" x="7" y="210">getPropertyWidth()</text>
	<text font-family="Helvetica" font-size="12" fill="#000000" xml:space="preserve" x="7" y="228">getRenderedChildProperties()</text>
</g>
<g>
	<rect fill="#808080" stroke="none" stroke-opacity="1" x="547" y="449" width="3" height="67" />
	<rect fill="#808080" stroke="none" stroke-opacity="1" x="413" y="513" width="137" height="3" />
	<rect fill="#ffffc0" stroke="black" stroke-width="1" stroke-opacity="1" x="409" y="445" width="138" height="68" />
	<text font-family="Helvetica" font-size="12" fill="#000000" xml:space="preserve" text-anchor="middle" x="478" y="460">&lt;&lt;interface&gt;&gt;</text>
	<text font-family="Helvetica" font-size="12" fill="#000000" xml:space="preserve" font-weight="bold" text-anchor="middle" x="478" y="480">IListViewDescriptor</text>
	<line stroke="black" stroke-opacity="1" x1="409" y1="485" x2="547" y2="485" />
	<line stroke="black" stroke-opacity="1" x1="409" y1="493" x2="547" y2="493" />
	<text font-family="Helvetica" font-size="12" fill="#000000" xml:space="preserve" x="413" y="508">getRenderedProperty()</text>
</g>
<g>
	<rect fill="#808080" stroke="none" stroke-opacity="1" x="581" y="371" width="3" height="55" />
	<rect fill="#808080" stroke="none" stroke-opacity="1" x="413" y="423" width="171" height="3" />
	<rect fill="#ffffc0" stroke="black" stroke-width="1" stroke-opacity="1" x="409" y="367" width="172" height="56" />
	<text font-family="Helvetica" font-size="12" fill="#000000" xml:space="preserve" text-anchor="middle" x="495" y="382">&lt;&lt;interface&gt;&gt;</text>
	<text font-family="Helvetica" font-size="12" fill="#000000" xml:space="preserve" font-weight="bold" text-anchor="middle" x="495" y="402">ICollectionViewDescriptor</text>
	<line stroke="black" stroke-opacity="1" x1="409" y1="407" x2="581" y2="407" />
	<line stroke="black" stroke-opacity="1" x1="409" y1="415" x2="581" y2="415" />
</g>
<g>
	<rect fill="#808080" stroke="none" stroke-opacity="1" x="376" y="449" width="3" height="67" />
	<rect fill="#808080" stroke="none" stroke-opacity="1" x="206" y="513" width="173" height="3" />
	<rect fill="#ffffc0" stroke="black" stroke-width="1" stroke-opacity="1" x="202" y="445" width="174" height="68" />
	<text font-family="Helvetica" font-size="12" fill="#000000" xml:space="preserve" text-anchor="middle" x="289" y="460">&lt;&lt;interface&gt;&gt;</text>
	<text font-family="Helvetica" font-size="12" fill="#000000" xml:space="preserve" font-weight="bold" text-anchor="middle" x="289" y="480">ICompositeViewDescriptor</text>
	<line stroke="black" stroke-opacity="1" x1="202" y1="485" x2="376" y2="485" />
	<line stroke="black" stroke-opacity="1" x1="202" y1="493" x2="376" y2="493" />
	<text font-family="Helvetica" font-size="12" fill="#000000" xml:space="preserve" x="206" y="508">isMasterDetail()</text>
</g>
<g>
	<rect fill="#808080" stroke="none" stroke-opacity="1" x="165" y="250" width="3" height="67" />
	<rect fill="#808080" stroke="none" stroke-opacity="1" x="7" y="314" width="161" height="3" />
	<rect fill="#ffffc0" stroke="black" stroke-width="1" stroke-opacity="1" x="3" y="246" width="162" height="68" />
	<text font-family="Helvetica" font-size="12" fill="#000000" xml:space="preserve" text-anchor="middle" x="84" y="261">&lt;&lt;interface&gt;&gt;</text>
	<text font-family="Helvetica" font-size="12" fill="#000000" xml:space="preserve" font-weight="bold" text-anchor="middle" x="84" y="281">INestingViewDescriptor</text>
	<line stroke="black" stroke-opacity="1" x1="3" y1="286" x2="165" y2="286" />
	<line stroke="black" stroke-opacity="1" x1="3" y1="294" x2="165" y2="294" />
	<text font-family="Helvetica" font-size="12" fill="#000000" xml:space="preserve" x="7" y="309">getNestedViewDescriptor()</text>
</g>
<g>
	<rect fill="#808080" stroke="none" stroke-opacity="1" x="585" y="101" width="3" height="67" />
	<rect fill="#808080" stroke="none" stroke-opacity="1" x="413" y="165" width="175" height="3" />
	<rect fill="#ffffc0" stroke="black" stroke-width="1" stroke-opacity="1" x="409" y="97" width="176" height="68" />
	<text font-family="Helvetica" font-size="12" fill="#000000" xml:space="preserve" text-anchor="middle" x="497" y="112">&lt;&lt;interface&gt;&gt;</text>
	<text font-family="Helvetica" font-size="12" fill="#000000" xml:space="preserve" font-weight="bold" text-anchor="middle" x="497" y="132">IPropertyViewDescriptor</text>
	<line stroke="black" stroke-opacity="1" x1="409" y1="137" x2="585" y2="137" />
	<line stroke="black" stroke-opacity="1" x1="409" y1="145" x2="585" y2="145" />
	<text font-family="Helvetica" font-size="12" fill="#000000" xml:space="preserve" x="413" y="160">getRenderedChildProperties()</text>
</g>
<g>
	<rect fill="#808080" stroke="none" stroke-opacity="1" x="395" y="711" width="3" height="115" />
	<rect fill="#808080" stroke="none" stroke-opacity="1" x="211" y="823" width="187" height="3" />
	<rect fill="#ffffc0" stroke="black" stroke-width="1" stroke-opacity="1" x="207" y="707" width="188" height="116" />
	<text font-family="Helvetica" font-size="12" fill="#000000" xml:space="preserve" text-anchor="middle" x="301" y="722">&lt;&lt;interface&gt;&gt;</text>
	<text font-family="Helvetica" font-size="12" fill="#000000" xml:space="preserve" font-weight="bold" text-anchor="middle" x="301" y="742">IEvenGridViewDescriptor</text>
	<line stroke="black" stroke-opacity="1" x1="207" y1="747" x2="395" y2="747" />
	<text font-family="Helvetica" font-size="12" fill="#000000" xml:space="preserve" x="211" y="762">COLUMN</text>
	<text font-family="Helvetica" font-size="12" fill="#000000" xml:space="preserve" x="211" y="780">ROW</text>
	<line stroke="black" stroke-opacity="1" x1="207" y1="785" x2="395" y2="785" />
	<text font-family="Helvetica" font-size="12" fill="#000000" xml:space="preserve" x="211" y="800">getDrivingDimension()</text>
	<text font-family="Helvetica" font-size="12" fill="#000000" xml:space="preserve" x="211" y="818">getDrivingDimensionCellCount()</text>
</g>
<g>
	<rect fill="#808080" stroke="none" stroke-opacity="1" x="195" y="711" width="3" height="133" />
	<rect fill="#808080" stroke="none" stroke-opacity="1" x="7" y="841" width="191" height="3" />
	<rect fill="#ffffc0" stroke="black" stroke-width="1" stroke-opacity="1" x="3" y="707" width="192" height="134" />
	<text font-family="Helvetica" font-size="12" fill="#000000" xml:space="preserve" text-anchor="middle" x="99" y="722">&lt;&lt;interface&gt;&gt;</text>
	<text font-family="Helvetica" font-size="12" fill="#000000" xml:space="preserve" font-weight="bold" text-anchor="middle" x="99" y="742">ISplitViewDescriptor</text>
	<line stroke="black" stroke-opacity="1" x1="3" y1="747" x2="195" y2="747" />
	<text font-family="Helvetica" font-size="12" fill="#000000" xml:space="preserve" x="7" y="762">HORIZONTAL</text>
	<text font-family="Helvetica" font-size="12" fill="#000000" xml:space="preserve" x="7" y="780">VERTICAL</text>
	<line stroke="black" stroke-opacity="1" x1="3" y1="785" x2="195" y2="785" />
	<text font-family="Helvetica" font-size="12" fill="#000000" xml:space="preserve" x="7" y="800">getLeftTopViewDescriptor()</text>
	<text font-family="Helvetica" font-size="12" fill="#000000" xml:space="preserve" x="7" y="818">getOrientation()</text>
	<text font-family="Helvetica" font-size="12" fill="#000000" xml:space="preserve" x="7" y="836">getRightBottomViewDescriptor()</text>
</g>
<g>
	<rect fill="#808080" stroke="none" stroke-opacity="1" x="741" y="449" width="3" height="67" />
	<rect fill="#808080" stroke="none" stroke-opacity="1" x="573" y="513" width="171" height="3" />
	<rect fill="#ffffc0" stroke="black" stroke-width="1" stroke-opacity="1" x="569" y="445" width="172" height="68" />
	<text font-family="Helvetica" font-size="12" fill="#000000" xml:space="preserve" text-anchor="middle" x="655" y="460">&lt;&lt;interface&gt;&gt;</text>
	<text font-family="Helvetica" font-size="12" fill="#000000" xml:space="preserve" font-weight="bold" text-anchor="middle" x="655" y="480">ITableViewDescriptor</text>
	<line stroke="black" stroke-opacity="1" x1="569" y1="485" x2="741" y2="485" />
	<line stroke="black" stroke-opacity="1" x1="569" y1="493" x2="741" y2="493" />
	<text font-family="Helvetica" font-size="12" fill="#000000" xml:space="preserve" x="573" y="508">getColumnViewDescriptors()</text>
</g>
<g>
	<rect fill="#808080" stroke="none" stroke-opacity="1" x="205" y="330" width="3" height="103" />
	<rect fill="#808080" stroke="none" stroke-opacity="1" x="7" y="430" width="201" height="3" />
	<rect fill="#ffffc0" stroke="black" stroke-width="1" stroke-opacity="1" x="3" y="326" width="202" height="104" />
	<text font-family="Helvetica" font-size="12" fill="#000000" xml:space="preserve" text-anchor="middle" x="104" y="341">&lt;&lt;interface&gt;&gt;</text>
	<text font-family="Helvetica" font-size="12" fill="#000000" xml:space="preserve" font-weight="bold" text-anchor="middle" x="104" y="361">ITreeViewDescriptor</text>
	<line stroke="black" stroke-opacity="1" x1="3" y1="366" x2="205" y2="366" />
	<line stroke="black" stroke-opacity="1" x1="3" y1="374" x2="205" y2="374" />
	<text font-family="Helvetica" font-size="12" fill="#000000" xml:space="preserve" x="7" y="389">getIconImageURLForUserObject()</text>
	<text font-family="Helvetica" font-size="12" fill="#000000" xml:space="preserve" x="7" y="407">getMaxDepth()</text>
	<text font-family="Helvetica" font-size="12" fill="#000000" xml:space="preserve" x="7" y="425">getRootSubtreeDescriptor()</text>
</g>
<g>
	<rect fill="#808080" stroke="none" stroke-opacity="1" x="159" y="484" width="3" height="67" />
	<rect fill="#808080" stroke="none" stroke-opacity="1" x="7" y="548" width="155" height="3" />
	<rect fill="#ffffc0" stroke="black" stroke-width="1" stroke-opacity="1" x="3" y="480" width="156" height="68" />
	<text font-family="Helvetica" font-size="12" fill="#000000" xml:space="preserve" text-anchor="middle" x="81" y="495">&lt;&lt;interface&gt;&gt;</text>
	<text font-family="Helvetica" font-size="12" fill="#000000" xml:space="preserve" font-weight="bold" text-anchor="middle" x="81" y="515">ITabViewDescriptor</text>
	<line stroke="black" stroke-opacity="1" x1="3" y1="520" x2="159" y2="520" />
	<line stroke="black" stroke-opacity="1" x1="3" y1="528" x2="159" y2="528" />
	<text font-family="Helvetica" font-size="12" fill="#000000" xml:space="preserve" x="7" y="543">getChildViewDescriptors()</text>
</g>
</svg>
