<!--
  ~ Copyright (c) 2005-2016 Vincent Vandenschrick. All rights reserved.
  ~
  ~  This file is part of the Jspresso framework.
  ~
  ~  Jspresso is free software: you can redistribute it and/or modify
  ~  it under the terms of the GNU Lesser General Public License as published by
  ~  the Free Software Foundation, either version 3 of the License, or
  ~  (at your option) any later version.
  ~
  ~  Jspresso is distributed in the hope that it will be useful,
  ~  but WITHOUT ANY WARRANTY; without even the implied warranty of
  ~  MERCHANTABILITY or FITNESS FOR A PARTICULAR PURPOSE.  See the
  ~  GNU Lesser General Public License for more details.
  ~
  ~  You should have received a copy of the GNU Lesser General Public License
  ~  along with Jspresso.  If not, see <http://www.gnu.org/licenses/>.
  -->
<svg fill="#000000" height="24" viewBox="0 0 24 24" width="24" xmlns="http://www.w3.org/2000/svg">
    <path d="M0 0h24v24H0z" fill="none"/>
    <path d="M10.09 15.59L11.5 17l5-5-5-5-1.41 1.41L12.67 11H3v2h9.67l-2.58 2.59zM19 3H5c-1.11 0-2 .9-2 2v4h2V5h14v14H5v-4H3v4c0 1.1.89 2 2 2h14c1.1 0 2-.9 2-2V5c0-1.1-.9-2-2-2z"
          stroke="#757575" fill="#757575"/>
</svg>
