<?xml version="1.0" encoding="utf-8"?>
<!-- Generated by IcoMoon.io -->
<!DOCTYPE svg PUBLIC "-//W3C//DTD SVG 1.1//EN" "http://www.w3.org/Graphics/SVG/1.1/DTD/svg11.dtd">
<svg version="1.1" xmlns="http://www.w3.org/2000/svg" xmlns:xlink="http://www.w3.org/1999/xlink" width="48" height="48" viewBox="0 0 32 32">
<rect fill="#2e75b6" x="0" y="0" width="32" height="32"></rect>
<path fill="#fff" d="M26.318 23.721l-5.211-4.432c-0.539-0.485-1.115-0.707-1.58-0.686 1.23-1.441 1.973-3.31 1.973-5.353 0-4.556-3.694-8.25-8.25-8.25s-8.25 3.694-8.25 8.25 3.694 8.25 8.25 8.25c2.043 0 3.913-0.743 5.353-1.973-0.021 0.465 0.201 1.041 0.686 1.58l4.432 5.211c0.759 0.843 1.998 0.914 2.755 0.158s0.685-1.996-0.158-2.755zM13.25 18.75c-3.038 0-5.5-2.462-5.5-5.5s2.463-5.5 5.5-5.5 5.5 2.463 5.5 5.5-2.462 5.5-5.5 5.5z"></path>
</svg>
