<!--
  ~ Copyright (c) 2005-2016 Vincent Vandenschrick. All rights reserved.
  ~
  ~  This file is part of the Jspresso framework.
  ~
  ~  Jspresso is free software: you can redistribute it and/or modify
  ~  it under the terms of the GNU Lesser General Public License as published by
  ~  the Free Software Foundation, either version 3 of the License, or
  ~  (at your option) any later version.
  ~
  ~  Jspresso is distributed in the hope that it will be useful,
  ~  but WITHOUT ANY WARRANTY; without even the implied warranty of
  ~  MERCHANTABILITY or FITNESS FOR A PARTICULAR PURPOSE.  See the
  ~  GNU Lesser General Public License for more details.
  ~
  ~  You should have received a copy of the GNU Lesser General Public License
  ~  along with Jspresso.  If not, see <http://www.gnu.org/licenses/>.
  -->
<svg fill="#000000" height="48" viewBox="0 0 24 24" width="48" xmlns="http://www.w3.org/2000/svg">
    <path d="M15.5 14h-.79l-.28-.27C15.41 12.59 16 11.11 16 9.5 16 5.91 13.09 3 9.5 3S3 5.91 3 9.5 5.91 16 9.5 16c1.61 0 3.09-.59 4.23-1.57l.27.28v.79l5 4.99L20.49 19l-4.99-5zm-6 0C7.01 14 5 11.99 5 9.5S7.01 5 9.5 5 14 7.01 14 9.5 11.99 14 9.5 14z"
          fill="#757575"/>
    <path d="M0 0h24v24H0z" fill="none"/>
</svg>
