<!--
  ~ Copyright (c) 2005-2016 Vincent Vandenschrick. All rights reserved.
  ~
  ~  This file is part of the Jspresso framework.
  ~
  ~  Jspresso is free software: you can redistribute it and/or modify
  ~  it under the terms of the GNU Lesser General Public License as published by
  ~  the Free Software Foundation, either version 3 of the License, or
  ~  (at your option) any later version.
  ~
  ~  Jspresso is distributed in the hope that it will be useful,
  ~  but WITHOUT ANY WARRANTY; without even the implied warranty of
  ~  MERCHANTABILITY or FITNESS FOR A PARTICULAR PURPOSE.  See the
  ~  GNU Lesser General Public License for more details.
  ~
  ~  You should have received a copy of the GNU Lesser General Public License
  ~  along with Jspresso.  If not, see <http://www.gnu.org/licenses/>.
  -->
<svg fill="#000000" height="48" viewBox="0 0 24 24" width="48" xmlns="http://www.w3.org/2000/svg">
    <path d="M0 0h24v24H0z" fill="none"/>
    <path d="M12 17c1.1 0 2-.9 2-2s-.9-2-2-2-2 .9-2 2 .9 2 2 2zm6-9h-1V6c0-2.76-2.24-5-5-5S7 3.24 7 6h1.9c0-1.71 1.39-3.1 3.1-3.1 1.71 0 3.1 1.39 3.1 3.1v2H6c-1.1 0-2 .9-2 2v10c0 1.1.9 2 2 2h12c1.1 0 2-.9 2-2V10c0-1.1-.9-2-2-2zm0 12H6V10h12v10z"
          stroke="#757575" fill="#757575"/>
</svg>
